<svg width="473" height="258" viewBox="0 0 473 258" fill="none" xmlns="http://www.w3.org/2000/svg">
<mask id="mask0_14_305" style="mask-type:alpha" maskUnits="userSpaceOnUse" x="0" y="0" width="473" height="258">
<path d="M0 0L473 -2.67906e-08L473 258L1.46131e-08 258L0 0Z" fill="#D9D9D9"/>
</mask>
<g mask="url(#mask0_14_305)">
<path d="M385.805 81.9963C385.513 80.1441 382.88 75.8542 372.603 78.1966C362.326 80.5391 360.085 80.3484 357.026 76.6304C353.977 72.9261 356.174 64.9182 344.934 64.6594C333.693 64.4007 341.941 62.7119 330.275 59.457C318.609 56.2021 321.074 57.2507 309.408 56.1748C297.742 55.1126 298.706 59.1846 296.352 60.492C293.999 61.7994 284.574 67.9007 279.229 67.2606C273.872 66.6069 268.201 65.9532 262.855 72.7218C257.499 79.4904 251.727 78.183 245.306 78.183C238.884 78.183 233.001 83.9029 231.6 85.2104C230.21 86.5178 218.544 94.0491 210.767 86.5178C202.989 78.9729 187.826 79.8853 180.441 79.8853C173.056 79.8853 174.121 77.5429 164.169 74.288C154.217 71.0331 136.981 88.6015 136.981 88.6015L133.799 91.7202C143.504 90.549 149.208 91.2027 149.208 91.2027C149.208 91.2027 163.743 101.417 167.587 100.246C171.442 99.0744 175.129 98.8838 175.129 98.8838L181.226 99.2787C181.226 99.2787 203.706 109.234 205.948 110.01C208.189 110.787 223.228 112.285 223.979 112.285C242.798 112.285 265.84 100.572 285.426 100.572C288.967 100.572 292.486 96.0238 292.486 96.0238C337.5 104 372.603 100.572 397 91.1891C397 87.9886 386.085 83.8485 385.793 81.9963H385.805Z" fill="#C3E6FA"/>
<path d="M474.5 143L479 130L421 94.3369C421 94.3369 416.72 77.99 416.295 77.8541C415.869 77.7182 413.079 78.1123 409.08 78.5064C405.08 78.9005 387.726 79.2945 385.16 77.8541C382.595 76.4138 378.528 73.0574 378.102 71.8888C377.677 70.7202 369.117 68.1248 367.078 67.7308C365.05 67.3367 360.547 57.7432 360.547 57.7432C360.547 57.7432 357.018 62.2818 353.489 62.2818C349.96 62.2818 349.635 69.0353 344.817 69.9457C340 70.8561 338.723 74.226 338.723 74.226C338.723 74.226 334.331 80.0691 328.102 80.9795C321.873 81.8899 320.764 87.9096 314.96 85.2599C309.168 82.6237 305.975 87.0807 301.158 82.3111C296.34 77.5416 292.811 73.9679 292.06 73.9679C291.31 73.9679 276.275 72.4731 274.034 71.6986C271.794 70.924 249.32 60.9908 249.32 60.9908L243.225 60.5968C243.225 60.5968 239.528 60.7871 235.685 61.9557C231.831 63.1243 217.312 52.9329 217.312 52.9329C217.312 52.9329 211.609 52.2807 201.907 53.4493C199.409 53.7482 196.641 54.1695 193.639 54.7538C183.477 52.4437 168.924 55.7865 159.614 51.2479C145.599 49.4271 115.204 16.9914 110.499 18.0241C98.5 18.0241 -9.99999 71.6986 0.500007 77.8541L-4 144.5L474.5 143Z" fill="#A0C9EC"/>
<path d="M359.882 58C359.882 58 355.253 61.0652 360.514 64.4911C365.774 67.917 366.704 72.6328 369.085 73.035C371.466 73.4372 371.943 72.5357 373.77 74.63C375.597 76.7105 377.657 79.6925 379.008 80.7883C380.359 81.884 382.818 83.8674 383.216 83.8674C383.615 83.8674 383.061 81.5789 381.079 80.1919C379.097 78.8049 378.299 78.1114 377.989 77.0156C377.679 75.9199 375.608 74.9352 377.513 74.9352C379.418 74.9352 378.864 75.4345 380.769 77.515C382.674 79.5955 384.468 81.565 386.428 82.2723C388.388 82.9797 392.663 86.253 394.568 88.9438C396.472 91.6207 397.757 93.9369 398.344 92.6193C398.931 91.3155 400.515 91.8287 397.979 89.235C395.443 86.6552 395.044 85.9617 394.8 85.6566C394.557 85.3515 391.71 84.3667 394.479 84.3667C397.248 84.3667 396.949 84.7689 398.687 84.7689C400.426 84.7689 401.057 85.6705 403.283 84.7689C405.509 83.8674 408.001 83.4235 409.097 82.4665C410.194 81.4956 415 78.5552 415 78.5552L394.634 79.1239C394.634 79.1239 386.926 78.2917 384.401 77.6398C381.876 76.9879 381.046 77.1959 380.06 75.5315C379.086 73.8672 379.241 74.3665 378.443 73.1737C377.646 71.9809 378.488 71.0377 376.383 70.6355C374.279 70.2332 374.468 71.329 372.186 69.9836C369.916 68.6382 368.288 69.0404 366.859 67.4454C365.431 65.8504 364.124 65.5591 363.404 63.326C362.695 61.093 360.226 57.7503 359.871 58.0277L359.882 58Z" fill="#EEF8FE"/>
<path d="M194.034 55.8359C194.034 55.8359 203.981 49.6328 212.538 50.0172C221.096 50.4015 224.098 51.5149 228.478 54.0598C232.869 56.6047 233.082 55.4648 234.684 57.4927C236.286 59.5207 247.196 56.8565 251.486 59.6399C255.765 62.4234 262.273 62.7415 265.712 66.4793C269.151 70.2171 277.003 75.8768 281.248 75.5985C285.505 75.3201 296.258 86.3214 297.86 87.183C299.462 88.0313 286.871 87.0902 283.096 82.7162C279.322 78.3422 283.096 78.6338 278.605 77.3083C274.113 75.9829 273.956 77.971 270.26 75.8901C266.563 73.7958 269.296 74.9357 265.443 72.192C261.59 69.4351 257.815 67.818 254.365 66.3998C250.915 64.9816 248.753 63.6428 248.988 65.1671C249.223 66.6914 249.548 66.9697 252.516 67.4469C255.485 67.9241 258.296 68.5868 259.495 70.005C260.694 71.4233 258.756 71.2377 263.337 74.3791C267.918 77.5072 272.657 78.2759 275.782 80.3569C278.907 82.4511 277.944 84.3465 272.41 81.7751C266.877 79.217 266.227 79.8797 264.222 77.9711C262.217 76.0756 262.699 75.9829 261.254 74.7369C259.809 73.5043 257.647 72.2716 256.683 71.7016C255.72 71.1317 255.966 70.3762 252.83 70.1774C249.705 69.9918 247.117 69.793 245.997 69.793C244.877 69.793 244.799 70.2171 242.715 68.7193C240.632 67.2216 238.324 64.0007 237.876 64.9418C237.417 65.8961 238.302 70.1641 240.228 71.2112C242.155 72.2583 245.359 73.0139 247.05 73.9682C248.73 74.9225 252.584 73.3982 256.28 76.8179C259.977 80.2376 267.672 89.5423 272.164 90.4966C276.656 91.4509 278.022 93.6247 276.656 93.9163C275.289 94.2079 272.489 93.7307 270.472 92.5909C268.467 91.451 268.389 91.7426 265.342 88.7868C262.295 85.8443 260.425 82.5836 258.52 81.9474C256.616 81.3112 256.034 81.0991 253.144 80.052C250.254 79.0049 250.982 79.6676 247.61 77.9578C244.239 76.2479 243.04 75.3996 241.427 75.0153C239.825 74.6309 240.06 76.3407 236.935 72.5499C233.81 68.7459 226.988 59.5472 221.847 59.1628C216.717 58.7784 214.7 57.8108 211.452 57.6783C208.203 57.5458 194 55.8359 194 55.8359H194.034Z" fill="#EEF8FE"/>
<path d="M111 18.2545C111 18.2545 134.606 46.1516 143.013 49.947C151.42 53.7424 157.578 60.8126 159.605 62.3746C161.62 63.9503 168.324 72.0619 170.45 70.8835C172.577 69.7051 178.746 72.7196 170.45 67.2799C162.155 61.854 158.012 60.4153 157.055 56.4828C156.097 52.5504 155.251 52.1667 159.928 54.5234C164.604 56.8802 167.154 58.4559 171.419 62.1143C175.673 65.7727 176.842 68.1294 177.911 66.4304C178.98 64.7313 182.699 65.6494 176.53 61.5936C170.361 57.5378 167.711 58.1544 164.304 55.3182C160.896 52.4682 163.769 54.2768 159.727 50.4814C155.685 46.686 158.024 48.2617 152.278 45.7679C146.532 43.2879 137.969 35.1627 133.37 32.162C128.772 29.1475 129.807 28.0925 123.538 26.4482C117.258 24.804 118.249 16.4047 111.011 18.2682L111 18.2545Z" fill="#EEF8FE"/>
</g>
</svg>
