<svg width="472" height="258" viewBox="0 0 472 258" fill="none" xmlns="http://www.w3.org/2000/svg">
<mask id="mask0_14_277" style="mask-type:alpha" maskUnits="userSpaceOnUse" x="0" y="0" width="472" height="258">
<rect width="472" height="258" fill="#D9D9D9"/>
</mask>
<g mask="url(#mask0_14_277)">
<path d="M472.92 163.4C472.49 159.45 472.04 155.51 471.59 151.56C455.73 157.14 439.83 162.59 423.74 167.47C414.83 170.17 405.87 172.81 396.85 175.09C389.81 176.88 382.63 178.14 375.38 178.44C375.19 179.36 373.71 180.72 369.45 182.77C361.42 186.64 340.47 182.63 333.44 182.34C326.41 182.05 318.8 189.22 312.2 192.8C305.6 196.38 305.31 194.09 301.3 194.23C297.28 194.37 282.22 202.68 279.35 203.69C277.63 204.29 267.28 203.81 258.66 203.98C256.21 204.03 253.9 204.13 251.97 204.32C249.34 204.58 247.41 205.01 246.78 205.7C244.05 208.71 195.56 209.28 190.39 207.28C185.22 205.27 187.38 204.7 185.94 203.27C184.51 201.84 184.07 206.14 179.2 205.13C174.32 204.13 139.03 196.14 139.03 196.14C139.03 196.14 138.74 194.67 137.88 193.38C137.02 192.09 138.17 191.95 138.17 191.95L140.61 190.66C140.61 190.66 140.04 188.37 139.61 187.22C139.18 186.07 140.61 186.93 140.9 186.5C141.19 186.07 141.04 183.78 141.04 183.78L142.62 180.06C142.62 180.06 137.45 185.36 135.16 186.94C132.86 188.52 132 192.1 131 194.63C130 197.16 120.81 196.06 119.47 194.63C118.63 193.73 119.06 192.54 119.23 191.84C117.37 190.54 115.98 188.22 114.95 186.28C110.51 177.91 106.37 170.16 102.09 161.71C98.37 154.36 94.72 146.58 94.21 138.27C90.85 137.73 87.49 137.2 84.14 136.66C76.08 135.37 68.01 134.09 59.92 132.88C60.73 133.54 57.94 135.21 57.6 135.07C57.24 134.93 53.8 134.07 53.08 133.42C52.36 132.78 53.08 134.71 53.08 134.71C53.08 134.71 51.79 134.85 51.36 135.14C50.93 135.43 50.5 137.07 50.5 137.07C50.5 137.07 50.07 138.5 49.5 140.38C48.81 139.18 48.06 138.15 48.06 138.15C48.06 138.15 47.06 137.72 46.63 137C46.2 136.28 46.41 136 46.41 135.21C46.41 134.42 50.71 134.35 51.36 133.28C52.01 132.21 51 132.28 51 132.28C51 132.28 50.76 131.93 50.55 131.52C34.09 129.19 17.57 127.27 0.990002 126.3L1.14 130.92L-7 265L477 271C477 157.177 471.59 275.5 472.92 163.4ZM463.84 156.01C463.76 156.22 463.7 156.34 463.68 156.34C463.64 156.34 463.71 156.22 463.84 156.01ZM46.68 149.04C46.68 149.04 46.71 148.92 46.84 148.71C46.76 148.92 46.7 149.04 46.68 149.04Z" fill="#3B551C"/>
<path d="M100.276 92C100.276 92 102.966 102.4 103.966 103.15C104.966 103.9 102.126 103.37 102.126 103.37C102.126 103.37 107.426 110.64 107.536 112.53C105.016 113.01 103.206 112.8 103.206 112.8C103.206 112.8 105.196 115.71 110.346 119.75C108.826 120.23 105.316 119.48 105.316 119.48C105.316 119.48 105.066 120.42 106.206 121.23C107.346 122.04 111.786 125.71 112.266 126.93C110.996 127.38 109.196 126.45 109.016 127.13C108.836 127.82 114.506 131.74 115.386 133.67C113.106 134.1 106.866 130.32 105.986 131.12C105.106 131.93 110.286 135.4 112.966 136.7C115.646 137.99 120.916 141.67 121.306 142.28C121.706 142.89 115.506 141.55 113.186 140.5C112.576 142.08 116.566 144.5 116.566 144.5C116.566 144.5 114.416 144.9 108.666 142.88C107.966 144.5 113.406 147.24 113.406 147.24C113.406 147.24 118.366 149.7 119.206 151.6C116.706 151.72 114.506 152.21 114.506 152.21C114.506 152.21 115.956 155.12 120.736 157.42C125.526 159.72 129.866 164.77 130.266 166.03C123.156 164.33 119.156 164.78 119.156 164.78C119.156 164.78 120.546 167.22 125.086 168.92C125.516 169.08 125.926 169.28 126.326 169.52C127.246 170.07 127.926 170.56 128.426 170.98C129.086 171.53 128.656 172.54 127.766 172.53C125.536 172.5 121.846 172.37 118.766 171.93C118.766 171.93 122.016 174.64 126.096 175.69C130.176 176.74 135.496 179.41 136.716 182.68C131.756 180.86 124.866 179.81 124.866 179.81C124.866 179.81 133.996 183.65 135.006 185.83C129.606 185.47 126.096 186.44 126.096 186.44C126.096 186.44 138.606 191.49 139.176 195.41C130.656 191.65 127.716 192.7 127.716 192.7C127.716 192.7 141.196 198.36 142.376 200.98C133.556 200.13 130.436 200.54 130.436 200.54C130.436 200.54 133.336 203.61 138.996 205.11C142.836 206.12 144.416 208.25 145.036 209.51C145.276 209.99 144.886 210.54 144.306 210.53C142.766 210.49 139.626 210.26 135.006 209.19C137.046 211.07 137.026 212.83 136.846 213.67C136.776 214 136.496 214.25 136.136 214.32C135.076 214.52 132.556 214.8 129.376 213.89C129.376 213.89 136.326 220.02 136.986 222.68C132.596 223.16 125.436 222.36 125.436 222.36C125.436 222.36 126.216 225.66 124.686 227.41C120.296 227.41 117.266 224.5 116.166 220.91C115.066 217.32 112.366 218.93 112.216 220.2C112.066 221.47 112.446 222.25 111.686 223.03C110.926 223.81 108.586 221.41 108.696 219.96C107.526 222.11 106.546 223.96 104.486 224.59C104.606 229.01 104.666 233.81 104.666 233.81H98.9262V222.54C98.9262 222.54 95.0062 228.02 92.0662 228.99C89.1262 229.96 92.8563 221.39 92.8563 221.39C92.8563 221.39 82.5863 228.14 76.3963 227.05C77.7563 223.45 81.3563 220.14 81.3563 220.14C81.3563 220.14 75.7363 221.88 72.6663 221.76C69.5963 221.64 79.2963 215.86 79.2963 215.86C79.2963 215.86 77.9363 214.16 69.5463 217.92C61.1563 221.68 72.7463 212.18 72.7463 212.18C72.7463 212.18 70.5063 211.29 67.5263 212.06C64.5363 212.83 58.3463 214.93 59.0563 213.39C59.7363 211.89 62.9263 207.86 71.4763 206.76C71.9463 206.7 72.4063 206.61 72.8463 206.46C77.1663 205.01 75.6563 203.81 75.6563 203.81C75.6563 203.81 71.0463 203.81 69.0263 205.1C67.0063 206.39 67.1863 204.7 68.7163 202.84C70.2563 200.98 60.2863 203.77 60.2863 203.77C60.2863 203.77 65.0263 196.09 82.5463 191.89C84.5263 191.32 81.7563 188.82 77.4563 191.16C73.1563 193.5 74.5163 190.11 78.1163 188.13C77.7663 186.35 70.6963 189.06 69.1163 190.11C67.5363 191.16 62.9663 190.11 62.9663 190.11C62.9663 190.11 70.6063 181.42 79.3863 180.7C79.2963 179.49 76.9763 179.61 76.9763 179.61C76.9763 179.61 76.4963 177.91 83.7363 175.29C90.9763 172.66 80.8863 172.79 78.1163 174.16C75.3463 175.53 73.6863 174.12 73.6863 174.12C73.6863 174.12 77.2463 170.85 80.8863 170.44C78.4863 169.47 73.3263 171.29 71.6163 171.95C71.2063 172.11 70.7763 172.22 70.3363 172.27C69.2663 172.4 67.3663 172.58 67.1463 172.17C66.8363 171.6 75.6163 165.02 83.3863 161.67C81.9863 160.88 79.4363 161.55 79.4363 161.55C79.4363 161.55 81.1563 158.69 90.3063 155.48C91.1663 155.18 91.9762 154.74 92.6462 154.15C95.1062 152.01 89.5563 153.42 87.5663 153.96C87.1063 154.09 86.6263 154.13 86.1463 154.1L84.2063 153.95C84.2063 153.95 86.2663 153.67 87.1063 151.61C83.1063 152.38 80.5663 151.49 80.5663 151.49C80.5663 151.49 91.1463 148.34 92.5563 145.51C93.9563 142.68 82.3663 146.8 79.0763 146.08C82.2763 142.32 92.7263 138.04 94.3563 137.52C95.9763 136.99 90.7563 136.99 90.7563 136.99C90.7563 136.99 92.2463 135.05 95.3263 133.07C94.1863 131.82 90.4063 134.24 90.4063 134.24C90.4063 134.24 89.9662 133.59 91.0662 132.46C92.1662 131.33 88.2163 134.44 84.5663 133.75C80.9163 133.06 93.5262 129.43 96.1162 124.82C98.7062 120.21 92.6463 124.98 89.7463 123.97C90.6063 122.14 95.5463 120.54 97.3463 117.22C99.1463 113.91 93.8763 119.36 90.9763 118.71C88.0763 118.06 96.5562 113.94 97.4262 110.79C98.3062 107.64 95.5363 112.16 93.9163 111.52C92.2963 110.87 97.7762 107.88 98.6162 104.25C99.4462 100.61 98.8762 94.65 100.286 92H100.276Z" fill="#3B551C"/>
<path d="M27.4681 12C27.4681 12 28.7981 21.48 30.5381 22.81C32.2781 24.14 28.7381 23.74 28.7381 23.74C28.7381 23.74 30.7381 26.88 32.3381 27.81C33.9381 28.74 30.5981 28.54 30.5981 28.54C30.5981 28.54 33.8681 30.14 35.5381 30.41C37.2081 30.68 34.0681 32.95 31.1281 31.68C28.1881 30.41 34.3281 34.35 34.3281 34.35C34.3281 34.35 33.1281 35.35 31.2581 34.35C29.3881 33.35 37.9981 40.76 39.9381 41.23C41.8781 41.7 37.0681 41.7 37.0681 41.7L37.5381 42.37C37.5381 42.37 35.5381 42.84 34.3381 42.1C33.1381 41.37 40.9481 46.51 43.1481 46.44C45.3481 46.37 41.0081 48.31 38.4081 47.31C38.7681 48.22 39.5581 48.76 39.5581 48.76C39.5581 48.76 37.1081 49.51 34.9481 48.41C32.7981 47.31 44.7081 55.27 46.0581 55.27C47.4081 55.27 43.9581 56.87 41.8981 56.37C39.8381 55.87 42.1481 57.82 42.1481 57.82C42.1481 57.82 38.6981 58.17 35.3881 56.62C39.0381 62.73 45.548 65.98 45.548 65.98C45.548 65.98 45.3481 66.93 43.1981 66.78C43.4481 68.83 55.368 72.29 55.368 72.29C55.368 72.29 56.0181 75.49 47.2081 73.64C48.0081 75.64 50.2781 76.18 50.2781 76.18C50.2781 76.18 48.5381 77.68 45.3081 76.58C45.4081 77.35 46.1781 78.12 46.1781 78.12C46.1781 78.12 44.038 79.32 40.368 77.69C45.908 83.33 50.3781 85.13 52.9181 84.97C55.4581 84.8 50.818 86.47 49.548 85.97C48.278 85.47 56.9881 90.98 62.6281 91.84C68.2681 92.71 54.8881 92.81 54.8881 92.81C54.8881 92.81 56.0481 93.88 56.1481 94.28C56.2481 94.68 53.0181 94.71 52.4981 94.28C51.9681 93.85 53.2281 95.73 53.2281 95.73C53.2281 95.73 49.398 95.88 47.118 94.38C44.838 92.88 66.0081 105.09 69.4481 105.06C72.8881 105.03 61.0081 107.57 58.4581 106.85C59.3581 108.8 63.2181 108.15 63.4881 109.13C63.7681 110.11 58.4281 109.88 58.3081 109.86C58.1781 109.84 61.4381 111.29 61.3581 112.01C61.2781 112.74 52.4681 112.06 50.048 112.01C47.618 111.96 58.9881 122.77 66.5981 125.13C74.2081 127.48 77.5781 129.89 81.9981 131.64C86.4181 133.39 77.3581 133.09 77.1081 133.09C76.8581 133.09 76.6581 135.24 74.5581 135.49C72.4581 135.74 66.3481 131.79 64.4981 131.54C62.6481 131.29 66.698 133.59 67.798 134.49C68.898 135.39 70.7481 137.19 67.3981 136.84C64.0481 136.49 60.5881 134.29 59.0381 134.49C57.4881 134.69 61.5381 136.08 60.6881 136.89C59.8381 137.7 54.4281 135.14 52.4781 135.64C50.5281 136.14 55.7781 138.39 56.2281 138.59C56.6781 138.79 68.5481 145.45 80.3581 148.25C92.1681 151.05 86.1681 151.65 81.4581 152.66C81.8281 156.1 79.5881 156.1 79.5881 156.1C79.5881 156.1 75.0481 157.2 68.0381 153.5C61.0281 149.8 63.5281 154.6 63.5281 154.6C63.5281 154.6 70.9881 159.32 77.3481 160.77C83.7081 162.22 86.2081 163.97 84.9081 166.18C83.6081 168.38 74.798 165.13 74.798 165.13C74.798 165.13 77.5481 167.68 77.4981 168.33C77.4481 168.98 68.4381 167.23 67.0381 165.78C68.5381 169.63 66.8381 169.63 66.8381 169.63C66.8381 169.63 64.9781 170.92 53.7281 165.35C52.9881 164.99 52.1581 164.84 51.3481 165C47.6481 165.72 54.9681 170.73 54.9681 170.73C54.9681 170.73 55.818 172.03 52.368 171.78C56.368 174.18 54.368 175.73 54.368 175.73C54.368 175.73 51.8181 176.38 46.4081 172.48C47.1081 175.38 46.0081 175.98 46.0081 175.98C46.0081 175.98 43.5581 176.93 36.0981 171.52C36.4981 174.32 34.4481 174.72 34.4481 174.72C34.4481 174.72 32.148 175.22 31.298 173.47C32.048 180.98 31.1481 188.89 31.1481 188.89L24.5881 188.54L24.8381 172.52C24.8381 172.52 23.0481 177.44 21.5481 175.64C20.0481 173.84 21.5481 170.23 21.5481 170.23C21.5481 170.23 13.3081 178.81 11.0381 176.44C8.76805 174.07 12.9381 171.3 12.9381 171.3C12.9381 171.3 8.62806 170.5 5.85806 173.17C3.08806 175.84 0.818054 173.44 1.54805 171.43C2.27805 169.43 -3.92195 175.17 -5.93195 173.3C-7.93195 171.43 2.14805 166.59 2.54805 164.39C2.94805 162.19 1.81805 162.32 -0.791946 163.89C-2.94195 165.19 -5.73195 169.12 -8.18195 169.01C-9.06195 168.97 -9.64195 168.05 -9.37195 167.21C-9.10195 166.36 -8.80195 165.7 -8.80195 165.7C-8.80195 165.7 -12.2019 166.07 -13.5119 167.3C-14.8119 168.53 -16.6119 167.07 -13.9419 164.2C-11.2719 161.33 -23.7919 168.77 -24.7919 168.04C-25.7919 167.31 -27.4319 167.47 -26.5919 165.77C-25.7619 164.07 -30.5619 166.64 -30.5619 165.84C-30.5619 165.04 -26.2219 163.27 -22.0519 160.37C-17.8819 157.47 -28.2619 161.84 -28.5619 161.67C-28.8619 161.5 -31.9019 161.7 -30.8619 159.57C-29.8319 157.43 -34.7019 160.87 -35.8719 158.67C-37.0419 156.47 -29.9019 155.13 -26.3619 154.13C-22.8219 153.13 -5.93195 144.79 -2.00195 140.38C1.93805 135.97 -5.67195 141 -5.67195 141C-5.67195 141 -6.97195 140.85 -6.22195 139.7C-5.47195 138.55 -11.6319 142.5 -12.8319 142.1C-14.0319 141.7 -13.9319 140 -13.8319 139.7C-13.7319 139.4 -19.7919 143.81 -21.2919 142.1C-22.7919 140.4 -21.4419 139.05 -21.4419 139.05C-21.4419 139.05 -26.2519 140.5 -26.9019 139.05C-27.5519 137.6 -13.1819 135.45 -10.6819 132.04C-8.18195 128.64 -11.6319 132.04 -12.6819 131.24C-13.7319 130.44 -9.48195 129.94 -6.42195 127.64C-3.37195 125.34 7.29805 119.03 8.69805 114.97C10.0981 110.92 2.78805 118.57 0.938053 116.92C-0.911947 115.27 -1.86195 117.72 -3.06195 116.52C-4.26195 115.32 4.04805 112.57 4.44805 109.61C4.84805 106.66 -4.16195 115.07 -6.61195 113.21C-9.06195 111.36 -5.46195 111.26 -5.46195 111.26C-5.46195 111.26 -10.3019 113.61 -11.3319 112.21C-12.3619 110.81 -9.56195 111.48 -8.53195 109.57C-7.50195 107.67 -15.8419 112.77 -16.9719 110.57C-18.1019 108.37 4.30805 102.34 7.30805 97.74C10.3081 93.14 3.85805 99.59 0.948051 97.59C-1.95195 95.59 11.1081 92.03 13.3181 88.13C14.9781 85.19 11.8381 88.04 9.26805 88.69C8.12805 88.98 7.36805 87.51 8.24805 86.74C9.93805 85.27 12.8181 84.33 12.8181 84.33C12.8181 84.33 6.05805 87.48 3.45805 86.38C0.858054 85.28 3.50805 85.03 3.50805 85.03C3.50805 85.03 1.25806 85.63 0.358055 85.13C-0.541945 84.63 2.20805 83.68 2.55805 83.33C2.90805 82.98 -1.90195 84.73 -4.15195 82.58C-6.40195 80.43 5.55805 82.08 10.2181 77.47C14.8781 72.86 7.21805 79.82 5.90805 77.97C5.35805 77.77 5.75805 76.82 5.75805 76.82C5.75805 76.82 0.998052 80.07 0.398052 77.52C-0.201948 74.97 15.4181 71.41 18.2681 64.3C14.8681 66.65 13.5081 65.65 13.5081 65.65C13.5081 65.65 13.2581 65.02 13.3781 64.4C13.5081 63.77 11.6281 65.65 10.0281 65.1C8.42805 64.55 9.59805 63.35 9.74805 63.1C9.89805 62.85 7.59805 63.9 6.74805 62.32C5.89805 60.74 8.94805 60.21 13.0181 59.01C17.0881 57.81 20.1581 53.2 20.1581 53.2C20.1581 53.2 14.4881 56.54 13.4481 55.14C12.1481 54.61 12.8781 53.54 12.8781 53.54C12.8781 53.54 8.36805 54.98 7.73805 53.54C7.10805 52.1 17.5981 49.99 19.4481 46.33C19.4481 46.33 14.6181 47.73 13.2381 46.15C11.8581 44.57 21.1481 42.47 22.8481 39.27C24.5481 36.07 16.5881 41.12 14.7881 38.87C12.9881 36.62 22.1481 36.97 24.2481 31.21C20.8981 33.11 18.9381 31.66 18.9381 31.66C18.9381 31.66 23.7981 29.41 25.2481 26.1C23.8781 26.5 23.5081 25.3 23.5081 25.3C23.5081 25.3 27.1281 23.69 27.4081 12.02L27.4681 12Z" fill="#3B551C"/>
<path d="M65.6087 63.01C65.6087 63.01 66.6287 70.27 67.9587 71.3C69.2887 72.33 66.5787 72.02 66.5787 72.02C66.5787 72.02 68.1087 74.42 69.3387 75.14C70.5687 75.86 68.0087 75.7 68.0087 75.7C68.0087 75.7 70.5187 76.93 71.7987 77.13C73.0787 77.33 70.6687 79.07 68.4187 78.1C66.1687 77.13 70.8787 80.15 70.8787 80.15C70.8787 80.15 69.9587 80.92 68.5287 80.15C67.0987 79.38 73.6987 85.06 75.1787 85.42C76.6587 85.78 72.9787 85.78 72.9787 85.78L73.3387 86.29C73.3387 86.29 71.8087 86.65 70.8787 86.09C69.9587 85.53 75.9487 89.47 77.6287 89.42C79.3187 89.37 75.9887 90.85 73.9987 90.09C74.2787 90.79 74.8787 91.2 74.8787 91.2C74.8787 91.2 72.9987 91.78 71.3487 90.93C69.6987 90.09 78.8287 96.19 79.8687 96.19C80.9087 96.19 78.2587 97.42 76.6887 97.03C75.1187 96.65 76.8787 98.14 76.8787 98.14C76.8787 98.14 74.2287 98.41 71.6987 97.22C74.4987 101.9 79.4887 104.4 79.4887 104.4C79.4887 104.4 79.3387 105.13 77.6887 105.01C77.8787 106.58 87.0087 109.23 87.0087 109.23C87.0087 109.23 87.5087 111.69 80.7587 110.27C81.3687 111.8 83.1087 112.21 83.1087 112.21C83.1087 112.21 81.7787 113.36 79.2987 112.52C79.3787 113.11 79.9687 113.7 79.9687 113.7C79.9687 113.7 78.3287 114.62 75.5187 113.37C79.7687 117.69 83.1887 119.07 85.1387 118.95C87.0787 118.82 83.5287 120.1 82.5587 119.72C81.5887 119.34 88.2587 123.56 92.5887 124.22C96.9087 124.89 86.6587 124.96 86.6587 124.96C86.6587 124.96 87.5487 125.78 87.6287 126.09C87.7087 126.4 85.2287 126.42 84.8287 126.09C84.4287 125.76 85.3887 127.2 85.3887 127.2C85.3887 127.2 82.4487 127.32 80.7087 126.16C78.9587 125.01 95.1887 134.37 97.8187 134.35C100.449 134.32 91.3487 136.27 89.3987 135.72C90.0887 137.22 93.0487 136.72 93.2587 137.47C93.4687 138.22 89.3787 138.05 89.2887 138.03C89.1887 138.01 91.6887 139.12 91.6287 139.68C91.5687 140.24 84.8187 139.72 82.9587 139.68C81.0987 139.64 89.8087 147.93 95.6387 149.73C101.469 151.53 104.049 153.38 107.439 154.72C110.829 156.06 103.889 155.83 103.689 155.83C103.489 155.83 103.339 157.48 101.729 157.67C100.119 157.86 95.4387 154.83 94.0187 154.64C92.5987 154.45 95.7087 156.21 96.5487 156.9C97.3887 157.59 98.8087 158.97 96.2387 158.7C93.6687 158.43 91.0187 156.74 89.8287 156.9C88.6387 157.05 91.7487 158.12 91.0987 158.74C90.4487 159.36 86.2987 157.4 84.8087 157.78C83.3087 158.16 87.3387 159.89 87.6887 160.04C88.0387 160.19 97.1287 165.3 106.189 167.45C115.249 169.6 110.639 170.06 107.029 170.83C107.309 173.46 105.599 173.46 105.599 173.46C105.599 173.46 102.119 174.3 96.7487 171.46C91.3787 168.62 93.2987 172.3 93.2987 172.3C93.2987 172.3 99.0187 175.92 103.889 177.03C108.759 178.14 110.679 179.49 109.679 181.17C108.679 182.86 101.929 180.36 101.929 180.36C101.929 180.36 104.039 182.32 103.999 182.82C103.959 183.32 97.0487 181.98 95.9787 180.86C97.1287 183.81 95.8287 183.81 95.8287 183.81C95.8287 183.81 94.4087 184.8 85.7787 180.53C85.2187 180.25 84.5687 180.14 83.9587 180.26C81.1287 180.81 86.7387 184.65 86.7387 184.65C86.7387 184.65 87.3887 185.65 84.7387 185.46C87.8087 187.3 86.2687 188.49 86.2687 188.49C86.2687 188.49 84.3087 188.99 80.1687 186C80.7087 188.23 79.8587 188.69 79.8587 188.69C79.8587 188.69 77.9787 189.42 72.2587 185.27C72.5687 187.42 70.9887 187.73 70.9887 187.73C70.9887 187.73 69.2187 188.11 68.5687 186.77C69.1487 192.53 68.4487 198.59 68.4487 198.59L63.4187 198.32L63.6087 186.04C63.6087 186.04 62.2387 189.81 61.0887 188.43C59.9387 187.05 61.0887 184.29 61.0887 184.29C61.0887 184.29 54.7687 190.86 53.0287 189.05C51.2887 187.23 54.4887 185.11 54.4887 185.11C54.4887 185.11 51.1887 184.5 49.0687 186.54C46.9487 188.59 45.2087 186.74 45.7687 185.21C46.3287 183.68 41.5687 188.08 40.0387 186.64C38.5087 185.21 46.2287 181.5 46.5387 179.81C46.8487 178.12 45.9787 178.22 43.9787 179.43C42.3287 180.42 40.1887 183.44 38.3187 183.35C37.6387 183.32 37.1987 182.61 37.4087 181.97C37.6187 181.32 37.8487 180.81 37.8487 180.81C37.8487 180.81 35.2387 181.09 34.2387 182.04C33.2387 182.99 31.8587 181.86 33.9087 179.66C35.9587 177.46 26.3587 183.16 25.5987 182.6C24.8287 182.04 23.5787 182.17 24.2187 180.86C24.8587 179.56 21.1787 181.53 21.1787 180.91C21.1787 180.29 24.5087 178.94 27.6987 176.71C30.8987 174.48 22.9387 177.84 22.7087 177.71C22.4787 177.58 20.1487 177.74 20.9387 176.1C21.7287 174.46 17.9987 177.1 17.0987 175.41C16.1987 173.72 21.6787 172.7 24.3887 171.93C27.0987 171.16 40.0487 164.77 43.0587 161.39C46.0787 158.01 40.2487 161.86 40.2487 161.86C40.2487 161.86 39.2487 161.74 39.8287 160.86C40.4087 159.98 35.6887 163.01 34.7587 162.7C33.8387 162.39 33.9187 161.09 33.9887 160.86C34.0687 160.63 29.4187 164.01 28.2687 162.7C27.1187 161.4 28.1487 160.36 28.1487 160.36C28.1487 160.36 24.4687 161.47 23.9687 160.36C23.4687 159.25 34.4787 157.6 36.3987 154.99C38.3187 152.38 35.6687 154.99 34.8687 154.38C34.0587 153.77 37.3287 153.38 39.6687 151.62C42.0087 149.85 50.1787 145.02 51.2587 141.91C52.3287 138.8 46.7287 144.67 45.3087 143.41C43.8887 142.14 43.1587 144.02 42.2387 143.1C41.3187 142.18 47.6887 140.07 47.9987 137.8C48.3087 135.54 41.3987 141.98 39.5187 140.56C37.6387 139.14 40.3987 139.06 40.3987 139.06C40.3987 139.06 36.6887 140.86 35.8987 139.79C35.1087 138.72 37.2587 139.23 38.0487 137.77C38.8387 136.31 32.4487 140.23 31.5787 138.54C30.7087 136.85 47.8887 132.23 50.1887 128.7C52.4887 125.17 47.5387 130.12 45.3187 128.58C43.0887 127.05 53.1087 124.32 54.7987 121.33C56.0687 119.08 53.6587 121.26 51.6887 121.76C50.8187 121.98 50.2287 120.85 50.9087 120.26C52.2087 119.13 54.4087 118.41 54.4087 118.41C54.4087 118.41 49.2287 120.83 47.2287 119.98C45.2287 119.14 47.2687 118.94 47.2687 118.94C47.2687 118.94 45.5387 119.4 44.8487 119.02C44.1587 118.64 46.2687 117.91 46.5387 117.64C46.8087 117.37 43.1187 118.71 41.3987 117.06C39.6687 115.41 48.8387 116.68 52.4087 113.15C55.9787 109.62 50.1087 114.95 49.1087 113.53C48.6887 113.38 48.9887 112.65 48.9887 112.65C48.9887 112.65 45.3387 115.14 44.8787 113.19C44.4187 111.23 56.3887 108.51 58.5787 103.06C55.9687 104.86 54.9287 104.1 54.9287 104.1C54.9287 104.1 54.7387 103.62 54.8287 103.14C54.9287 102.66 53.4887 104.1 52.2587 103.68C51.0287 103.26 51.9287 102.34 52.0487 102.15C52.1687 101.96 50.3987 102.76 49.7487 101.56C49.0987 100.35 51.4387 99.94 54.5587 99.02C57.6787 98.1 60.0287 94.57 60.0287 94.57C60.0287 94.57 55.6787 97.13 54.8887 96.05C53.8887 95.64 54.4587 94.82 54.4587 94.82C54.4587 94.82 51.0087 95.92 50.5187 94.82C50.0287 93.72 58.0787 92.1 59.4987 89.29C59.4987 89.29 55.7987 90.36 54.7387 89.16C53.6787 87.95 60.7987 86.34 62.1087 83.88C63.4087 81.42 57.3087 85.3 55.9287 83.57C54.5487 81.84 61.5687 82.11 63.1787 77.7C60.6087 79.16 59.1087 78.05 59.1087 78.05C59.1087 78.05 62.8287 76.32 63.9387 73.79C62.8887 74.1 62.6087 73.18 62.6087 73.18C62.6087 73.18 65.3887 71.95 65.5987 63L65.6087 63.01Z" fill="#3B551C"/>
<path d="M384.226 81.0089C384.226 81.0089 385.133 87.4877 386.316 88.4069C387.499 89.3261 385.089 89.0494 385.089 89.0494C385.089 89.0494 386.449 91.1912 387.543 91.8337C388.637 92.4762 386.36 92.3334 386.36 92.3334C386.36 92.3334 388.592 93.4311 389.731 93.6096C390.869 93.788 388.726 95.3408 386.725 94.4752C384.724 93.6096 388.913 96.3046 388.913 96.3046C388.913 96.3046 388.094 96.9917 386.823 96.3046C385.551 95.6175 391.42 100.686 392.736 101.008C394.053 101.329 390.78 101.329 390.78 101.329L391.1 101.784C391.1 101.784 389.74 102.105 388.913 101.605C388.094 101.106 393.421 104.622 394.915 104.577C396.409 104.533 393.457 105.853 391.687 105.175C391.936 105.8 392.47 106.166 392.47 106.166C392.47 106.166 390.798 106.683 389.331 105.925C387.863 105.175 395.982 110.619 396.907 110.619C397.832 110.619 395.475 111.716 394.079 111.368C392.683 111.029 394.248 112.359 394.248 112.359C394.248 112.359 391.892 112.6 389.642 111.538C392.132 115.714 396.569 117.945 396.569 117.945C396.569 117.945 396.436 118.597 394.969 118.49C395.137 119.891 403.256 122.255 403.256 122.255C403.256 122.255 403.701 124.451 397.699 123.184C398.241 124.549 399.788 124.915 399.788 124.915C399.788 124.915 398.606 125.941 396.4 125.191C396.471 125.718 396.996 126.244 396.996 126.244C396.996 126.244 395.538 127.065 393.039 125.95C396.818 129.805 399.859 131.037 401.594 130.93C403.319 130.814 400.162 131.956 399.299 131.617C398.437 131.278 404.368 135.044 408.219 135.632C412.06 136.23 402.945 136.293 402.945 136.293C402.945 136.293 403.737 137.025 403.808 137.301C403.879 137.578 401.674 137.596 401.318 137.301C400.962 137.007 401.816 138.292 401.816 138.292C401.816 138.292 399.201 138.399 397.654 137.364C396.107 136.329 410.531 144.69 412.869 144.672C415.208 144.646 407.116 146.386 405.382 145.895C405.995 147.234 408.628 146.787 408.814 147.457C409.001 148.126 405.364 147.974 405.284 147.956C405.195 147.939 407.418 148.929 407.365 149.429C407.312 149.929 401.309 149.465 399.655 149.429C398.001 149.393 405.746 156.791 410.931 158.398C416.115 160.004 418.41 161.655 421.424 162.851C424.439 164.046 418.267 163.841 418.089 163.841C417.912 163.841 417.778 165.314 416.346 165.483C414.915 165.653 410.753 162.949 409.49 162.779C408.227 162.61 410.993 164.18 411.74 164.796C412.487 165.412 413.75 166.643 411.464 166.402C409.179 166.161 406.822 164.653 405.764 164.796C404.706 164.93 407.472 165.885 406.894 166.438C406.316 166.991 402.625 165.242 401.3 165.581C399.966 165.92 403.55 167.464 403.861 167.598C404.172 167.732 412.256 172.292 420.313 174.211C428.369 176.129 424.27 176.54 421.06 177.227C421.309 179.574 419.788 179.574 419.788 179.574C419.788 179.574 416.693 180.324 411.918 177.789C407.143 175.255 408.85 178.539 408.85 178.539C408.85 178.539 413.937 181.769 418.267 182.76C422.598 183.75 424.305 184.955 423.416 186.454C422.527 187.963 416.524 185.732 416.524 185.732C416.524 185.732 418.401 187.481 418.365 187.927C418.33 188.373 412.185 187.177 411.233 186.178C412.256 188.81 411.1 188.81 411.1 188.81C411.1 188.81 409.837 189.694 402.163 185.883C401.665 185.633 401.087 185.535 400.544 185.642C398.028 186.133 403.016 189.56 403.016 189.56C403.016 189.56 403.594 190.452 401.238 190.283C403.968 191.925 402.598 192.987 402.598 192.987C402.598 192.987 400.855 193.433 397.174 190.765C397.654 192.755 396.898 193.165 396.898 193.165C396.898 193.165 395.226 193.817 390.14 190.113C390.415 192.032 389.01 192.309 389.01 192.309C389.01 192.309 387.436 192.648 386.858 191.452C387.374 196.592 386.752 202 386.752 202L382.279 201.759L382.448 190.8C382.448 190.8 381.229 194.165 380.207 192.933C379.184 191.702 380.207 189.239 380.207 189.239C380.207 189.239 374.586 195.102 373.039 193.487C371.492 191.862 374.337 189.971 374.337 189.971C374.337 189.971 371.403 189.426 369.518 191.247C367.632 193.076 366.085 191.425 366.583 190.06C367.081 188.694 362.848 192.621 361.488 191.336C360.127 190.06 366.992 186.749 367.268 185.241C367.543 183.733 366.77 183.822 364.991 184.902C363.524 185.785 361.621 188.48 359.958 188.4C359.353 188.373 358.962 187.74 359.149 187.168C359.336 186.588 359.54 186.133 359.54 186.133C359.54 186.133 357.219 186.383 356.33 187.231C355.441 188.079 354.213 187.07 356.036 185.107C357.859 183.144 349.322 188.23 348.647 187.731C347.962 187.231 346.85 187.347 347.419 186.178C347.988 185.018 344.716 186.776 344.716 186.222C344.716 185.669 347.677 184.464 350.514 182.474C353.36 180.484 346.281 183.483 346.077 183.367C345.872 183.251 343.8 183.394 344.503 181.93C345.205 180.466 341.888 182.822 341.088 181.314C340.287 179.806 345.161 178.896 347.571 178.209C349.98 177.522 361.496 171.819 364.173 168.803C366.859 165.787 361.674 169.222 361.674 169.222C361.674 169.222 360.785 169.115 361.301 168.33C361.817 167.545 357.619 170.249 356.792 169.972C355.974 169.695 356.045 168.535 356.107 168.33C356.179 168.125 352.044 171.141 351.021 169.972C349.998 168.812 350.914 167.884 350.914 167.884C350.914 167.884 347.642 168.874 347.197 167.884C346.752 166.893 356.543 165.421 358.251 163.092C359.958 160.762 357.601 163.092 356.89 162.547C356.17 162.003 359.078 161.655 361.159 160.084C363.239 158.505 370.505 154.194 371.465 151.419C372.417 148.644 367.437 153.882 366.174 152.758C364.911 151.624 364.262 153.302 363.444 152.481C362.626 151.66 368.29 149.777 368.566 147.751C368.842 145.734 362.697 151.481 361.025 150.214C359.353 148.947 361.808 148.876 361.808 148.876C361.808 148.876 358.509 150.482 357.806 149.527C357.103 148.572 359.015 149.027 359.718 147.724C360.42 146.422 354.738 149.92 353.964 148.412C353.191 146.903 368.468 142.781 370.514 139.63C372.559 136.48 368.157 140.898 366.183 139.523C364.2 138.158 373.11 135.722 374.613 133.053C375.743 131.046 373.599 132.991 371.848 133.437C371.074 133.634 370.549 132.625 371.154 132.099C372.31 131.09 374.266 130.448 374.266 130.448C374.266 130.448 369.66 132.607 367.881 131.849C366.103 131.099 367.917 130.921 367.917 130.921C367.917 130.921 366.379 131.331 365.765 130.992C365.151 130.653 367.028 130.001 367.268 129.761C367.508 129.52 364.227 130.715 362.697 129.243C361.159 127.77 369.313 128.904 372.488 125.754C375.662 122.604 370.442 127.36 369.553 126.093C369.18 125.959 369.447 125.307 369.447 125.307C369.447 125.307 366.201 127.53 365.792 125.789C365.383 124.04 376.027 121.613 377.975 116.749C375.654 118.356 374.729 117.677 374.729 117.677C374.729 117.677 374.56 117.249 374.64 116.821C374.729 116.392 373.448 117.677 372.354 117.303C371.261 116.928 372.061 116.107 372.168 115.937C372.274 115.768 370.7 116.482 370.122 115.411C369.544 114.331 371.625 113.965 374.4 113.144C377.174 112.323 379.264 109.173 379.264 109.173C379.264 109.173 375.396 111.457 374.693 110.494C373.804 110.128 374.311 109.396 374.311 109.396C374.311 109.396 371.243 110.378 370.807 109.396C370.371 108.414 377.53 106.969 378.793 104.461C378.793 104.461 375.502 105.416 374.56 104.345C373.617 103.274 379.949 101.829 381.114 99.6332C382.279 97.4379 376.845 100.9 375.618 99.3566C374.391 97.8128 380.633 98.0537 382.065 94.1182C379.78 95.4211 378.446 94.4306 378.446 94.4306C378.446 94.4306 381.754 92.8867 382.741 90.629C381.807 90.9056 381.558 90.0846 381.558 90.0846C381.558 90.0846 384.031 88.9869 384.217 81L384.226 81.0089Z" fill="#3B551C"/>
<path d="M410.609 61.01C410.609 61.01 411.629 68.27 412.959 69.3C414.289 70.33 411.579 70.02 411.579 70.02C411.579 70.02 413.109 72.42 414.339 73.14C415.569 73.86 413.009 73.7 413.009 73.7C413.009 73.7 415.519 74.93 416.799 75.13C418.079 75.33 415.669 77.07 413.419 76.1C411.169 75.13 415.879 78.15 415.879 78.15C415.879 78.15 414.959 78.92 413.529 78.15C412.099 77.38 418.699 83.06 420.179 83.42C421.659 83.78 417.979 83.78 417.979 83.78L418.339 84.29C418.339 84.29 416.809 84.65 415.879 84.09C414.959 83.53 420.949 87.47 422.629 87.42C424.319 87.37 420.989 88.85 418.999 88.09C419.279 88.79 419.879 89.2 419.879 89.2C419.879 89.2 417.999 89.78 416.349 88.93C414.699 88.09 423.829 94.19 424.869 94.19C425.909 94.19 423.259 95.42 421.689 95.03C420.119 94.65 421.879 96.14 421.879 96.14C421.879 96.14 419.229 96.41 416.699 95.22C419.499 99.9 424.489 102.4 424.489 102.4C424.489 102.4 424.339 103.13 422.689 103.01C422.879 104.58 432.009 107.23 432.009 107.23C432.009 107.23 432.509 109.69 425.759 108.27C426.369 109.8 428.109 110.21 428.109 110.21C428.109 110.21 426.779 111.36 424.299 110.52C424.379 111.11 424.969 111.7 424.969 111.7C424.969 111.7 423.329 112.62 420.519 111.37C424.769 115.69 428.189 117.07 430.139 116.95C432.079 116.82 428.529 118.1 427.559 117.72C426.589 117.34 433.259 121.56 437.589 122.22C441.909 122.89 431.659 122.96 431.659 122.96C431.659 122.96 432.549 123.78 432.629 124.09C432.709 124.4 430.229 124.42 429.829 124.09C429.429 123.76 430.389 125.2 430.389 125.2C430.389 125.2 427.449 125.32 425.709 124.16C423.959 123.01 440.189 132.37 442.819 132.35C445.449 132.32 436.349 134.27 434.399 133.72C435.089 135.22 438.049 134.72 438.259 135.47C438.469 136.22 434.379 136.05 434.289 136.03C434.189 136.01 436.689 137.12 436.629 137.68C436.569 138.24 429.819 137.72 427.959 137.68C426.099 137.64 434.809 145.93 440.639 147.73C446.469 149.53 449.049 151.38 452.439 152.72C455.829 154.06 448.889 153.83 448.689 153.83C448.489 153.83 448.339 155.48 446.729 155.67C445.119 155.86 440.439 152.83 439.019 152.64C437.599 152.45 440.709 154.21 441.549 154.9C442.389 155.59 443.809 156.97 441.239 156.7C438.669 156.43 436.019 154.74 434.829 154.9C433.639 155.05 436.749 156.12 436.099 156.74C435.449 157.36 431.299 155.4 429.809 155.78C428.309 156.16 432.339 157.89 432.689 158.04C433.039 158.19 442.129 163.3 451.189 165.45C460.249 167.6 455.639 168.06 452.029 168.83C452.309 171.46 450.599 171.46 450.599 171.46C450.599 171.46 447.119 172.3 441.749 169.46C436.379 166.62 438.299 170.3 438.299 170.3C438.299 170.3 444.019 173.92 448.889 175.03C453.759 176.14 455.679 177.49 454.679 179.17C453.679 180.86 446.929 178.36 446.929 178.36C446.929 178.36 449.039 180.32 448.999 180.82C448.959 181.32 442.049 179.98 440.979 178.86C442.129 181.81 440.829 181.81 440.829 181.81C440.829 181.81 439.409 182.8 430.779 178.53C430.219 178.25 429.569 178.14 428.959 178.26C426.129 178.81 431.739 182.65 431.739 182.65C431.739 182.65 432.389 183.65 429.739 183.46C432.809 185.3 431.269 186.49 431.269 186.49C431.269 186.49 429.309 186.99 425.169 184C425.709 186.23 424.859 186.69 424.859 186.69C424.859 186.69 422.979 187.42 417.259 183.27C417.569 185.42 415.989 185.73 415.989 185.73C415.989 185.73 414.219 186.11 413.569 184.77C414.149 190.53 413.449 196.59 413.449 196.59L408.419 196.32L408.609 184.04C408.609 184.04 407.239 187.81 406.089 186.43C404.939 185.05 406.089 182.29 406.089 182.29C406.089 182.29 399.769 188.86 398.029 187.05C396.289 185.23 399.489 183.11 399.489 183.11C399.489 183.11 396.189 182.5 394.069 184.54C391.949 186.59 390.209 184.74 390.769 183.21C391.329 181.68 386.569 186.08 385.039 184.64C383.509 183.21 391.229 179.5 391.539 177.81C391.849 176.12 390.979 176.22 388.979 177.43C387.329 178.42 385.189 181.44 383.319 181.35C382.639 181.32 382.199 180.61 382.409 179.97C382.619 179.32 382.849 178.81 382.849 178.81C382.849 178.81 380.239 179.09 379.239 180.04C378.239 180.99 376.859 179.86 378.909 177.66C380.959 175.46 371.359 181.16 370.599 180.6C369.829 180.04 368.579 180.17 369.219 178.86C369.859 177.56 366.179 179.53 366.179 178.91C366.179 178.29 369.509 176.94 372.699 174.71C375.899 172.48 367.939 175.84 367.709 175.71C367.479 175.58 365.149 175.74 365.939 174.1C366.729 172.46 362.999 175.1 362.099 173.41C361.199 171.72 366.679 170.7 369.389 169.93C372.099 169.16 385.049 162.77 388.059 159.39C391.069 156.01 385.249 159.86 385.249 159.86C385.249 159.86 384.249 159.74 384.829 158.86C385.409 157.98 380.689 161.01 379.759 160.7C378.839 160.39 378.919 159.09 378.989 158.86C379.069 158.63 374.419 162.01 373.269 160.7C372.119 159.4 373.149 158.36 373.149 158.36C373.149 158.36 369.469 159.47 368.969 158.36C368.469 157.25 379.479 155.6 381.399 152.99C383.319 150.38 380.669 152.99 379.869 152.38C379.069 151.77 382.329 151.38 384.669 149.62C387.009 147.85 395.179 143.02 396.259 139.91C397.329 136.8 391.729 142.67 390.309 141.41C388.889 140.14 388.159 142.02 387.239 141.1C386.319 140.18 392.689 138.07 392.999 135.8C393.309 133.54 386.399 139.98 384.519 138.56C382.639 137.14 385.399 137.06 385.399 137.06C385.399 137.06 381.689 138.86 380.899 137.79C380.109 136.72 382.259 137.23 383.049 135.77C383.839 134.31 377.449 138.23 376.579 136.54C375.709 134.85 392.889 130.23 395.189 126.7C397.489 123.17 392.539 128.12 390.319 126.58C388.089 125.05 398.109 122.32 399.799 119.33C401.069 117.08 398.659 119.26 396.689 119.76C395.819 119.98 395.229 118.85 395.909 118.26C397.209 117.13 399.409 116.41 399.409 116.41C399.409 116.41 394.229 118.83 392.229 117.98C390.229 117.14 392.269 116.94 392.269 116.94C392.269 116.94 390.539 117.4 389.849 117.02C389.159 116.64 391.269 115.91 391.539 115.64C391.809 115.37 388.119 116.71 386.399 115.06C384.669 113.41 393.839 114.68 397.409 111.15C400.979 107.62 395.109 112.95 394.109 111.53C393.689 111.38 393.989 110.65 393.989 110.65C393.989 110.65 390.339 113.14 389.879 111.19C389.419 109.23 401.389 106.51 403.579 101.06C400.969 102.86 399.929 102.1 399.929 102.1C399.929 102.1 399.739 101.62 399.829 101.14C399.929 100.66 398.489 102.1 397.259 101.68C396.029 101.26 396.929 100.34 397.049 100.15C397.169 99.96 395.399 100.76 394.749 99.56C394.099 98.35 396.439 97.94 399.559 97.02C402.679 96.1 405.029 92.57 405.029 92.57C405.029 92.57 400.679 95.13 399.889 94.05C398.889 93.64 399.459 92.82 399.459 92.82C399.459 92.82 396.009 93.92 395.519 92.82C395.029 91.72 403.079 90.1 404.499 87.29C404.499 87.29 400.799 88.36 399.739 87.16C398.679 85.95 405.799 84.34 407.109 81.88C408.409 79.42 402.309 83.3 400.929 81.57C399.549 79.84 406.569 80.11 408.179 75.7C405.609 77.16 404.109 76.05 404.109 76.05C404.109 76.05 407.829 74.32 408.939 71.79C407.889 72.1 407.609 71.18 407.609 71.18C407.609 71.18 410.389 69.95 410.599 61L410.609 61.01Z" fill="#3B551C"/>
<path d="M440.003 30.011C440.003 30.011 441.116 37.989 442.566 39.1209C444.016 40.2528 441.061 39.9121 441.061 39.9121C441.061 39.9121 442.73 42.5495 444.071 43.3407C445.412 44.1319 442.62 43.956 442.62 43.956C442.62 43.956 445.357 45.3077 446.753 45.5275C448.149 45.7472 445.521 47.6593 443.068 46.5934C440.614 45.5275 445.75 48.8461 445.75 48.8461C445.75 48.8461 444.747 49.6923 443.187 48.8461C441.628 48 448.825 54.2418 450.439 54.6374C452.053 55.033 448.04 55.033 448.04 55.033L448.432 55.5934C448.432 55.5934 446.764 55.989 445.75 55.3736C444.747 54.7582 451.278 59.0879 453.11 59.033C454.953 58.978 451.322 60.6044 449.152 59.7692C449.457 60.5385 450.112 60.989 450.112 60.989C450.112 60.989 448.062 61.6264 446.262 60.6923C444.463 59.7692 454.419 66.4725 455.553 66.4725C456.687 66.4725 453.797 67.8242 452.085 67.3956C450.373 66.978 452.292 68.6154 452.292 68.6154C452.292 68.6154 449.403 68.9121 446.644 67.6044C449.697 72.7473 455.138 75.4945 455.138 75.4945C455.138 75.4945 454.975 76.2967 453.176 76.1648C453.383 77.8901 463.338 80.8022 463.338 80.8022C463.338 80.8022 463.883 83.5055 456.523 81.945C457.188 83.6264 459.086 84.0769 459.086 84.0769C459.086 84.0769 457.635 85.3406 454.931 84.4176C455.018 85.0659 455.662 85.7143 455.662 85.7143C455.662 85.7143 453.874 86.7253 450.809 85.3516C455.444 90.0989 459.173 91.6154 461.299 91.4835C463.415 91.3407 459.544 92.7473 458.486 92.3297C457.428 91.9121 464.701 96.5495 469.423 97.2747C474.133 98.011 462.957 98.0879 462.957 98.0879C462.957 98.0879 463.927 98.989 464.014 99.3297C464.102 99.6703 461.397 99.6923 460.961 99.3297C460.525 98.967 461.572 100.549 461.572 100.549C461.572 100.549 458.366 100.681 456.469 99.4066C454.571 98.1319 472.258 108.429 475.126 108.407C477.993 108.374 468.071 110.516 465.944 109.912C466.697 111.56 469.924 111.011 470.153 111.835C470.382 112.659 465.923 112.473 465.824 112.451C465.715 112.429 468.441 113.648 468.376 114.264C468.311 114.879 460.95 114.308 458.922 114.264C456.894 114.22 466.391 123.33 472.749 125.308C479.106 127.286 481.919 129.319 485.615 130.791C489.312 132.264 481.744 132.011 481.526 132.011C481.308 132.011 481.145 133.824 479.389 134.033C477.634 134.242 472.53 130.912 470.982 130.703C469.434 130.495 472.825 132.429 473.741 133.187C474.657 133.945 476.205 135.462 473.403 135.165C470.6 134.868 467.711 133.011 466.413 133.187C465.116 133.352 468.507 134.527 467.798 135.209C467.089 135.89 462.564 133.736 460.939 134.154C459.304 134.571 463.698 136.473 464.08 136.637C464.461 136.802 474.373 142.418 484.252 144.78C494.132 147.143 489.105 147.648 485.168 148.495C485.474 151.385 483.609 151.385 483.609 151.385C483.609 151.385 479.814 152.308 473.959 149.187C468.103 146.066 470.197 150.11 470.197 150.11C470.197 150.11 476.434 154.088 481.744 155.308C487.055 156.527 489.148 158.011 488.058 159.857C486.967 161.714 479.607 158.967 479.607 158.967C479.607 158.967 481.908 161.121 481.864 161.67C481.821 162.22 474.286 160.747 473.119 159.516C474.373 162.758 472.956 162.758 472.956 162.758C472.956 162.758 471.407 163.846 461.997 159.154C461.386 158.846 460.678 158.725 460.013 158.857C456.927 159.462 463.044 163.681 463.044 163.681C463.044 163.681 463.753 164.78 460.863 164.571C464.211 166.593 462.531 167.901 462.531 167.901C462.531 167.901 460.394 168.451 455.88 165.165C456.469 167.615 455.542 168.121 455.542 168.121C455.542 168.121 453.492 168.923 447.255 164.363C447.593 166.725 445.87 167.066 445.87 167.066C445.87 167.066 443.94 167.484 443.231 166.011C443.864 172.341 443.1 179 443.1 179L437.615 178.703L437.823 165.209C437.823 165.209 436.329 169.352 435.075 167.835C433.821 166.319 435.075 163.286 435.075 163.286C435.075 163.286 428.183 170.505 426.286 168.516C424.389 166.516 427.878 164.187 427.878 164.187C427.878 164.187 424.28 163.516 421.968 165.758C419.656 168.011 417.759 165.978 418.37 164.297C418.98 162.615 413.79 167.451 412.122 165.868C410.453 164.297 418.871 160.22 419.209 158.363C419.547 156.505 418.599 156.615 416.418 157.945C414.619 159.033 412.285 162.352 410.246 162.253C409.505 162.22 409.025 161.44 409.254 160.736C409.483 160.022 409.734 159.462 409.734 159.462C409.734 159.462 406.888 159.769 405.797 160.813C404.707 161.857 403.202 160.615 405.437 158.198C407.673 155.78 397.205 162.044 396.376 161.429C395.537 160.813 394.173 160.956 394.871 159.516C395.569 158.088 391.556 160.253 391.556 159.571C391.556 158.89 395.188 157.407 398.666 154.956C402.155 152.505 393.476 156.198 393.225 156.055C392.974 155.912 390.433 156.088 391.295 154.286C392.156 152.484 388.089 155.385 387.108 153.527C386.126 151.67 392.102 150.549 395.057 149.703C398.012 148.857 412.133 141.835 415.415 138.121C418.708 134.407 412.351 138.637 412.351 138.637C412.351 138.637 411.26 138.506 411.893 137.538C412.525 136.571 407.378 139.901 406.364 139.56C405.361 139.22 405.448 137.791 405.525 137.538C405.612 137.286 400.541 141 399.288 139.56C398.034 138.132 399.157 136.989 399.157 136.989C399.157 136.989 395.144 138.209 394.599 136.989C394.054 135.769 406.059 133.956 408.153 131.088C410.246 128.22 407.357 131.088 406.484 130.418C405.601 129.747 409.167 129.319 411.718 127.385C414.27 125.44 423.178 120.132 424.356 116.714C425.523 113.297 419.417 119.747 417.868 118.363C416.32 116.967 415.524 119.033 414.521 118.022C413.517 117.011 420.463 114.692 420.801 112.198C421.139 109.714 413.605 116.791 411.555 115.231C409.505 113.67 412.514 113.582 412.514 113.582C412.514 113.582 408.469 115.56 407.607 114.385C406.746 113.209 409.09 113.769 409.952 112.165C410.813 110.56 403.845 114.868 402.897 113.011C401.948 111.154 420.681 106.077 423.189 102.198C425.697 98.3187 420.3 103.758 417.879 102.066C415.447 100.385 426.373 97.3846 428.216 94.0989C429.601 91.6264 426.973 94.022 424.825 94.5714C423.876 94.8132 423.233 93.5714 423.974 92.9231C425.392 91.6813 427.791 90.8901 427.791 90.8901C427.791 90.8901 422.143 93.5494 419.962 92.6154C417.781 91.6923 420.005 91.4725 420.005 91.4725C420.005 91.4725 418.119 91.978 417.367 91.5604C416.614 91.1428 418.915 90.3407 419.209 90.044C419.504 89.7473 415.48 91.2198 413.605 89.4066C411.718 87.5934 421.717 88.989 425.61 85.1099C429.503 81.2308 423.102 87.0879 422.012 85.5275C421.554 85.3626 421.881 84.5604 421.881 84.5604C421.881 84.5604 417.901 87.2967 417.399 85.1539C416.898 83 429.95 80.011 432.338 74.022C429.492 76 428.358 75.1648 428.358 75.1648C428.358 75.1648 428.151 74.6374 428.249 74.1099C428.358 73.5824 426.788 75.1648 425.446 74.7033C424.105 74.2418 425.087 73.2308 425.217 73.022C425.348 72.8132 423.418 73.6923 422.71 72.3736C422.001 71.044 424.552 70.5934 427.954 69.5824C431.357 68.5714 433.919 64.6923 433.919 64.6923C433.919 64.6923 429.176 67.5055 428.314 66.3187C427.224 65.8681 427.845 64.967 427.845 64.967C427.845 64.967 424.083 66.1758 423.549 64.967C423.015 63.7582 431.793 61.978 433.341 58.8901C433.341 58.8901 429.307 60.0659 428.151 58.7473C426.995 57.4176 434.759 55.6483 436.187 52.945C437.605 50.2417 430.953 54.5055 429.448 52.6044C427.944 50.7033 435.598 51 437.354 46.1538C434.551 47.7582 432.916 46.5385 432.916 46.5385C432.916 46.5385 436.972 44.6374 438.183 41.8571C437.038 42.1978 436.732 41.1868 436.732 41.1868C436.732 41.1868 439.764 39.8352 439.993 30L440.003 30.011Z" fill="#3B551C"/>
<path d="M62.6252 220.92C62.1952 220.96 61.7652 220.8 61.3352 220.84C60.9952 220.87 60.6852 221.02 60.3552 221.12C59.5552 221.35 58.6452 221.22 57.9652 220.78C57.7952 220.67 57.6452 220.54 57.4552 220.47C57.1852 220.37 56.8752 220.39 56.5952 220.35C55.9552 220.26 55.3852 219.82 55.1552 219.26C55.0752 219.05 55.0352 218.81 55.1252 218.6C55.2452 218.33 55.5452 218.16 55.8352 218.04C56.8852 217.59 58.0552 217.39 59.2052 217.43C60.3652 217.47 61.3852 217.9 62.5152 218.06C63.3152 218.18 63.9552 218.62 63.9652 219.44C63.9652 220.15 63.4152 220.85 62.6252 220.92Z" fill="#879A69"/>
<path d="M34.7352 218.049C34.3052 218.089 33.8752 217.929 33.4452 217.969C33.1052 217.999 32.7952 218.149 32.4652 218.249C31.6752 218.479 30.7652 218.349 30.0752 217.909C29.9052 217.799 29.7552 217.669 29.5652 217.599C29.2952 217.499 28.9852 217.519 28.7052 217.479C28.0652 217.389 27.4952 216.949 27.2752 216.389C27.1952 216.179 27.1552 215.939 27.2452 215.729C27.3652 215.459 27.6652 215.289 27.9552 215.169C29.0052 214.719 30.1752 214.519 31.3252 214.559C32.4852 214.599 33.5052 215.029 34.6352 215.189C35.4352 215.309 36.0752 215.749 36.0852 216.569C36.0852 217.279 35.5352 217.979 34.7452 218.049" fill="#879A69"/>
<path d="M63.1852 211.22C63.6152 211.07 64.1252 211.17 64.4652 211.45C64.5652 211.53 64.6452 211.65 64.6052 211.77C64.5752 211.84 64.5152 211.88 64.4552 211.92C63.8052 212.26 62.9352 211.8 62.2452 212.07C62.0652 212.14 61.9152 212.26 61.7352 212.32C61.5552 212.38 61.3152 212.38 61.1952 212.24C61.1352 212.17 61.1152 212.08 61.0952 211.99C61.0452 211.75 61.0252 211.47 61.2252 211.32C61.3252 211.24 61.4652 211.22 61.6052 211.2C62.2852 211.12 62.9852 211.14 63.6652 211.25" fill="#879A69"/>
<path d="M74.1652 205.409C74.5952 205.259 75.1052 205.359 75.4352 205.639C75.5352 205.719 75.6152 205.839 75.5752 205.959C75.5452 206.029 75.4852 206.069 75.4252 206.109C74.7752 206.449 73.9052 205.989 73.2152 206.259C73.0352 206.329 72.8852 206.449 72.7052 206.509C72.5252 206.569 72.2852 206.569 72.1652 206.429C72.1052 206.359 72.0852 206.269 72.0652 206.179C72.0152 205.939 71.9952 205.659 72.1952 205.509C72.2952 205.429 72.4352 205.409 72.5752 205.389C73.2552 205.309 73.9552 205.329 74.6352 205.439" fill="#879A69"/>
<path d="M78.0652 206.909C78.4952 206.759 79.0052 206.859 79.3352 207.139C79.4352 207.219 79.5152 207.339 79.4752 207.459C79.4452 207.529 79.3852 207.569 79.3252 207.609C78.6752 207.949 77.8052 207.489 77.1152 207.759C76.9352 207.829 76.7852 207.949 76.6052 208.009C76.4252 208.069 76.1852 208.069 76.0652 207.929C76.0052 207.859 75.9852 207.769 75.9652 207.679C75.9152 207.439 75.8952 207.159 76.0952 207.009C76.1952 206.929 76.3352 206.909 76.4752 206.889C77.1552 206.809 77.8552 206.829 78.5352 206.939" fill="#879A69"/>
<path d="M88.8152 206.3C89.2452 206.15 89.7552 206.249 90.0852 206.529C90.1852 206.609 90.2652 206.729 90.2252 206.849C90.1952 206.919 90.1352 206.959 90.0752 206.999C89.4252 207.339 88.5552 206.879 87.8652 207.149C87.6852 207.219 87.5352 207.339 87.3552 207.399C87.1752 207.459 86.9352 207.459 86.8152 207.319C86.7552 207.249 86.7352 207.159 86.7152 207.069C86.6652 206.839 86.6452 206.549 86.8452 206.399C86.9452 206.319 87.0852 206.299 87.2252 206.279C87.9052 206.199 88.6052 206.22 89.2852 206.33" fill="#879A69"/>
<path d="M58.1452 204.8C58.5752 204.65 59.0852 204.749 59.4252 205.029C59.5252 205.109 59.6052 205.229 59.5652 205.349C59.5352 205.419 59.4752 205.459 59.4052 205.499C58.7552 205.839 57.8852 205.379 57.1952 205.649C57.0152 205.719 56.8652 205.839 56.6852 205.899C56.5052 205.959 56.2652 205.959 56.1452 205.819C56.0852 205.749 56.0652 205.659 56.0452 205.569C55.9952 205.339 55.9752 205.049 56.1752 204.899C56.2752 204.819 56.4152 204.799 56.5552 204.779C57.2352 204.699 57.9352 204.72 58.6152 204.83" fill="#879A69"/>
<path d="M93.8552 205.489C94.2852 205.339 94.7952 205.439 95.1252 205.719C95.2252 205.799 95.3052 205.919 95.2652 206.039C95.2352 206.109 95.1752 206.149 95.1152 206.189C94.4652 206.529 93.5952 206.069 92.9052 206.339C92.7252 206.409 92.5752 206.529 92.3952 206.589C92.2152 206.649 91.9752 206.649 91.8552 206.509C91.7952 206.439 91.7752 206.349 91.7552 206.259C91.7052 206.029 91.6852 205.739 91.8852 205.589C91.9852 205.509 92.1252 205.489 92.2652 205.469C92.9452 205.389 93.6452 205.409 94.3252 205.519" fill="#879A69"/>
<path d="M104.835 199.68C105.265 199.53 105.775 199.63 106.105 199.91C106.205 199.99 106.285 200.11 106.245 200.23C106.215 200.3 106.155 200.34 106.095 200.38C105.445 200.72 104.575 200.26 103.885 200.53C103.705 200.6 103.555 200.72 103.375 200.78C103.195 200.84 102.955 200.84 102.835 200.7C102.775 200.63 102.755 200.54 102.735 200.45C102.685 200.21 102.665 199.93 102.865 199.78C102.965 199.7 103.105 199.68 103.245 199.66C103.925 199.58 104.625 199.6 105.305 199.71" fill="#879A69"/>
<path d="M108.735 201.18C109.165 201.03 109.675 201.13 110.005 201.41C110.105 201.49 110.185 201.61 110.145 201.73C110.115 201.8 110.055 201.84 109.995 201.88C109.345 202.22 108.475 201.76 107.785 202.03C107.605 202.1 107.455 202.22 107.275 202.28C107.095 202.34 106.855 202.34 106.735 202.2C106.675 202.13 106.655 202.04 106.635 201.95C106.585 201.72 106.565 201.43 106.765 201.28C106.865 201.2 107.005 201.18 107.145 201.16C107.825 201.08 108.525 201.1 109.205 201.21" fill="#879A69"/>
<path d="M119.495 200.57C119.925 200.42 120.435 200.52 120.765 200.8C120.865 200.88 120.945 201 120.905 201.12C120.875 201.19 120.815 201.23 120.755 201.27C120.105 201.61 119.235 201.15 118.545 201.42C118.365 201.49 118.215 201.61 118.035 201.67C117.855 201.73 117.615 201.73 117.495 201.59C117.435 201.52 117.415 201.43 117.395 201.34C117.345 201.11 117.325 200.82 117.525 200.67C117.625 200.59 117.765 200.57 117.905 200.55C118.585 200.47 119.285 200.49 119.965 200.6" fill="#879A69"/>
<path d="M88.8152 199.07C89.2452 198.92 89.7552 199.02 90.0852 199.3C90.1852 199.38 90.2652 199.5 90.2252 199.62C90.1952 199.69 90.1352 199.73 90.0752 199.77C89.4252 200.11 88.5552 199.65 87.8652 199.92C87.6852 199.99 87.5352 200.11 87.3552 200.17C87.1752 200.23 86.9352 200.23 86.8152 200.09C86.7552 200.02 86.7352 199.93 86.7152 199.84C86.6652 199.61 86.6452 199.32 86.8452 199.17C86.9452 199.09 87.0852 199.07 87.2252 199.05C87.9052 198.97 88.6052 198.99 89.2852 199.1" fill="#879A69"/>
<path d="M118.615 228.7C119.045 228.55 119.555 228.65 119.885 228.93C119.985 229.01 120.065 229.13 120.025 229.25C119.995 229.32 119.935 229.36 119.875 229.4C119.225 229.74 118.355 229.28 117.665 229.55C117.485 229.62 117.335 229.74 117.155 229.8C116.975 229.86 116.735 229.86 116.615 229.72C116.555 229.65 116.535 229.56 116.515 229.47C116.465 229.24 116.445 228.95 116.645 228.8C116.745 228.72 116.885 228.7 117.025 228.68C117.705 228.6 118.405 228.62 119.085 228.73" fill="#879A69"/>
<path d="M110.205 217.309C109.655 217.719 108.995 217.669 108.395 217.529C108.045 217.449 107.475 217.42 107.305 217.08C107.215 216.9 107.235 216.67 107.365 216.51C107.435 216.42 107.545 216.35 107.625 216.26C107.675 216.2 107.715 216.13 107.775 216.08C107.885 215.98 108.055 215.94 108.205 215.92C108.905 215.8 110.145 215.56 110.515 216.3C110.685 216.65 110.535 217.06 110.215 217.3" fill="#879A69"/>
<path d="M127.085 229.329C126.635 229.489 126.135 229.439 125.675 229.329C125.325 229.249 124.755 229.219 124.585 228.879C124.495 228.699 124.515 228.469 124.645 228.309C124.715 228.219 124.825 228.149 124.905 228.059C124.955 227.999 124.995 227.929 125.055 227.879C125.165 227.779 125.335 227.739 125.485 227.719C126.065 227.619 127.045 227.429 127.555 227.819C128.085 228.219 127.725 229.099 127.085 229.329Z" fill="#879A69"/>
<path d="M149.595 232.319C149.145 232.479 148.645 232.429 148.185 232.319C147.835 232.239 147.265 232.209 147.095 231.869C147.005 231.689 147.025 231.459 147.155 231.299C147.225 231.209 147.335 231.139 147.415 231.049C147.465 230.989 147.505 230.919 147.565 230.869C147.675 230.769 147.845 230.729 147.995 230.709C148.575 230.609 149.555 230.419 150.065 230.809C150.595 231.209 150.235 232.089 149.595 232.319Z" fill="#879A69"/>
<path d="M139.205 233.25C138.755 233.41 138.255 233.36 137.795 233.25C137.445 233.17 136.875 233.14 136.705 232.8C136.615 232.62 136.635 232.39 136.765 232.23C136.835 232.14 136.945 232.07 137.025 231.98C137.075 231.92 137.115 231.85 137.175 231.8C137.285 231.7 137.455 231.66 137.605 231.64C138.185 231.54 139.165 231.35 139.675 231.74C140.205 232.14 139.845 233.02 139.205 233.25Z" fill="#879A69"/>
<path d="M102.465 221.26C102.015 221.42 101.515 221.37 101.055 221.26C100.705 221.18 100.135 221.15 99.9652 220.81C99.8752 220.63 99.8952 220.4 100.025 220.24C100.095 220.15 100.205 220.08 100.285 219.99C100.335 219.93 100.375 219.86 100.435 219.81C100.545 219.71 100.715 219.67 100.865 219.65C101.445 219.55 102.425 219.36 102.935 219.75C103.465 220.15 103.105 221.03 102.465 221.26Z" fill="#879A69"/>
<path d="M138.085 210.489C137.635 210.649 137.135 210.599 136.675 210.489C136.325 210.409 135.755 210.38 135.585 210.04C135.495 209.86 135.515 209.629 135.645 209.469C135.715 209.379 135.825 209.309 135.905 209.219C135.955 209.159 135.995 209.09 136.055 209.04C136.165 208.94 136.335 208.899 136.485 208.879C137.065 208.779 138.045 208.59 138.555 208.98C139.085 209.38 138.725 210.259 138.085 210.489Z" fill="#879A69"/>
<path d="M430.696 207.92C431.126 207.96 431.556 207.8 431.986 207.84C432.326 207.87 432.636 208.02 432.966 208.12C433.766 208.35 434.676 208.22 435.356 207.78C435.526 207.67 435.676 207.54 435.866 207.47C436.136 207.37 436.446 207.39 436.726 207.35C437.366 207.26 437.936 206.82 438.166 206.26C438.246 206.05 438.286 205.81 438.196 205.6C438.076 205.33 437.776 205.16 437.486 205.04C436.436 204.59 435.266 204.39 434.116 204.43C432.956 204.47 431.936 204.9 430.806 205.06C430.006 205.18 429.366 205.62 429.356 206.44C429.356 207.15 429.906 207.85 430.696 207.92Z" fill="#879A69"/>
<path d="M458.586 205.049C459.016 205.089 459.446 204.929 459.876 204.969C460.216 204.999 460.526 205.149 460.856 205.249C461.646 205.479 462.556 205.349 463.246 204.909C463.416 204.799 463.566 204.669 463.756 204.599C464.026 204.499 464.336 204.519 464.616 204.479C465.256 204.389 465.826 203.949 466.046 203.389C466.126 203.179 466.166 202.939 466.076 202.729C465.956 202.459 465.656 202.289 465.366 202.169C464.316 201.719 463.146 201.519 461.996 201.559C460.836 201.599 459.816 202.029 458.686 202.189C457.886 202.309 457.246 202.749 457.236 203.569C457.236 204.279 457.786 204.979 458.576 205.049" fill="#879A69"/>
<path d="M430.136 198.22C429.706 198.07 429.196 198.17 428.856 198.45C428.756 198.53 428.676 198.65 428.716 198.77C428.746 198.84 428.806 198.88 428.866 198.92C429.516 199.26 430.386 198.8 431.076 199.07C431.256 199.14 431.406 199.26 431.586 199.32C431.766 199.38 432.006 199.38 432.126 199.24C432.186 199.17 432.206 199.08 432.226 198.99C432.276 198.75 432.296 198.47 432.096 198.32C431.996 198.24 431.856 198.22 431.716 198.2C431.036 198.12 430.336 198.14 429.656 198.25" fill="#879A69"/>
<path d="M419.156 192.409C418.726 192.259 418.216 192.359 417.886 192.639C417.786 192.719 417.706 192.839 417.746 192.959C417.776 193.029 417.836 193.069 417.896 193.109C418.546 193.449 419.416 192.989 420.106 193.259C420.286 193.329 420.436 193.449 420.616 193.509C420.796 193.569 421.036 193.569 421.156 193.429C421.216 193.359 421.236 193.269 421.256 193.179C421.306 192.939 421.326 192.659 421.126 192.509C421.026 192.429 420.886 192.409 420.746 192.389C420.066 192.309 419.366 192.329 418.686 192.439" fill="#879A69"/>
<path d="M415.256 193.909C414.826 193.759 414.316 193.859 413.986 194.139C413.886 194.219 413.806 194.339 413.846 194.459C413.876 194.529 413.936 194.569 413.996 194.609C414.646 194.949 415.516 194.489 416.206 194.759C416.386 194.829 416.536 194.949 416.716 195.009C416.896 195.069 417.136 195.069 417.256 194.929C417.316 194.859 417.336 194.769 417.356 194.679C417.406 194.439 417.426 194.159 417.226 194.009C417.126 193.929 416.986 193.909 416.846 193.889C416.166 193.809 415.466 193.829 414.786 193.939" fill="#879A69"/>
<path d="M404.506 193.3C404.076 193.15 403.566 193.249 403.236 193.529C403.136 193.609 403.056 193.729 403.096 193.849C403.126 193.919 403.186 193.959 403.246 193.999C403.896 194.339 404.766 193.879 405.456 194.149C405.636 194.219 405.786 194.339 405.966 194.399C406.146 194.459 406.386 194.459 406.506 194.319C406.566 194.249 406.586 194.159 406.606 194.069C406.656 193.839 406.676 193.549 406.476 193.399C406.376 193.319 406.236 193.299 406.096 193.279C405.416 193.199 404.716 193.22 404.036 193.33" fill="#879A69"/>
<path d="M435.176 191.8C434.746 191.65 434.236 191.749 433.896 192.029C433.796 192.109 433.716 192.229 433.756 192.349C433.786 192.419 433.846 192.459 433.916 192.499C434.566 192.839 435.436 192.379 436.126 192.649C436.306 192.719 436.456 192.839 436.636 192.899C436.816 192.959 437.056 192.959 437.176 192.819C437.236 192.749 437.256 192.659 437.276 192.569C437.326 192.339 437.346 192.049 437.146 191.899C437.046 191.819 436.906 191.799 436.766 191.779C436.086 191.699 435.386 191.72 434.706 191.83" fill="#879A69"/>
<path d="M399.466 192.489C399.036 192.339 398.526 192.439 398.196 192.719C398.096 192.799 398.016 192.919 398.056 193.039C398.086 193.109 398.146 193.149 398.206 193.189C398.856 193.529 399.726 193.069 400.416 193.339C400.596 193.409 400.746 193.529 400.926 193.589C401.106 193.649 401.346 193.649 401.466 193.509C401.526 193.439 401.546 193.349 401.566 193.259C401.616 193.029 401.636 192.739 401.436 192.589C401.336 192.509 401.196 192.489 401.056 192.469C400.376 192.389 399.676 192.409 398.996 192.519" fill="#879A69"/>
<path d="M388.486 186.68C388.056 186.53 387.546 186.63 387.216 186.91C387.116 186.99 387.036 187.11 387.076 187.23C387.106 187.3 387.166 187.34 387.226 187.38C387.876 187.72 388.746 187.26 389.436 187.53C389.616 187.6 389.766 187.72 389.946 187.78C390.126 187.84 390.366 187.84 390.486 187.7C390.546 187.63 390.566 187.54 390.586 187.45C390.636 187.21 390.656 186.93 390.456 186.78C390.356 186.7 390.216 186.68 390.076 186.66C389.396 186.58 388.696 186.6 388.016 186.71" fill="#879A69"/>
<path d="M384.586 188.18C384.156 188.03 383.646 188.13 383.316 188.41C383.216 188.49 383.136 188.61 383.176 188.73C383.206 188.8 383.266 188.84 383.326 188.88C383.976 189.22 384.846 188.76 385.536 189.03C385.716 189.1 385.866 189.22 386.046 189.28C386.226 189.34 386.466 189.34 386.586 189.2C386.646 189.13 386.666 189.04 386.686 188.95C386.736 188.72 386.756 188.43 386.556 188.28C386.456 188.2 386.316 188.18 386.176 188.16C385.496 188.08 384.796 188.1 384.116 188.21" fill="#879A69"/>
<path d="M373.826 187.57C373.396 187.42 372.886 187.52 372.556 187.8C372.456 187.88 372.376 188 372.416 188.12C372.446 188.19 372.506 188.23 372.566 188.27C373.216 188.61 374.086 188.15 374.776 188.42C374.956 188.49 375.106 188.61 375.286 188.67C375.466 188.73 375.706 188.73 375.826 188.59C375.886 188.52 375.906 188.43 375.926 188.34C375.976 188.11 375.996 187.82 375.796 187.67C375.696 187.59 375.556 187.57 375.416 187.55C374.736 187.47 374.036 187.49 373.356 187.6" fill="#879A69"/>
<path d="M404.506 186.07C404.076 185.92 403.566 186.02 403.236 186.3C403.136 186.38 403.056 186.5 403.096 186.62C403.126 186.69 403.186 186.73 403.246 186.77C403.896 187.11 404.766 186.65 405.456 186.92C405.636 186.99 405.786 187.11 405.966 187.17C406.146 187.23 406.386 187.23 406.506 187.09C406.566 187.02 406.586 186.93 406.606 186.84C406.656 186.61 406.676 186.32 406.476 186.17C406.376 186.09 406.236 186.07 406.096 186.05C405.416 185.97 404.716 185.99 404.036 186.1" fill="#879A69"/>
<path d="M374.706 215.7C374.276 215.55 373.766 215.65 373.436 215.93C373.336 216.01 373.256 216.13 373.296 216.25C373.326 216.32 373.386 216.36 373.446 216.4C374.096 216.74 374.966 216.28 375.656 216.55C375.836 216.62 375.986 216.74 376.166 216.8C376.346 216.86 376.586 216.86 376.706 216.72C376.766 216.65 376.786 216.56 376.806 216.47C376.856 216.24 376.876 215.95 376.676 215.8C376.576 215.72 376.436 215.7 376.296 215.68C375.616 215.6 374.916 215.62 374.236 215.73" fill="#879A69"/>
<path d="M383.116 204.309C383.666 204.719 384.326 204.669 384.926 204.529C385.276 204.449 385.846 204.42 386.016 204.08C386.106 203.9 386.086 203.67 385.956 203.51C385.886 203.42 385.776 203.35 385.696 203.26C385.646 203.2 385.606 203.13 385.546 203.08C385.436 202.98 385.266 202.94 385.116 202.92C384.416 202.8 383.176 202.56 382.806 203.3C382.636 203.65 382.786 204.06 383.106 204.3" fill="#879A69"/>
<path d="M366.236 216.329C366.686 216.489 367.186 216.439 367.646 216.329C367.996 216.249 368.566 216.219 368.736 215.879C368.826 215.699 368.806 215.469 368.676 215.309C368.606 215.219 368.496 215.149 368.416 215.059C368.366 214.999 368.326 214.929 368.266 214.879C368.156 214.779 367.986 214.739 367.836 214.719C367.256 214.619 366.276 214.429 365.766 214.819C365.236 215.219 365.596 216.099 366.236 216.329Z" fill="#879A69"/>
<path d="M343.726 219.319C344.176 219.479 344.676 219.429 345.136 219.319C345.486 219.239 346.056 219.209 346.226 218.869C346.316 218.689 346.296 218.459 346.166 218.299C346.096 218.209 345.986 218.139 345.906 218.049C345.856 217.989 345.816 217.919 345.756 217.869C345.646 217.769 345.476 217.729 345.326 217.709C344.746 217.609 343.766 217.419 343.256 217.809C342.726 218.209 343.086 219.089 343.726 219.319Z" fill="#879A69"/>
<path d="M354.116 220.25C354.566 220.41 355.066 220.36 355.526 220.25C355.876 220.17 356.446 220.14 356.616 219.8C356.706 219.62 356.686 219.39 356.556 219.23C356.486 219.14 356.376 219.07 356.296 218.98C356.246 218.92 356.206 218.85 356.146 218.8C356.036 218.7 355.866 218.66 355.716 218.64C355.136 218.54 354.156 218.35 353.646 218.74C353.116 219.14 353.476 220.02 354.116 220.25Z" fill="#879A69"/>
<path d="M390.856 208.26C391.306 208.42 391.806 208.37 392.266 208.26C392.616 208.18 393.186 208.15 393.356 207.81C393.446 207.63 393.426 207.4 393.296 207.24C393.226 207.15 393.116 207.08 393.036 206.99C392.986 206.93 392.946 206.86 392.886 206.81C392.776 206.71 392.606 206.67 392.456 206.65C391.876 206.55 390.896 206.36 390.386 206.75C389.856 207.15 390.216 208.03 390.856 208.26Z" fill="#879A69"/>
<path d="M355.236 197.489C355.686 197.649 356.186 197.599 356.646 197.489C356.996 197.409 357.566 197.38 357.736 197.04C357.826 196.86 357.806 196.629 357.676 196.469C357.606 196.379 357.496 196.309 357.416 196.219C357.366 196.159 357.326 196.09 357.266 196.04C357.156 195.94 356.986 195.899 356.836 195.879C356.256 195.779 355.276 195.59 354.766 195.98C354.236 196.38 354.596 197.259 355.236 197.489Z" fill="#879A69"/>
</g>
</svg>
