<svg width="472" height="258" viewBox="0 0 472 258" fill="none" xmlns="http://www.w3.org/2000/svg">
<mask id="mask0_14_276" style="mask-type:alpha" maskUnits="userSpaceOnUse" x="0" y="0" width="472" height="258">
<rect width="472" height="258" fill="#D9D9D9"/>
</mask>
<g mask="url(#mask0_14_276)">
<path d="M348.536 101.008C348.536 101.008 349.303 106.523 350.303 107.305C351.302 108.087 349.265 107.852 349.265 107.852C349.265 107.852 350.415 109.675 351.34 110.222C352.265 110.769 350.34 110.647 350.34 110.647C350.34 110.647 352.227 111.582 353.189 111.734C354.151 111.886 352.34 113.207 350.648 112.471C348.957 111.734 352.498 114.028 352.498 114.028C352.498 114.028 351.806 114.613 350.731 114.028C349.656 113.443 354.617 117.758 355.73 118.031C356.842 118.305 354.076 118.305 354.076 118.305L354.347 118.692C354.347 118.692 353.197 118.966 352.498 118.54C351.806 118.115 356.308 121.108 357.571 121.07C358.834 121.032 356.338 122.156 354.843 121.579C355.053 122.11 355.504 122.422 355.504 122.422C355.504 122.422 354.091 122.863 352.851 122.217C351.611 121.579 358.473 126.213 359.255 126.213C360.037 126.213 358.045 127.147 356.865 126.851C355.685 126.562 357.007 127.694 357.007 127.694C357.007 127.694 355.016 127.899 353.114 126.995C355.218 130.55 358.969 132.449 358.969 132.449C358.969 132.449 358.856 133.004 357.616 132.913C357.759 134.105 364.622 136.118 364.622 136.118C364.622 136.118 364.997 137.987 359.924 136.908C360.382 138.071 361.69 138.382 361.69 138.382C361.69 138.382 360.69 139.256 358.826 138.618C358.887 139.066 359.33 139.514 359.33 139.514C359.33 139.514 358.097 140.213 355.985 139.263C359.18 142.545 361.75 143.593 363.216 143.502C364.674 143.403 362.006 144.376 361.277 144.087C360.548 143.798 365.561 147.004 368.816 147.505C372.063 148.014 364.358 148.067 364.358 148.067C364.358 148.067 365.027 148.69 365.088 148.926C365.148 149.161 363.284 149.177 362.983 148.926C362.682 148.675 363.404 149.769 363.404 149.769C363.404 149.769 361.194 149.86 359.886 148.979C358.578 148.098 370.77 155.216 372.747 155.201C374.724 155.178 367.884 156.659 366.418 156.241C366.937 157.381 369.161 157.001 369.319 157.571C369.477 158.14 366.403 158.011 366.335 157.996C366.26 157.981 368.139 158.824 368.094 159.249C368.049 159.675 362.975 159.28 361.577 159.249C360.179 159.219 366.726 165.516 371.108 166.884C375.49 168.251 377.43 169.657 379.978 170.674C382.526 171.692 377.309 171.518 377.159 171.518C377.009 171.518 376.896 172.771 375.686 172.915C374.476 173.06 370.958 170.758 369.891 170.614C368.823 170.469 371.161 171.806 371.792 172.33C372.424 172.855 373.491 173.903 371.559 173.698C369.627 173.493 367.636 172.209 366.741 172.33C365.847 172.444 368.184 173.257 367.696 173.728C367.207 174.199 364.088 172.71 362.968 172.999C361.84 173.288 364.87 174.602 365.133 174.716C365.396 174.83 372.228 178.711 379.038 180.345C385.848 181.978 382.383 182.327 379.669 182.912C379.88 184.91 378.595 184.91 378.595 184.91C378.595 184.91 375.979 185.548 371.943 183.391C367.906 181.233 369.349 184.029 369.349 184.029C369.349 184.029 373.649 186.779 377.309 187.622C380.97 188.465 382.413 189.491 381.661 190.767C380.91 192.051 375.836 190.152 375.836 190.152C375.836 190.152 377.422 191.641 377.392 192.02C377.362 192.4 372.168 191.382 371.364 190.532C372.228 192.772 371.251 192.772 371.251 192.772C371.251 192.772 370.184 193.525 363.697 190.281C363.276 190.068 362.788 189.985 362.329 190.076C360.202 190.494 364.419 193.411 364.419 193.411C364.419 193.411 364.907 194.17 362.915 194.026C365.223 195.424 364.065 196.328 364.065 196.328C364.065 196.328 362.592 196.707 359.48 194.436C359.886 196.13 359.247 196.48 359.247 196.48C359.247 196.48 357.834 197.034 353.535 193.882C353.768 195.515 352.58 195.75 352.58 195.75C352.58 195.75 351.25 196.039 350.761 195.021C351.197 199.397 350.671 204 350.671 204L346.89 203.795L347.033 194.466C347.033 194.466 346.003 197.33 345.139 196.282C344.275 195.234 345.139 193.137 345.139 193.137C345.139 193.137 340.389 198.128 339.081 196.753C337.773 195.37 340.178 193.76 340.178 193.76C340.178 193.76 337.698 193.297 336.104 194.846C334.511 196.404 333.203 194.998 333.624 193.836C334.045 192.674 330.467 196.016 329.317 194.922C328.167 193.836 333.97 191.018 334.203 189.734C334.436 188.45 333.782 188.526 332.278 189.445C331.038 190.197 329.43 192.491 328.024 192.423C327.513 192.4 327.182 191.861 327.34 191.375C327.498 190.881 327.671 190.494 327.671 190.494C327.671 190.494 325.709 190.706 324.957 191.428C324.206 192.15 323.168 191.291 324.709 189.62C326.25 187.949 319.034 192.279 318.463 191.853C317.884 191.428 316.945 191.527 317.426 190.532C317.907 189.544 315.141 191.04 315.141 190.57C315.141 190.099 317.644 189.073 320.042 187.379C322.447 185.685 316.464 188.237 316.291 188.139C316.118 188.04 314.367 188.161 314.96 186.916C315.554 185.67 312.751 187.675 312.074 186.391C311.398 185.108 315.517 184.333 317.554 183.748C319.591 183.163 329.324 178.309 331.587 175.741C333.857 173.174 329.475 176.098 329.475 176.098C329.475 176.098 328.723 176.007 329.159 175.339C329.595 174.67 326.047 176.972 325.348 176.736C324.657 176.501 324.717 175.513 324.769 175.339C324.83 175.164 321.334 177.732 320.47 176.736C319.606 175.749 320.38 174.959 320.38 174.959C320.38 174.959 317.614 175.802 317.238 174.959C316.862 174.116 325.138 172.862 326.581 170.88C328.024 168.897 326.032 170.88 325.431 170.416C324.822 169.953 327.28 169.657 329.039 168.32C330.798 166.975 336.939 163.306 337.75 160.943C338.555 158.581 334.345 163.04 333.278 162.083C332.211 161.118 331.662 162.546 330.97 161.847C330.279 161.149 335.067 159.546 335.3 157.821C335.533 156.105 330.339 160.997 328.926 159.918C327.513 158.839 329.587 158.778 329.587 158.778C329.587 158.778 326.799 160.146 326.205 159.333C325.611 158.52 327.227 158.908 327.821 157.799C328.415 156.689 323.612 159.667 322.958 158.383C322.304 157.1 335.217 153.59 336.946 150.909C338.675 148.227 334.954 151.987 333.286 150.817C331.609 149.655 339.141 147.581 340.411 145.31C341.366 143.601 339.554 145.257 338.074 145.637C337.42 145.804 336.976 144.945 337.487 144.497C338.464 143.639 340.118 143.092 340.118 143.092C340.118 143.092 336.224 144.93 334.721 144.284C333.218 143.646 334.751 143.494 334.751 143.494C334.751 143.494 333.451 143.844 332.932 143.555C332.414 143.267 334 142.712 334.203 142.507C334.405 142.302 331.632 143.32 330.339 142.066C329.039 140.813 335.931 141.778 338.615 139.096C341.298 136.415 336.886 140.463 336.134 139.385C335.819 139.271 336.044 138.716 336.044 138.716C336.044 138.716 333.301 140.608 332.955 139.126C332.609 137.638 341.606 135.571 343.252 131.431C341.291 132.799 340.509 132.221 340.509 132.221C340.509 132.221 340.366 131.857 340.434 131.492C340.509 131.127 339.426 132.221 338.502 131.902C337.577 131.583 338.254 130.884 338.344 130.74C338.434 130.596 337.104 131.203 336.615 130.292C336.127 129.373 337.886 129.061 340.231 128.362C342.576 127.663 344.342 124.982 344.342 124.982C344.342 124.982 341.073 126.927 340.479 126.106C339.727 125.795 340.156 125.172 340.156 125.172C340.156 125.172 337.562 126.007 337.194 125.172C336.826 124.336 342.877 123.106 343.944 120.971C343.944 120.971 341.163 121.784 340.366 120.872C339.569 119.961 344.921 118.73 345.906 116.861C346.89 114.993 342.298 117.94 341.26 116.626C340.223 115.312 345.5 115.517 346.71 112.167C344.778 113.276 343.651 112.433 343.651 112.433C343.651 112.433 346.447 111.118 347.281 109.197C346.492 109.432 346.281 108.733 346.281 108.733C346.281 108.733 348.371 107.799 348.529 101L348.536 101.008Z" fill="#476715"/>
<path d="M127.109 108.008C127.109 108.008 127.93 113.898 129 114.734C130.07 115.569 127.89 115.318 127.89 115.318C127.89 115.318 129.121 117.265 130.11 117.849C131.1 118.433 129.04 118.303 129.04 118.303C129.04 118.303 131.06 119.301 132.09 119.463C133.12 119.625 131.181 121.037 129.37 120.25C127.56 119.463 131.349 121.913 131.349 121.913C131.349 121.913 130.609 122.538 129.459 121.913C128.308 121.289 133.618 125.897 134.809 126.189C136 126.481 133.039 126.481 133.039 126.481L133.329 126.894C133.329 126.894 132.098 127.187 131.349 126.732C130.609 126.278 135.429 129.474 136.78 129.434C138.132 129.393 135.461 130.594 133.86 129.977C134.085 130.545 134.568 130.878 134.568 130.878C134.568 130.878 133.055 131.348 131.728 130.659C130.4 129.977 137.746 134.926 138.583 134.926C139.419 134.926 137.287 135.924 136.024 135.607C134.761 135.299 136.177 136.508 136.177 136.508C136.177 136.508 134.045 136.727 132.009 135.762C134.262 139.558 138.277 141.587 138.277 141.587C138.277 141.587 138.156 142.179 136.829 142.081C136.982 143.355 144.327 145.505 144.327 145.505C144.327 145.505 144.73 147.501 139.299 146.349C139.789 147.59 141.189 147.923 141.189 147.923C141.189 147.923 140.119 148.856 138.124 148.174C138.188 148.653 138.663 149.131 138.663 149.131C138.663 149.131 137.344 149.878 135.083 148.864C138.502 152.368 141.254 153.488 142.823 153.391C144.384 153.285 141.527 154.323 140.747 154.015C139.966 153.707 145.333 157.13 148.817 157.666C152.293 158.209 144.046 158.266 144.046 158.266C144.046 158.266 144.762 158.931 144.826 159.183C144.89 159.434 142.895 159.451 142.573 159.183C142.251 158.915 143.024 160.083 143.024 160.083C143.024 160.083 140.658 160.181 139.258 159.24C137.858 158.299 150.909 165.9 153.025 165.884C155.141 165.86 147.819 167.442 146.25 166.996C146.805 168.212 149.187 167.807 149.356 168.415C149.525 169.024 146.234 168.886 146.162 168.87C146.081 168.853 148.093 169.754 148.044 170.208C147.996 170.662 142.565 170.241 141.069 170.208C139.572 170.176 146.58 176.901 151.271 178.361C155.961 179.822 158.037 181.323 160.765 182.41C163.492 183.497 157.909 183.31 157.748 183.31C157.587 183.31 157.466 184.649 156.171 184.803C154.875 184.957 151.11 182.499 149.967 182.345C148.825 182.191 151.327 183.618 152.003 184.178C152.679 184.738 153.821 185.858 151.754 185.638C149.686 185.419 147.554 184.048 146.596 184.178C145.639 184.3 148.141 185.168 147.618 185.671C147.095 186.174 143.756 184.584 142.557 184.892C141.35 185.2 144.593 186.604 144.874 186.726C145.156 186.847 152.47 190.993 159.759 192.737C167.049 194.481 163.339 194.855 160.435 195.479C160.66 197.613 159.284 197.613 159.284 197.613C159.284 197.613 156.484 198.294 152.164 195.99C147.843 193.686 149.388 196.672 149.388 196.672C149.388 196.672 153.99 199.609 157.909 200.509C161.827 201.41 163.372 202.505 162.567 203.868C161.762 205.239 156.332 203.211 156.332 203.211C156.332 203.211 158.029 204.801 157.997 205.206C157.965 205.612 152.405 204.525 151.544 203.616C152.47 206.009 151.424 206.009 151.424 206.009C151.424 206.009 150.281 206.813 143.338 203.348C142.887 203.121 142.364 203.032 141.873 203.129C139.596 203.576 144.11 206.691 144.11 206.691C144.11 206.691 144.633 207.502 142.501 207.348C144.971 208.841 143.732 209.806 143.732 209.806C143.732 209.806 142.155 210.212 138.824 207.786C139.258 209.595 138.575 209.968 138.575 209.968C138.575 209.968 137.062 210.561 132.46 207.194C132.709 208.938 131.438 209.19 131.438 209.19C131.438 209.19 130.014 209.498 129.491 208.411C129.958 213.084 129.394 218 129.394 218L125.347 217.781L125.5 207.819C125.5 207.819 124.398 210.877 123.473 209.758C122.547 208.638 123.473 206.399 123.473 206.399C123.473 206.399 118.388 211.729 116.988 210.261C115.588 208.784 118.162 207.064 118.162 207.064C118.162 207.064 115.507 206.569 113.802 208.224C112.096 209.887 110.696 208.386 111.147 207.145C111.597 205.904 107.767 209.474 106.536 208.305C105.305 207.145 111.517 204.135 111.766 202.764C112.016 201.393 111.316 201.474 109.706 202.456C108.379 203.259 106.657 205.709 105.153 205.636C104.605 205.612 104.251 205.036 104.42 204.517C104.589 203.989 104.774 203.576 104.774 203.576C104.774 203.576 102.674 203.803 101.87 204.574C101.065 205.344 99.9549 204.427 101.604 202.643C103.254 200.858 95.5298 205.482 94.9183 205.028C94.2988 204.574 93.2931 204.679 93.808 203.616C94.3229 202.562 91.3621 204.16 91.3621 203.657C91.3621 203.154 94.0413 202.059 96.6079 200.249C99.1825 198.44 92.7781 201.166 92.5931 201.061C92.408 200.955 90.5334 201.085 91.169 199.755C91.8046 198.424 88.8035 200.566 88.0794 199.195C87.3553 197.824 91.7644 196.996 93.9448 196.372C96.1252 195.747 106.544 190.563 108.966 187.821C111.396 185.079 106.705 188.202 106.705 188.202C106.705 188.202 105.901 188.105 106.367 187.391C106.834 186.677 103.036 189.135 102.288 188.884C101.548 188.632 101.612 187.577 101.669 187.391C101.733 187.204 97.9918 189.946 97.0665 188.884C96.1412 187.829 96.97 186.985 96.97 186.985C96.97 186.985 94.0091 187.886 93.6068 186.985C93.2046 186.085 102.063 184.746 103.608 182.629C105.152 180.511 103.02 182.629 102.377 182.134C101.725 181.639 104.356 181.323 106.239 179.895C108.121 178.459 114.695 174.54 115.564 172.017C116.425 169.494 111.919 174.256 110.776 173.234C109.634 172.204 109.047 173.729 108.306 172.983C107.566 172.236 112.691 170.525 112.941 168.683C113.19 166.849 107.631 172.074 106.118 170.922C104.605 169.77 106.826 169.705 106.826 169.705C106.826 169.705 103.841 171.165 103.205 170.297C102.57 169.429 104.3 169.843 104.935 168.659C105.571 167.474 100.43 170.654 99.7297 169.283C99.0297 167.912 112.852 164.164 114.703 161.3C116.553 158.437 112.571 162.452 110.785 161.203C108.99 159.962 117.052 157.747 118.412 155.321C119.434 153.496 117.495 155.265 115.91 155.67C115.21 155.849 114.735 154.932 115.282 154.453C116.328 153.537 118.098 152.952 118.098 152.952C118.098 152.952 113.93 154.916 112.321 154.226C110.712 153.545 112.353 153.382 112.353 153.382C112.353 153.382 110.962 153.756 110.406 153.447C109.851 153.139 111.549 152.547 111.766 152.328C111.983 152.109 109.014 153.196 107.631 151.857C106.239 150.519 113.617 151.549 116.489 148.685C119.361 145.821 114.638 150.145 113.834 148.993C113.496 148.872 113.737 148.28 113.737 148.28C113.737 148.28 110.801 150.3 110.431 148.718C110.06 147.128 119.691 144.921 121.453 140.499C119.353 141.96 118.516 141.343 118.516 141.343C118.516 141.343 118.364 140.954 118.436 140.564C118.516 140.175 117.358 141.343 116.368 141.002C115.379 140.662 116.103 139.915 116.199 139.761C116.296 139.607 114.872 140.256 114.349 139.283C113.826 138.301 115.709 137.968 118.219 137.222C120.729 136.476 122.62 133.612 122.62 133.612C122.62 133.612 119.12 135.689 118.484 134.812C117.68 134.48 118.138 133.815 118.138 133.815C118.138 133.815 115.363 134.707 114.968 133.815C114.574 132.922 121.051 131.608 122.193 129.328C122.193 129.328 119.216 130.196 118.364 129.223C117.511 128.249 123.239 126.935 124.293 124.939C125.347 122.944 120.431 126.091 119.321 124.688C118.211 123.284 123.859 123.503 125.154 119.926C123.086 121.11 121.88 120.21 121.88 120.21C121.88 120.21 124.873 118.806 125.766 116.754C124.921 117.005 124.696 116.259 124.696 116.259C124.696 116.259 126.932 115.261 127.101 108L127.109 108.008Z" fill="#476715"/>
<path d="M484.5 173.92C468.64 179.5 438.84 149.29 422.75 154.17C413.84 156.87 404.88 159.51 395.86 161.79C388.82 163.58 381.64 164.84 374.39 165.14C372.902 172.344 347.5 145.5 300.31 180.93C285.854 181.433 263.5 181.33 245.79 192.4C225 194 209.5 173.92 175.5 172.98C170.62 171.98 138.04 182.84 138.04 182.84C138.04 182.84 137.75 181.37 136.89 180.08C136.03 178.79 137.18 178.65 137.18 178.65L139.62 177.36C139.62 177.36 139.05 175.07 138.62 173.92C138.19 172.77 139.62 173.63 139.91 173.2C140.2 172.77 140.05 170.48 140.05 170.48L141.63 166.76C141.63 166.76 136.46 172.06 134.17 173.64C131.87 175.22 131.01 178.8 130.01 181.33C129.01 183.86 119.82 182.76 118.48 181.33C117.64 180.43 118.07 179.24 118.24 178.54C116.38 177.24 114.99 174.92 113.96 172.98C109.52 164.61 105.38 156.86 101.1 148.41C94.761 135.885 97.1986 125.625 83.15 123.36C55.6367 118.957 28.1032 114.644 0 113L0.149998 117.62L0 244.7H484.5C484.5 180.057 487 238.92 484.5 173.92ZM462.85 142.71C462.77 142.92 462.71 143.04 462.69 143.04C462.65 143.04 462.72 142.92 462.85 142.71ZM45.69 135.74C45.8794 135.74 45.8338 135.165 45.69 135.74Z" fill="#476715"/>
</g>
</svg>
