<svg width="472" height="258" viewBox="0 0 472 258" fill="none" xmlns="http://www.w3.org/2000/svg">
<mask id="mask0_14_286" style="mask-type:alpha" maskUnits="userSpaceOnUse" x="0" y="0" width="472" height="258">
<path d="M0 0L472 -2.6734e-08L472 258L1.46131e-08 258L0 0Z" fill="#D9D9D9"/>
</mask>
<g mask="url(#mask0_14_286)">
<path d="M345.26 130.63L339.09 141.11C339.09 141.11 281.9 146.72 277.96 146.74C274.02 146.76 262.3 148.94 247.4 149.89C232.5 150.85 218.75 148.46 218.75 148.46L216.84 153.81C216.84 153.81 216.36 148.75 214.26 147.7C212.16 146.65 181.21 146.74 181.21 146.74C181.21 146.74 179.59 149.22 179.59 150.18C179.59 151.14 178.35 155.21 178.35 155.21H176.82L174.79 152.38C174.79 152.38 173.67 149.32 172.24 149.42C170.81 149.52 167.75 153.62 167.85 154C167.95 154.38 166.04 151.13 166.04 151.13L162.63 150.16C143.17 151.38 127.45 129.99 127.45 129.99L141.45 129.81L141.86 129.27L0 130.63L-7 384L485 392L471.5 130.63L348.27 130.02L345.27 130.61L345.26 130.63Z" fill="#E0F0F1"/>
<path d="M346.22 129H207.09L141.43 129.82L127.43 130C127.43 130 143.15 151.39 162.61 150.17L166.02 151.14C166.02 151.14 167.93 154.39 167.83 154.01C167.73 153.63 170.79 149.52 172.22 149.43C173.65 149.33 174.77 152.39 174.77 152.39L176.8 155.22H178.33C178.33 155.22 179.57 151.14 179.57 150.19C179.57 149.24 181.19 146.75 181.19 146.75C181.19 146.75 212.14 146.65 214.24 147.71C216.34 148.76 216.82 153.82 216.82 153.82L218.73 148.47C218.73 148.47 232.48 150.86 247.38 149.9C262.28 148.94 274 146.77 277.94 146.75C281.88 146.73 339.07 141.12 339.07 141.12L345.24 130.64L346.2 129.01L346.22 129Z" fill="#C3E6FA"/>
</g>
</svg>
