<svg width="473" height="258" viewBox="0 0 473 258" fill="none" xmlns="http://www.w3.org/2000/svg">
<mask id="mask0_14_299" style="mask-type:alpha" maskUnits="userSpaceOnUse" x="0" y="0" width="473" height="258">
<path d="M0 0L473 -2.67906e-08L473 258L1.46131e-08 258L0 0Z" fill="#D9D9D9"/>
</mask>
<g mask="url(#mask0_14_299)">
<path d="M292.713 106.88V110.53C292.713 110.53 295.293 109.17 294.573 110.67C293.853 112.17 292.213 116.19 292.213 116.19C292.213 116.19 294.573 112.54 295.293 112.75C296.013 112.96 295.223 114.4 294.503 116.9C293.783 119.41 295.723 118.69 296.293 119.26C296.863 119.83 296.293 122.15 296.293 122.15C296.293 122.15 315.853 121.69 317.923 120.41C320.003 119.12 341.443 121.14 341.653 121C345.825 118.219 336.16 117.831 335.653 112C327.003 110.1 303.753 106.65 303.753 106.65C303.753 106.65 303.373 104.55 303.083 103.78C302.793 103.02 301.933 103.78 301.933 103.78V97.76L300.693 103.39L300.313 102.63L298.783 106.64C298.783 106.64 295.993 106.59 292.363 106.51C292.563 106.59 292.723 106.7 292.723 106.86L292.713 106.88Z" fill="#67A2B3"/>
<path d="M279.763 106.24C277.543 106.18 275.953 106.13 275.663 106.09C274.513 105.95 273.373 105.59 273.373 105.59C273.373 105.59 272.373 99.72 271.873 99.21C271.373 98.71 270.153 104.44 270.153 104.44L269.513 104.81L267.863 107.02L263.423 99.43L257.693 105.45C257.693 105.45 256.833 105.45 256.403 105.38C255.973 105.31 255.183 105.95 255.183 105.95V98.72L250.953 106.31L249.663 100.58L248.013 105.67L247.513 105.31L246.513 106.67L244.503 108.46L241.203 96.5699L240.203 109.25L236.263 101.58L234.493 107.94C234.493 107.94 228.773 108.35 218.383 109.37L216.743 112.62C217.413 112.62 218.073 112.62 218.743 112.62L219.073 112.54L219.013 112.62C219.603 112.62 220.193 112.62 220.783 112.62C222.633 112.62 222.623 115.48 220.783 115.49C220.463 115.49 220.153 115.49 219.833 115.49V115.84C219.833 115.84 229.623 117.27 233.733 118.04C237.843 118.8 251.493 118.14 259.233 120.33C266.653 123.5 297.153 123.5 297.153 123.5C294.77 120.816 299.279 118.162 295.653 106.31L279.763 106.24Z" fill="#67A2B3"/>
<path d="M77.6533 105.83C57.1533 112.33 13 132.775 9.5 131C15.8936 134.243 219.859 130.244 228.5 131L147.693 115.081C199.954 113.497 88.1533 101.83 77.6533 105.83Z" fill="#67A2B3"/>
<path d="M431.153 117.081C445.5 117.081 471.5 133.006 479.5 132C473.106 135.243 234.141 131.244 225.5 132L212.5 123C160.239 121.416 420.653 113.081 431.153 117.081Z" fill="#67A2B3"/>
<path d="M316.993 120.74C312.553 121.78 296.293 122.16 296.293 122.16C296.293 122.16 296.293 122.12 296.313 122.06C293.663 122.17 291.013 122.28 288.363 122.23C284.143 122.16 279.923 121.86 275.723 122.31C275.393 122.35 275.123 122.28 274.913 122.15C271.233 122.11 264.543 121.82 259.223 120.31C251.483 118.11 237.833 118.78 233.723 118.02C229.613 117.26 219.823 115.82 219.823 115.82V115.47C215.503 115.47 211.203 115.44 206.933 114.8C206.613 114.86 206.153 114.85 205.493 114.75C203.343 114.4 195.743 113.34 189.773 112.51C185.513 111.92 182.093 111.45 182.093 111.45L182.903 110.12C180.683 112.12 177.233 113.11 174.723 114.29C172.153 115.5 169.753 115.84 166.933 115.93C164.203 116.02 161.423 115.95 158.793 115.18C158.343 115.05 157.903 114.29 157.903 114.43L33 122.31L12 132H149.5L206.933 131L335.5 132.5H343.063H367H474.5L446.5 120.74L317.003 120.72L316.993 120.74Z" fill="#86C3C3"/>
<path d="M361.653 117.18C360.383 116.88 359.103 116.16 359.053 116.14C359.003 116.12 358.443 115.88 358.653 115.82C358.863 115.77 359.443 116.04 359.533 115.95C359.623 115.86 359.193 115.71 359.353 115.69C359.523 115.67 359.893 115.91 360.253 115.94C360.613 115.98 360.413 115.78 360.293 115.69C360.173 115.59 359.733 115.35 359.933 115.37C360.133 115.4 360.793 115.82 361.013 115.8C361.243 115.77 361.263 115.54 361.283 115.54C361.303 115.54 362.283 115.57 361.813 115.38C361.333 115.19 360.973 114.93 360.153 114.68C359.333 114.43 358.113 113.26 358.373 113.27C358.633 113.27 359.583 113.35 359.593 113.27C359.593 113.19 359.253 113.04 359.263 113.04C359.273 113.04 359.853 113.07 359.823 112.96C359.793 112.85 359.383 112.92 359.283 112.71C359.553 112.79 360.833 112.51 360.463 112.52C360.173 112.52 358.673 111.7 358.193 111.44C358.433 111.53 358.713 111.52 358.713 111.52C358.713 111.52 358.583 111.32 358.633 111.36C358.693 111.41 359.033 111.4 359.023 111.36C359.013 111.32 358.883 111.2 358.883 111.2C358.883 111.2 360.323 111.19 359.713 111.1C359.103 111.01 358.173 110.41 358.303 110.47C358.443 110.52 358.943 110.34 358.663 110.36C358.393 110.38 357.913 110.18 357.313 109.58C357.713 109.76 357.943 109.63 357.943 109.63C357.943 109.63 357.863 109.55 357.853 109.46C358.203 109.58 358.393 109.42 358.393 109.42C358.393 109.42 358.153 109.36 358.063 109.15C359.013 109.35 358.943 109 358.943 109C358.943 109 357.663 108.63 357.633 108.41C357.863 108.43 357.883 108.32 357.883 108.32C357.883 108.32 357.183 107.97 356.793 107.31C357.153 107.48 357.523 107.44 357.523 107.44C357.523 107.44 357.273 107.23 357.493 107.28C357.713 107.33 358.083 107.16 357.943 107.16C357.803 107.16 356.513 106.3 356.743 106.42C356.973 106.54 357.243 106.46 357.243 106.46C357.243 106.46 357.153 106.4 357.123 106.3C357.403 106.41 357.873 106.2 357.633 106.21C357.393 106.21 356.553 105.66 356.683 105.74C356.813 105.82 357.023 105.77 357.023 105.77L356.973 105.7C356.973 105.7 357.493 105.7 357.283 105.65C357.073 105.6 356.143 104.8 356.353 104.91C356.553 105.02 356.683 104.91 356.683 104.91C356.683 104.91 356.023 104.49 356.343 104.62C356.663 104.76 356.993 104.51 356.813 104.48C356.633 104.45 356.283 104.28 356.283 104.28C356.283 104.28 356.643 104.3 356.473 104.2C356.303 104.1 356.083 103.76 356.083 103.76C356.083 103.76 356.463 103.8 356.273 103.66C356.083 103.52 355.943 102.5 355.943 102.5C355.913 103.76 355.523 103.93 355.523 103.93C355.523 103.93 355.563 104.06 355.713 104.02C355.553 104.38 355.033 104.62 355.033 104.62C355.033 104.62 355.243 104.78 355.603 104.57C355.373 105.19 354.393 105.15 354.583 105.39C354.773 105.63 355.633 105.09 355.453 105.43C355.273 105.77 354.273 106 354.423 106.17C354.573 106.34 355.093 106.19 355.093 106.19C354.923 106.52 354.083 106.74 353.873 106.89C353.223 106.72 352.403 106.19 352.543 106.25C352.693 106.31 353.233 106.11 352.933 106.13C352.633 106.15 352.113 105.94 351.473 105.28C351.903 105.47 352.153 105.33 352.153 105.33C352.153 105.33 352.063 105.24 352.053 105.15C352.433 105.28 352.633 105.1 352.633 105.1C352.633 105.1 352.373 105.04 352.273 104.8C353.303 105.02 353.223 104.64 353.223 104.64C353.223 104.64 351.833 104.24 351.803 104C352.053 104.02 352.073 103.91 352.073 103.91C352.073 103.91 351.313 103.53 350.883 102.82C351.273 103 351.673 102.96 351.673 102.96C351.673 102.96 351.403 102.73 351.643 102.79C351.883 102.85 352.283 102.66 352.123 102.66C351.963 102.66 350.573 101.73 350.823 101.86C351.073 101.99 351.363 101.9 351.363 101.9C351.363 101.9 351.273 101.84 351.233 101.73C351.533 101.85 352.043 101.62 351.783 101.63C351.523 101.63 350.613 101.04 350.753 101.12C350.893 101.21 351.123 101.15 351.123 101.15L351.073 101.07C351.073 101.07 351.633 101.07 351.403 101.02C351.173 100.97 350.173 100.1 350.393 100.22C350.613 100.34 350.753 100.22 350.753 100.22C350.753 100.22 350.033 99.76 350.383 99.91C350.723 100.06 351.093 99.79 350.893 99.76C350.703 99.73 350.313 99.54 350.313 99.54C350.313 99.54 350.703 99.56 350.513 99.45C350.323 99.34 350.093 98.98 350.093 98.98C350.093 98.98 350.503 99.03 350.303 98.87C350.103 98.71 349.943 97.61 349.943 97.61C349.913 98.97 349.483 99.16 349.483 99.16C349.483 99.16 349.523 99.3 349.683 99.25C349.513 99.64 348.943 99.9 348.943 99.9C348.943 99.9 349.173 100.07 349.563 99.85C349.313 100.52 348.253 100.48 348.463 100.74C348.673 101 349.603 100.41 349.403 100.79C349.203 101.16 348.123 101.41 348.283 101.59C348.443 101.77 349.003 101.61 349.003 101.61C348.783 102.04 347.563 102.28 347.633 102.45C347.703 102.62 348.233 102.45 348.233 102.45C348.233 102.45 348.143 102.57 348.303 102.64C348.423 102.8 349.083 102.41 349.083 102.41C349.083 102.41 348.723 102.95 348.253 103.09C347.783 103.23 347.423 103.29 347.523 103.48C347.623 103.66 347.893 103.54 347.873 103.57C347.853 103.6 347.723 103.74 347.903 103.8C348.093 103.86 348.313 103.65 348.293 103.72C348.283 103.79 348.303 103.87 348.303 103.87C348.303 103.87 348.463 103.99 348.853 103.71C348.523 104.54 346.703 104.95 346.773 105.25C346.843 105.55 347.393 105.17 347.393 105.17C347.393 105.17 347.343 105.28 347.413 105.3C347.563 105.52 348.463 104.7 347.913 105.24C347.373 105.78 345.973 105.58 346.233 105.84C346.493 106.09 347.053 105.89 347.013 105.93C346.973 105.97 346.653 106.08 346.753 106.14C346.823 106.18 346.943 106.16 347.033 106.14C346.973 106.16 346.933 106.2 347.113 106.28C347.303 106.36 347.693 106.24 347.953 106.14C347.853 106.19 347.753 106.25 347.673 106.32C347.573 106.41 347.663 106.58 347.793 106.55C348.093 106.47 348.463 106.14 348.263 106.49C348.003 106.95 346.483 107.36 346.823 107.59C347.163 107.82 347.913 107.07 347.563 107.61C347.303 108.01 345.803 108.5 345.103 108.83C344.963 108.73 344.813 108.6 344.653 108.44C345.013 108.6 345.223 108.48 345.223 108.48C345.223 108.48 345.153 108.41 345.143 108.33C345.463 108.44 345.623 108.29 345.623 108.29C345.623 108.29 345.403 108.24 345.323 108.04C346.183 108.22 346.123 107.91 346.123 107.91C346.123 107.91 344.963 107.57 344.933 107.37C345.143 107.38 345.163 107.29 345.163 107.29C345.163 107.29 344.533 106.97 344.173 106.38C344.493 106.53 344.833 106.5 344.833 106.5C344.833 106.5 344.613 106.31 344.813 106.36C345.013 106.41 345.353 106.25 345.223 106.25C345.093 106.25 343.933 105.47 344.143 105.58C344.353 105.69 344.593 105.61 344.593 105.61C344.593 105.61 344.513 105.56 344.483 105.47C344.733 105.57 345.163 105.38 344.943 105.39C344.733 105.39 343.963 104.9 344.083 104.97C344.203 105.04 344.393 105 344.393 105L344.343 104.93C344.343 104.93 344.813 104.93 344.623 104.88C344.433 104.83 343.593 104.11 343.773 104.21C343.953 104.31 344.073 104.21 344.073 104.21C344.073 104.21 343.473 103.83 343.763 103.95C344.053 104.07 344.353 103.85 344.193 103.83C344.033 103.8 343.713 103.65 343.713 103.65C343.713 103.65 344.043 103.67 343.883 103.58C343.723 103.49 343.533 103.18 343.533 103.18C343.533 103.18 343.873 103.22 343.713 103.09C343.543 102.96 343.413 102.04 343.413 102.04C343.383 103.18 343.033 103.34 343.033 103.34C343.033 103.34 343.073 103.46 343.203 103.42C343.063 103.74 342.583 103.96 342.583 103.96C342.583 103.96 342.773 104.1 343.103 103.92C342.893 104.48 342.003 104.45 342.183 104.67C342.363 104.89 343.133 104.4 342.973 104.71C342.803 105.02 341.903 105.23 342.033 105.38C342.163 105.53 342.643 105.4 342.643 105.4C342.463 105.76 341.443 105.96 341.503 106.1C341.563 106.24 342.003 106.1 342.003 106.1C342.003 106.1 341.933 106.2 342.063 106.26C342.163 106.4 342.713 106.07 342.713 106.07C342.713 106.07 342.413 106.52 342.013 106.64C341.613 106.76 341.323 106.81 341.403 106.96C341.483 107.11 341.713 107.01 341.693 107.04C341.683 107.06 341.563 107.18 341.723 107.24C341.883 107.29 342.063 107.11 342.053 107.17C342.043 107.23 342.063 107.29 342.063 107.29C342.063 107.29 342.193 107.39 342.523 107.16C342.243 107.85 340.723 108.2 340.783 108.45C340.843 108.7 341.303 108.38 341.303 108.38C341.303 108.38 341.263 108.47 341.313 108.49C341.443 108.67 342.183 107.99 341.733 108.44C341.283 108.89 340.113 108.73 340.333 108.94C340.553 109.15 341.023 108.98 340.983 109.01C340.953 109.04 340.683 109.14 340.773 109.19C340.823 109.22 340.933 109.21 341.003 109.19C340.953 109.21 340.923 109.24 341.073 109.31C341.233 109.38 341.563 109.28 341.783 109.2C341.703 109.24 341.613 109.29 341.543 109.35C341.453 109.42 341.533 109.57 341.643 109.54C341.893 109.48 342.203 109.2 342.043 109.49C341.833 109.87 340.553 110.22 340.833 110.41C341.113 110.61 341.743 109.98 341.453 110.42C341.323 110.62 340.843 110.84 340.343 111.04C339.893 110.86 339.473 110.58 339.563 110.62C339.683 110.67 340.143 110.51 339.893 110.52C339.643 110.54 339.213 110.36 338.673 109.81C339.033 109.97 339.243 109.85 339.243 109.85C339.243 109.85 339.173 109.78 339.163 109.7C339.483 109.81 339.643 109.66 339.643 109.66C339.643 109.66 339.423 109.61 339.343 109.41C340.203 109.59 340.143 109.28 340.143 109.28C340.143 109.28 338.983 108.94 338.953 108.74C339.163 108.75 339.183 108.66 339.183 108.66C339.183 108.66 338.553 108.34 338.193 107.75C338.513 107.9 338.853 107.87 338.853 107.87C338.853 107.87 338.633 107.68 338.833 107.73C339.033 107.78 339.373 107.62 339.243 107.62C339.113 107.62 337.953 106.84 338.163 106.95C338.373 107.06 338.613 106.98 338.613 106.98C338.613 106.98 338.533 106.93 338.503 106.84C338.753 106.94 339.183 106.75 338.963 106.76C338.753 106.76 337.983 106.27 338.103 106.34C338.223 106.41 338.413 106.37 338.413 106.37L338.363 106.3C338.363 106.3 338.833 106.3 338.643 106.25C338.453 106.2 337.613 105.48 337.793 105.58C337.973 105.68 338.093 105.58 338.093 105.58C338.093 105.58 337.493 105.2 337.783 105.32C338.073 105.44 338.373 105.22 338.213 105.2C338.053 105.17 337.733 105.02 337.733 105.02C337.733 105.02 338.063 105.04 337.903 104.95C337.743 104.86 337.553 104.55 337.553 104.55C337.553 104.55 337.903 104.59 337.733 104.46C337.563 104.33 337.433 103.41 337.433 103.41C337.403 104.55 337.053 104.71 337.053 104.71C337.053 104.71 337.093 104.83 337.223 104.79C337.083 105.11 336.603 105.33 336.603 105.33C336.603 105.33 336.793 105.47 337.123 105.29C336.913 105.85 336.023 105.82 336.203 106.04C336.383 106.26 337.153 105.77 336.993 106.08C336.823 106.39 335.923 106.6 336.053 106.75C336.183 106.9 336.663 106.77 336.663 106.77C336.483 107.13 335.463 107.33 335.523 107.47C335.583 107.61 336.023 107.47 336.023 107.47C336.023 107.47 335.953 107.57 336.083 107.63C336.183 107.77 336.733 107.44 336.733 107.44C336.733 107.44 336.433 107.89 336.033 108.01C335.633 108.13 335.343 108.18 335.423 108.33C335.503 108.48 335.733 108.38 335.713 108.41C335.703 108.43 335.583 108.55 335.743 108.61C335.903 108.66 336.083 108.48 336.073 108.54C336.063 108.6 336.083 108.66 336.083 108.66C336.083 108.66 336.213 108.76 336.543 108.53C336.263 109.22 334.743 109.57 334.803 109.82C334.863 110.07 335.323 109.75 335.323 109.75C335.323 109.75 335.283 109.84 335.333 109.86C335.463 110.04 336.203 109.36 335.753 109.81C335.303 110.26 334.133 110.1 334.353 110.31C334.573 110.52 335.043 110.35 335.003 110.38C334.973 110.41 334.703 110.51 334.793 110.56C334.843 110.59 334.953 110.58 335.023 110.56C334.973 110.58 334.943 110.61 335.093 110.68C335.253 110.75 335.583 110.65 335.803 110.57C335.723 110.61 335.633 110.66 335.563 110.72C335.473 110.8 335.553 110.94 335.663 110.91C335.913 110.85 336.223 110.57 336.063 110.86C335.853 111.24 334.573 111.59 334.853 111.78C335.133 111.98 335.763 111.35 335.473 111.79C335.183 112.24 332.993 112.83 333.103 113.04C333.213 113.25 334.023 112.76 333.923 112.94C333.823 113.13 333.553 113.06 333.653 113.2C333.713 113.28 333.893 113.24 334.033 113.19C334.033 113.22 334.053 113.25 334.113 113.3C334.353 113.48 335.233 112.66 335.193 112.95C335.153 113.24 334.343 113.51 334.463 113.62C334.583 113.74 334.673 113.5 334.853 113.66C335.033 113.82 335.743 113.07 335.613 113.47C335.473 113.87 334.433 114.48 334.143 114.71C333.843 114.93 333.433 114.98 333.533 115.06C333.633 115.14 333.973 114.81 333.733 115.14C333.493 115.47 332.083 115.68 332.153 115.82C332.213 115.96 332.683 115.82 332.683 115.82C332.683 115.82 332.553 115.95 332.693 116.12C332.843 116.29 333.433 115.86 333.423 115.89C333.423 115.92 333.403 116.09 333.523 116.12C333.643 116.16 334.243 115.77 334.163 115.89C334.093 116 334.213 116.02 334.213 116.02C334.213 116.02 334.953 115.53 334.573 115.96C334.193 116.39 332.543 117.2 332.193 117.3C331.843 117.4 331.153 117.53 331.263 117.74C331.373 117.95 331.853 117.62 331.753 117.83C331.653 118.04 331.953 118.02 331.973 118.03C332.003 118.05 333.013 117.62 332.603 117.9C332.193 118.18 331.773 118.36 331.773 118.43C331.773 118.5 332.243 118.26 332.163 118.43C332.083 118.6 332.243 118.58 332.343 118.65C332.443 118.72 333.663 118 333.403 118.28C333.143 118.56 333.323 118.7 333.443 118.58C333.573 118.46 333.903 118.42 333.903 118.42C333.903 118.42 333.873 118.48 333.843 118.57C333.813 118.65 333.873 118.74 333.963 118.75C334.203 118.76 334.473 118.38 334.683 118.25C334.933 118.1 335.043 118.08 335.013 118.3C334.973 118.51 333.993 118.99 334.183 119.17C334.383 119.35 334.983 118.79 334.913 118.99C334.843 119.19 335.063 119.42 335.333 119.16C335.603 118.9 336.023 118.98 336.023 118.98C336.023 118.98 335.613 119.25 335.833 119.48C336.053 119.71 336.863 118.87 336.863 118.87C336.863 118.87 336.713 119.22 336.863 119.4C337.013 119.58 337.183 119.1 337.183 119.1V119.83L336.053 120.1L334.023 122.09C336.413 125.43 357.523 121.6 357.523 121.6L357.333 120.02C357.783 120.27 357.953 120.21 357.953 120.21C357.953 120.21 358.073 120.15 357.993 119.83C358.573 120.25 358.853 120.18 358.853 120.18C358.853 120.18 359.073 120.01 358.633 119.75C359.003 119.78 358.913 119.64 358.913 119.64C358.913 119.64 358.123 119.1 358.523 119.02C358.613 119 358.703 119.02 358.783 119.06C359.993 119.66 360.193 119.52 360.193 119.52C360.193 119.52 360.373 119.52 360.213 119.11C360.363 119.27 361.333 119.46 361.343 119.38C361.353 119.3 361.053 119.04 361.053 119.04C361.053 119.04 362.003 119.39 362.143 119.15C362.283 118.91 362.013 118.72 361.333 118.57C360.653 118.41 359.843 117.91 359.843 117.91C359.843 117.91 359.573 117.39 360.333 117.79C361.083 118.19 361.573 118.07 361.573 118.07C361.573 118.07 361.813 118.07 361.773 117.7C362.283 117.59 362.923 117.53 361.653 117.23V117.18ZM340.453 112.95C340.453 112.95 340.583 112.95 340.703 112.95C340.663 112.98 340.633 113 340.593 113.03C340.513 112.99 340.443 112.95 340.443 112.95H340.453ZM352.603 109.3C352.733 109.3 353.013 109.32 353.273 109.33C353.113 109.42 353.023 109.49 353.043 109.56C353.103 109.83 353.623 109.48 353.623 109.48C353.623 109.48 353.583 109.58 353.643 109.6C353.783 109.8 354.603 109.05 354.103 109.55C353.863 109.79 353.443 109.87 353.093 109.92C352.713 109.59 352.473 109.29 352.603 109.29V109.3ZM353.563 109.05C353.563 109.05 353.693 109.05 353.833 109.05C353.783 109.07 353.743 109.09 353.703 109.12C353.633 109.08 353.563 109.05 353.573 109.05H353.563ZM354.453 108.29C354.453 108.29 354.603 108.4 354.963 108.14C354.913 108.26 354.833 108.36 354.733 108.47C354.593 108.43 354.393 108.35 354.163 108.24C354.303 108.23 354.443 108.1 354.433 108.16C354.423 108.23 354.443 108.29 354.443 108.29H354.453ZM339.943 111.56C339.943 111.56 339.933 111.54 339.923 111.53C339.943 111.53 339.943 111.53 339.943 111.56ZM346.323 112.55C346.553 112.41 346.843 112.27 346.533 112.61C346.513 112.63 346.493 112.65 346.473 112.67C346.423 112.63 346.363 112.59 346.313 112.55H346.323ZM354.433 110.71C354.433 110.71 354.403 110.76 354.383 110.78C354.323 110.75 354.253 110.73 354.193 110.69C354.403 110.59 354.573 110.46 354.433 110.71ZM353.913 110.54C353.913 110.54 353.863 110.51 353.843 110.5C353.953 110.47 354.063 110.43 354.143 110.4C354.063 110.44 353.983 110.49 353.913 110.54ZM354.573 108.61C354.433 108.72 354.263 108.82 354.093 108.92C353.953 108.88 353.663 108.88 353.583 108.71C353.743 108.76 354.233 108.69 354.573 108.62V108.61ZM352.883 112.06C352.973 112.04 353.123 112.06 353.273 112.11C353.183 112.15 353.093 112.2 352.993 112.24C352.863 112.16 352.773 112.09 352.883 112.06ZM340.873 112.83C340.753 112.8 340.523 112.8 340.463 112.66C340.583 112.69 340.903 112.66 341.173 112.61C341.083 112.69 340.973 112.76 340.873 112.84V112.83ZM340.143 113.33C340.053 113.4 339.943 113.45 339.843 113.5C339.643 113.3 339.543 113.16 339.633 113.16C339.763 113.16 340.083 113.18 340.343 113.19C340.263 113.25 340.183 113.3 340.143 113.33ZM339.933 111.57C339.903 111.63 339.853 111.66 339.813 111.68C339.763 111.65 339.713 111.63 339.673 111.6C339.713 111.59 339.753 111.57 339.783 111.56C339.853 111.56 339.913 111.56 339.933 111.56V111.57ZM337.813 119.15C337.853 119.24 337.933 119.27 337.993 119.27L337.833 119.41C337.833 119.32 337.823 119.23 337.813 119.14V119.15ZM338.283 118.96C338.283 118.96 338.313 118.98 338.323 118.99L338.283 119.02C338.283 119.02 338.283 118.98 338.283 118.96ZM352.973 107.4C352.973 107.4 352.823 107.18 352.893 107.23C352.953 107.28 353.333 107.28 353.323 107.23C353.313 107.18 353.173 107.06 353.173 107.06C353.173 107.06 353.613 107.06 353.933 107.04C354.093 107.08 354.393 106.98 354.393 106.98C354.393 106.98 354.313 107.1 354.453 107.15C354.563 107.3 355.173 106.94 355.173 106.94C355.173 106.94 354.843 107.44 354.403 107.57C353.963 107.7 353.633 107.76 353.723 107.93C353.813 108.1 354.063 107.99 354.043 108.01C354.033 108.03 353.973 108.09 353.983 108.15C353.403 107.87 352.703 107.48 352.393 107.32C352.653 107.42 352.963 107.41 352.963 107.41L352.973 107.4ZM347.783 109.64C347.673 109.96 347.073 110.4 346.583 110.73C346.153 110.51 345.703 110.27 345.483 110.15C345.703 110.23 345.953 110.22 345.953 110.22C345.953 110.22 345.833 110.04 345.883 110.08C345.933 110.12 346.253 110.12 346.243 110.08C346.243 110.04 346.123 109.94 346.123 109.94C346.123 109.94 346.803 109.94 346.973 109.9C347.273 109.88 347.923 109.23 347.783 109.65V109.64ZM346.713 109.8C346.713 109.8 346.783 109.8 346.823 109.83C346.793 109.83 346.753 109.81 346.713 109.8ZM347.293 109.01C347.253 109.28 346.633 109.54 346.453 109.71C346.173 109.6 345.883 109.45 345.733 109.35C345.793 109.34 345.853 109.32 345.903 109.3C345.903 109.33 345.923 109.38 346.003 109.43C346.293 109.65 347.343 108.67 347.293 109.01ZM345.783 109.01C345.753 109.06 345.713 109.1 345.673 109.12C345.613 109.1 345.553 109.08 345.483 109.04C345.683 108.97 345.833 108.91 345.783 109V109.01ZM341.633 112.09C341.593 112.19 341.503 112.31 341.373 112.43C341.283 112.4 341.163 112.35 341.023 112.29C341.293 112.2 341.743 111.77 341.633 112.09ZM341.213 111.57C341.183 111.76 340.803 111.95 340.603 112.09C340.503 112.04 340.403 111.99 340.313 111.94C340.653 111.86 341.253 111.34 341.223 111.57H341.213Z" fill="#86C3C3"/>
<path d="M206.373 98.65C206.373 98.65 206.733 100.05 206.873 100.15C207.013 100.25 206.623 100.18 206.623 100.18C206.623 100.18 207.333 101.16 207.353 101.41C207.013 101.48 206.773 101.45 206.773 101.45C206.773 101.45 207.043 101.84 207.733 102.38C207.533 102.45 207.053 102.34 207.053 102.34C207.053 102.34 207.023 102.47 207.173 102.58C207.323 102.69 207.923 103.18 207.983 103.35C207.813 103.41 207.573 103.28 207.543 103.38C207.523 103.47 208.283 104 208.393 104.26C208.083 104.32 207.253 103.81 207.133 103.92C207.013 104.03 207.713 104.5 208.073 104.67C208.433 104.84 209.143 105.34 209.193 105.42C209.243 105.5 208.413 105.32 208.103 105.18C208.023 105.39 208.553 105.72 208.553 105.72C208.553 105.72 208.263 105.77 207.493 105.5C207.403 105.72 208.133 106.09 208.133 106.09C208.133 106.09 208.803 106.42 208.913 106.68C208.573 106.7 208.283 106.76 208.283 106.76C208.283 106.76 208.473 107.15 209.123 107.46C209.763 107.77 210.353 108.45 210.403 108.62C209.443 108.39 208.913 108.45 208.913 108.45C208.913 108.45 209.103 108.78 209.713 109.01C209.773 109.03 209.823 109.06 209.883 109.09C210.003 109.16 210.103 109.23 210.163 109.29C210.253 109.36 210.193 109.5 210.073 109.5C209.773 109.5 209.283 109.48 208.863 109.42C208.863 109.42 209.303 109.78 209.843 109.92C210.393 110.06 211.103 110.42 211.273 110.86C210.603 110.62 209.683 110.47 209.683 110.47C209.683 110.47 210.913 110.99 211.043 111.28C210.313 111.23 209.843 111.36 209.843 111.36C209.843 111.36 211.523 112.04 211.603 112.56C210.463 112.06 210.063 112.2 210.063 112.2C210.063 112.2 211.873 112.96 212.033 113.31C210.843 113.2 210.433 113.25 210.433 113.25C210.433 113.25 210.823 113.66 211.583 113.86C212.103 114 212.313 114.28 212.393 114.45C212.423 114.52 212.373 114.59 212.293 114.59C212.083 114.59 211.663 114.55 211.043 114.41C211.313 114.66 211.313 114.9 211.293 115.01C211.293 115.05 211.243 115.09 211.203 115.1C211.063 115.13 210.723 115.16 210.293 115.04C210.293 115.04 211.223 115.86 211.313 116.22C210.723 116.29 209.763 116.18 209.763 116.18C209.763 116.18 209.863 116.62 209.663 116.86C209.073 116.86 208.663 116.47 208.523 115.99C208.373 115.51 208.013 115.72 207.993 115.89C207.973 116.06 208.023 116.16 207.923 116.27C207.823 116.37 207.503 116.05 207.523 115.86C207.363 116.15 207.233 116.4 206.953 116.48C206.973 117.07 206.973 117.72 206.973 117.72H206.203V116.21C206.203 116.21 205.673 116.95 205.283 117.08C204.883 117.21 205.393 116.06 205.393 116.06C205.393 116.06 204.013 116.97 203.183 116.82C203.363 116.34 203.853 115.89 203.853 115.89C203.853 115.89 203.103 116.12 202.683 116.11C202.273 116.09 203.573 115.32 203.573 115.32C203.573 115.32 203.393 115.09 202.263 115.6C201.133 116.1 202.693 114.83 202.693 114.83C202.693 114.83 202.393 114.71 201.993 114.81C201.593 114.91 200.763 115.2 200.853 114.99C200.943 114.79 201.373 114.25 202.523 114.1C202.583 114.1 202.643 114.08 202.703 114.06C203.283 113.87 203.083 113.7 203.083 113.7C203.083 113.7 202.463 113.7 202.193 113.87C201.923 114.04 201.943 113.82 202.153 113.57C202.363 113.32 201.023 113.69 201.023 113.69C201.023 113.69 201.663 112.66 204.013 112.09C204.283 112.01 203.903 111.68 203.333 111.99C202.753 112.3 202.933 111.85 203.423 111.58C203.373 111.34 202.423 111.7 202.213 111.85C202.003 111.99 201.383 111.85 201.383 111.85C201.383 111.85 202.413 110.68 203.593 110.59C203.583 110.43 203.273 110.44 203.273 110.44C203.273 110.44 203.213 110.21 204.183 109.86C205.153 109.51 203.803 109.52 203.433 109.71C203.063 109.89 202.833 109.71 202.833 109.71C202.833 109.71 203.313 109.27 203.803 109.22C203.483 109.09 202.793 109.33 202.563 109.42C202.503 109.44 202.453 109.46 202.393 109.46C202.253 109.48 201.993 109.5 201.963 109.45C201.923 109.37 203.103 108.49 204.143 108.04C203.953 107.93 203.613 108.02 203.613 108.02C203.613 108.02 203.843 107.64 205.073 107.2C205.193 107.16 205.293 107.1 205.383 107.02C205.713 106.73 204.963 106.92 204.703 107C204.643 107.02 204.573 107.02 204.513 107.02L204.253 107C204.253 107 204.533 106.96 204.643 106.69C204.103 106.79 203.763 106.67 203.763 106.67C203.763 106.67 205.183 106.25 205.373 105.87C205.563 105.49 204.003 106.04 203.563 105.95C203.993 105.45 205.393 104.87 205.613 104.8C205.833 104.73 205.133 104.73 205.133 104.73C205.133 104.73 205.333 104.47 205.743 104.2C205.593 104.03 205.083 104.36 205.083 104.36C205.083 104.36 205.023 104.27 205.173 104.12C205.323 103.97 204.793 104.39 204.303 104.29C203.813 104.2 205.503 103.71 205.853 103.09C206.203 102.47 205.383 103.11 205.003 102.98C205.123 102.73 205.783 102.52 206.023 102.07C206.263 101.63 205.553 102.36 205.173 102.27C204.783 102.18 205.923 101.63 206.043 101.21C206.163 100.79 205.793 101.39 205.573 101.31C205.353 101.22 206.093 100.82 206.203 100.33C206.313 99.84 206.243 99.04 206.423 98.68L206.373 98.65Z" fill="#86C3C3"/>
<path d="M221.093 100.95C221.093 100.95 221.453 102.35 221.593 102.45C221.733 102.55 221.343 102.48 221.343 102.48C221.343 102.48 222.053 103.46 222.073 103.71C221.733 103.78 221.493 103.75 221.493 103.75C221.493 103.75 221.763 104.14 222.453 104.68C222.253 104.75 221.773 104.64 221.773 104.64C221.773 104.64 221.743 104.77 221.893 104.88C222.043 104.99 222.643 105.48 222.703 105.65C222.533 105.71 222.293 105.58 222.263 105.68C222.233 105.78 223.003 106.3 223.113 106.56C222.803 106.62 221.973 106.11 221.853 106.22C221.733 106.33 222.433 106.8 222.793 106.97C223.153 107.14 223.863 107.64 223.913 107.72C223.963 107.8 223.133 107.62 222.823 107.48C222.743 107.69 223.273 108.02 223.273 108.02C223.273 108.02 222.983 108.07 222.213 107.8C222.123 108.02 222.853 108.39 222.853 108.39C222.853 108.39 223.523 108.72 223.633 108.98C223.293 109 223.003 109.06 223.003 109.06C223.003 109.06 223.193 109.45 223.843 109.76C224.483 110.07 225.073 110.75 225.123 110.92C224.163 110.69 223.633 110.75 223.633 110.75C223.633 110.75 223.823 111.08 224.433 111.31C224.493 111.33 224.543 111.36 224.603 111.39C224.723 111.46 224.823 111.53 224.883 111.59C224.973 111.66 224.913 111.8 224.793 111.8C224.493 111.8 224.003 111.78 223.583 111.72C223.583 111.72 224.023 112.08 224.563 112.22C225.113 112.36 225.823 112.72 225.993 113.16C225.323 112.92 224.403 112.77 224.403 112.77C224.403 112.77 225.633 113.29 225.763 113.58C225.033 113.53 224.563 113.66 224.563 113.66C224.563 113.66 226.243 114.34 226.323 114.86C225.183 114.36 224.783 114.5 224.783 114.5C224.783 114.5 226.593 115.26 226.753 115.61C225.563 115.5 225.153 115.55 225.153 115.55C225.153 115.55 225.543 115.96 226.303 116.16C226.823 116.3 227.033 116.58 227.113 116.75C227.143 116.81 227.093 116.89 227.013 116.89C226.803 116.89 226.383 116.85 225.763 116.71C226.033 116.96 226.033 117.2 226.013 117.31C226.013 117.35 225.963 117.39 225.923 117.4C225.783 117.43 225.443 117.46 225.013 117.34C225.013 117.34 225.943 118.16 226.033 118.52C225.443 118.59 224.483 118.48 224.483 118.48C224.483 118.48 224.583 118.92 224.383 119.16C223.793 119.16 223.383 118.77 223.243 118.29C223.103 117.81 222.733 118.02 222.713 118.19C222.693 118.36 222.743 118.46 222.643 118.57C222.543 118.67 222.223 118.35 222.243 118.16C222.083 118.45 221.953 118.7 221.673 118.78C221.693 119.37 221.693 120.02 221.693 120.02H220.923V118.51C220.923 118.51 220.393 119.25 220.003 119.38C219.603 119.51 220.113 118.36 220.113 118.36C220.113 118.36 218.733 119.27 217.903 119.12C218.083 118.64 218.573 118.19 218.573 118.19C218.573 118.19 217.823 118.42 217.403 118.41C216.993 118.39 218.293 117.62 218.293 117.62C218.293 117.62 218.113 117.39 216.983 117.9C215.853 118.4 217.413 117.13 217.413 117.13C217.413 117.13 217.113 117.01 216.713 117.11C216.313 117.21 215.483 117.5 215.573 117.29C215.663 117.09 216.093 116.55 217.243 116.4C217.303 116.4 217.363 116.38 217.423 116.36C218.003 116.17 217.803 116 217.803 116C217.803 116 217.183 116 216.913 116.17C216.643 116.34 216.663 116.12 216.873 115.87C217.083 115.62 215.743 115.99 215.743 115.99C215.743 115.99 216.383 114.96 218.733 114.39C219.003 114.31 218.623 113.98 218.053 114.29C217.473 114.6 217.653 114.15 218.143 113.88C218.093 113.64 217.143 114 216.933 114.15C216.723 114.29 216.103 114.15 216.103 114.15C216.103 114.15 217.133 112.98 218.313 112.89C218.303 112.73 217.993 112.74 217.993 112.74C217.993 112.74 217.933 112.51 218.903 112.16C219.873 111.81 218.523 111.82 218.153 112.01C217.783 112.19 217.553 112.01 217.553 112.01C217.553 112.01 218.033 111.57 218.523 111.52C218.203 111.39 217.513 111.63 217.283 111.72C217.223 111.74 217.173 111.76 217.113 111.76C216.973 111.78 216.713 111.8 216.683 111.75C216.643 111.67 217.823 110.79 218.863 110.34C218.673 110.23 218.333 110.32 218.333 110.32C218.333 110.32 218.563 109.94 219.793 109.5C219.913 109.46 220.013 109.4 220.103 109.32C220.433 109.03 219.683 109.22 219.423 109.3C219.363 109.32 219.293 109.32 219.233 109.32L218.973 109.3C218.973 109.3 219.253 109.26 219.363 108.99C218.823 109.09 218.483 108.97 218.483 108.97C218.483 108.97 219.903 108.55 220.093 108.17C220.283 107.79 218.723 108.34 218.283 108.25C218.713 107.75 220.113 107.17 220.333 107.1C220.553 107.03 219.853 107.03 219.853 107.03C219.853 107.03 220.053 106.77 220.463 106.5C220.313 106.33 219.803 106.66 219.803 106.66C219.803 106.66 219.743 106.57 219.893 106.42C220.043 106.27 219.513 106.69 219.023 106.59C218.533 106.5 220.223 106.01 220.573 105.39C220.923 104.77 220.103 105.41 219.723 105.28C219.843 105.03 220.503 104.82 220.743 104.37C220.983 103.93 220.273 104.66 219.893 104.57C219.503 104.48 220.643 103.93 220.763 103.51C220.883 103.09 220.513 103.69 220.293 103.61C220.073 103.52 220.813 103.12 220.923 102.63C221.033 102.14 220.963 101.34 221.143 100.98L221.093 100.95Z" fill="#86C3C3"/>
<path d="M214.423 99.89C214.423 99.89 214.783 101.29 214.923 101.39C215.053 101.49 214.673 101.42 214.673 101.42C214.673 101.42 215.383 102.4 215.403 102.65C215.063 102.72 214.823 102.69 214.823 102.69C214.823 102.69 215.093 103.08 215.783 103.62C215.583 103.69 215.103 103.58 215.103 103.58C215.103 103.58 215.073 103.71 215.223 103.82C215.373 103.93 215.973 104.42 216.033 104.59C215.863 104.65 215.623 104.52 215.593 104.62C215.573 104.71 216.333 105.24 216.443 105.5C216.133 105.56 215.303 105.05 215.183 105.16C215.063 105.27 215.763 105.74 216.123 105.91C216.483 106.08 217.193 106.58 217.243 106.66C217.293 106.74 216.463 106.56 216.153 106.42C216.073 106.63 216.603 106.96 216.603 106.96C216.603 106.96 216.313 107.01 215.543 106.74C215.453 106.96 216.183 107.33 216.183 107.33C216.183 107.33 216.853 107.66 216.963 107.92C216.623 107.94 216.333 108 216.333 108C216.333 108 216.523 108.39 217.173 108.7C217.813 109.01 218.403 109.69 218.453 109.86C217.493 109.63 216.963 109.69 216.963 109.69C216.963 109.69 217.153 110.02 217.763 110.25C217.823 110.27 217.873 110.3 217.933 110.33C218.053 110.4 218.153 110.47 218.213 110.53C218.303 110.6 218.243 110.74 218.123 110.74C217.823 110.74 217.333 110.72 216.913 110.66C216.913 110.66 217.353 111.02 217.893 111.16C218.443 111.3 219.153 111.66 219.323 112.1C218.653 111.86 217.733 111.71 217.733 111.71C217.733 111.71 218.963 112.23 219.093 112.52C218.363 112.47 217.893 112.6 217.893 112.6C217.893 112.6 219.573 113.28 219.653 113.8C218.513 113.3 218.113 113.44 218.113 113.44C218.113 113.44 219.923 114.2 220.083 114.55C218.893 114.44 218.483 114.49 218.483 114.49C218.483 114.49 218.873 114.9 219.633 115.1C220.153 115.24 220.363 115.52 220.443 115.69C220.473 115.76 220.423 115.83 220.343 115.83C220.133 115.83 219.713 115.79 219.093 115.65C219.363 115.9 219.363 116.14 219.343 116.25C219.343 116.29 219.293 116.33 219.253 116.34C219.113 116.37 218.773 116.4 218.343 116.28C218.343 116.28 219.273 117.1 219.363 117.46C218.773 117.53 217.813 117.42 217.813 117.42C217.813 117.42 217.913 117.86 217.713 118.1C217.123 118.1 216.713 117.71 216.573 117.23C216.423 116.75 216.063 116.96 216.043 117.13C216.023 117.3 216.073 117.4 215.973 117.51C215.873 117.61 215.553 117.29 215.573 117.1C215.413 117.39 215.283 117.64 215.003 117.72C215.023 118.31 215.023 118.96 215.023 118.96H214.253V117.45C214.253 117.45 213.723 118.19 213.333 118.32C212.933 118.45 213.443 117.3 213.443 117.3C213.443 117.3 212.063 118.21 211.233 118.06C211.413 117.58 211.903 117.13 211.903 117.13C211.903 117.13 211.153 117.36 210.733 117.35C210.323 117.33 211.623 116.56 211.623 116.56C211.623 116.56 211.443 116.33 210.313 116.84C209.183 117.34 210.743 116.07 210.743 116.07C210.743 116.07 210.443 115.95 210.043 116.05C209.643 116.15 208.813 116.44 208.903 116.23C208.993 116.03 209.423 115.49 210.573 115.34C210.633 115.34 210.693 115.32 210.753 115.3C211.333 115.11 211.133 114.94 211.133 114.94C211.133 114.94 210.513 114.94 210.243 115.11C209.973 115.28 209.993 115.06 210.203 114.81C210.413 114.56 209.073 114.93 209.073 114.93C209.073 114.93 209.713 113.9 212.063 113.33C212.333 113.25 211.953 112.92 211.383 113.23C210.803 113.54 210.983 113.09 211.473 112.82C211.423 112.58 210.473 112.94 210.263 113.09C210.053 113.23 209.433 113.09 209.433 113.09C209.433 113.09 210.463 111.92 211.643 111.83C211.633 111.67 211.323 111.68 211.323 111.68C211.323 111.68 211.263 111.45 212.233 111.1C213.203 110.75 211.853 110.76 211.483 110.95C211.113 111.13 210.883 110.95 210.883 110.95C210.883 110.95 211.363 110.51 211.853 110.46C211.533 110.33 210.843 110.57 210.613 110.66C210.553 110.68 210.503 110.7 210.443 110.7C210.303 110.72 210.043 110.74 210.013 110.69C209.973 110.61 211.153 109.73 212.193 109.28C212.003 109.17 211.663 109.26 211.663 109.26C211.663 109.26 211.893 108.88 213.123 108.44C213.243 108.4 213.343 108.34 213.433 108.26C213.763 107.97 213.013 108.16 212.753 108.24C212.693 108.26 212.623 108.26 212.563 108.26L212.303 108.24C212.303 108.24 212.583 108.2 212.693 107.93C212.153 108.03 211.813 107.91 211.813 107.91C211.813 107.91 213.233 107.49 213.423 107.11C213.613 106.73 212.053 107.28 211.613 107.19C212.043 106.69 213.443 106.11 213.663 106.04C213.883 105.97 213.183 105.97 213.183 105.97C213.183 105.97 213.383 105.71 213.793 105.44C213.643 105.27 213.133 105.6 213.133 105.6C213.133 105.6 213.073 105.51 213.223 105.36C213.373 105.21 212.843 105.63 212.353 105.53C211.863 105.44 213.553 104.95 213.903 104.33C214.253 103.71 213.433 104.35 213.053 104.22C213.173 103.97 213.833 103.76 214.073 103.31C214.313 102.87 213.603 103.6 213.223 103.51C212.833 103.42 213.973 102.87 214.093 102.45C214.213 102.03 213.843 102.63 213.623 102.55C213.403 102.47 214.143 102.06 214.253 101.57C214.363 101.08 214.293 100.28 214.473 99.92L214.423 99.89Z" fill="#86C3C3"/>
<path d="M183.513 111.57C182.243 111.27 180.963 110.55 180.913 110.53C180.863 110.51 180.303 110.27 180.513 110.21C180.723 110.16 181.303 110.43 181.393 110.34C181.483 110.25 181.053 110.1 181.213 110.08C181.383 110.06 181.753 110.3 182.113 110.33C182.473 110.37 182.273 110.17 182.153 110.08C182.033 109.98 181.593 109.74 181.793 109.76C181.993 109.79 182.653 110.21 182.873 110.19C183.103 110.16 183.123 109.93 183.143 109.93C183.163 109.93 184.143 109.96 183.673 109.77C183.193 109.58 182.833 109.32 182.013 109.07C181.193 108.82 179.973 107.65 180.233 107.66C180.493 107.66 181.443 107.74 181.453 107.66C181.453 107.58 181.113 107.43 181.123 107.43C181.133 107.43 181.713 107.46 181.683 107.35C181.653 107.24 181.243 107.31 181.143 107.1C181.413 107.18 182.693 106.9 182.323 106.91C182.033 106.91 180.533 106.09 180.053 105.83C180.293 105.92 180.573 105.91 180.573 105.91C180.573 105.91 180.443 105.71 180.493 105.75C180.553 105.8 180.893 105.79 180.883 105.75C180.873 105.71 180.743 105.59 180.743 105.59C180.743 105.59 182.183 105.58 181.573 105.49C180.963 105.4 180.033 104.8 180.163 104.86C180.303 104.91 180.803 104.73 180.523 104.75C180.253 104.77 179.773 104.57 179.173 103.97C179.573 104.15 179.803 104.02 179.803 104.02C179.803 104.02 179.723 103.94 179.713 103.85C180.063 103.97 180.253 103.81 180.253 103.81C180.253 103.81 180.013 103.75 179.923 103.54C180.873 103.74 180.803 103.39 180.803 103.39C180.803 103.39 179.523 103.02 179.493 102.8C179.723 102.82 179.743 102.71 179.743 102.71C179.743 102.71 179.043 102.36 178.653 101.7C179.013 101.87 179.383 101.83 179.383 101.83C179.383 101.83 179.133 101.62 179.353 101.67C179.573 101.72 179.943 101.55 179.803 101.55C179.663 101.55 178.373 100.69 178.603 100.81C178.833 100.93 179.103 100.85 179.103 100.85C179.103 100.85 179.013 100.79 178.983 100.69C179.263 100.8 179.733 100.59 179.493 100.6C179.253 100.6 178.413 100.05 178.543 100.13C178.673 100.21 178.883 100.16 178.883 100.16L178.833 100.09C178.833 100.09 179.353 100.09 179.143 100.04C178.933 99.99 178.003 99.19 178.213 99.3C178.413 99.41 178.543 99.3 178.543 99.3C178.543 99.3 177.883 98.88 178.203 99.01C178.523 99.15 178.853 98.9 178.673 98.87C178.493 98.84 178.143 98.67 178.143 98.67C178.143 98.67 178.503 98.69 178.333 98.59C178.163 98.49 177.943 98.15 177.943 98.15C177.943 98.15 178.323 98.19 178.133 98.05C177.943 97.91 177.803 96.89 177.803 96.89C177.773 98.15 177.383 98.32 177.383 98.32C177.383 98.32 177.423 98.45 177.573 98.41C177.413 98.77 176.893 99.01 176.893 99.01C176.893 99.01 177.103 99.17 177.463 98.96C177.233 99.58 176.253 99.54 176.443 99.78C176.633 100.02 177.493 99.48 177.313 99.82C177.133 100.16 176.133 100.39 176.283 100.56C176.433 100.73 176.953 100.58 176.953 100.58C176.783 100.91 175.943 101.13 175.733 101.28C175.083 101.11 174.263 100.58 174.403 100.64C174.553 100.7 175.093 100.5 174.793 100.52C174.493 100.54 173.973 100.33 173.333 99.67C173.763 99.86 174.013 99.72 174.013 99.72C174.013 99.72 173.923 99.63 173.913 99.54C174.293 99.67 174.493 99.49 174.493 99.49C174.493 99.49 174.233 99.43 174.133 99.19C175.163 99.41 175.083 99.03 175.083 99.03C175.083 99.03 173.693 98.63 173.663 98.39C173.913 98.41 173.933 98.3 173.933 98.3C173.933 98.3 173.173 97.92 172.743 97.21C173.133 97.39 173.533 97.35 173.533 97.35C173.533 97.35 173.263 97.12 173.503 97.18C173.743 97.24 174.143 97.05 173.983 97.05C173.823 97.05 172.433 96.12 172.683 96.25C172.933 96.38 173.223 96.29 173.223 96.29C173.223 96.29 173.133 96.23 173.093 96.12C173.393 96.24 173.903 96.01 173.643 96.02C173.383 96.02 172.473 95.43 172.613 95.51C172.753 95.6 172.983 95.54 172.983 95.54L172.933 95.46C172.933 95.46 173.493 95.46 173.263 95.41C173.033 95.36 172.033 94.49 172.253 94.61C172.473 94.73 172.613 94.61 172.613 94.61C172.613 94.61 171.893 94.15 172.243 94.3C172.583 94.45 172.953 94.18 172.753 94.15C172.563 94.12 172.173 93.93 172.173 93.93C172.173 93.93 172.563 93.95 172.373 93.84C172.183 93.73 171.953 93.37 171.953 93.37C171.953 93.37 172.363 93.42 172.163 93.26C171.963 93.1 171.803 92 171.803 92C171.773 93.36 171.343 93.55 171.343 93.55C171.343 93.55 171.383 93.69 171.543 93.64C171.373 94.03 170.803 94.29 170.803 94.29C170.803 94.29 171.033 94.46 171.423 94.24C171.173 94.91 170.113 94.87 170.323 95.13C170.533 95.39 171.463 94.8 171.263 95.18C171.063 95.55 169.983 95.8 170.143 95.98C170.303 96.16 170.863 96 170.863 96C170.643 96.43 169.423 96.67 169.493 96.84C169.563 97.01 170.093 96.84 170.093 96.84C170.093 96.84 170.003 96.96 170.163 97.03C170.283 97.19 170.943 96.8 170.943 96.8C170.943 96.8 170.583 97.34 170.113 97.48C169.643 97.62 169.283 97.68 169.383 97.87C169.483 98.05 169.753 97.93 169.733 97.96C169.713 97.99 169.583 98.13 169.763 98.19C169.953 98.25 170.173 98.04 170.153 98.11C170.143 98.18 170.163 98.26 170.163 98.26C170.163 98.26 170.323 98.38 170.713 98.1C170.383 98.93 168.563 99.34 168.633 99.64C168.703 99.94 169.253 99.56 169.253 99.56C169.253 99.56 169.203 99.67 169.273 99.69C169.423 99.91 170.323 99.09 169.773 99.63C169.233 100.17 167.833 99.97 168.093 100.23C168.353 100.48 168.913 100.28 168.873 100.32C168.833 100.36 168.513 100.47 168.613 100.53C168.683 100.57 168.803 100.55 168.893 100.53C168.833 100.55 168.793 100.59 168.973 100.67C169.163 100.75 169.553 100.63 169.813 100.53C169.713 100.58 169.613 100.64 169.533 100.71C169.433 100.8 169.523 100.97 169.653 100.94C169.953 100.86 170.323 100.53 170.123 100.88C169.863 101.34 168.343 101.75 168.683 101.98C169.023 102.21 169.773 101.46 169.423 102C169.163 102.4 167.663 102.89 166.963 103.22C166.823 103.12 166.673 102.99 166.513 102.83C166.873 102.99 167.083 102.87 167.083 102.87C167.083 102.87 167.013 102.8 167.003 102.72C167.323 102.83 167.483 102.68 167.483 102.68C167.483 102.68 167.263 102.63 167.183 102.43C168.043 102.61 167.983 102.3 167.983 102.3C167.983 102.3 166.823 101.96 166.793 101.76C167.003 101.77 167.023 101.68 167.023 101.68C167.023 101.68 166.393 101.36 166.033 100.77C166.353 100.92 166.693 100.89 166.693 100.89C166.693 100.89 166.473 100.7 166.673 100.75C166.873 100.8 167.213 100.64 167.083 100.64C166.953 100.64 165.793 99.86 166.003 99.97C166.213 100.08 166.453 100 166.453 100C166.453 100 166.373 99.95 166.343 99.86C166.593 99.96 167.023 99.77 166.803 99.78C166.593 99.78 165.823 99.29 165.943 99.36C166.063 99.43 166.253 99.39 166.253 99.39L166.203 99.32C166.203 99.32 166.673 99.32 166.483 99.27C166.293 99.22 165.453 98.5 165.633 98.6C165.813 98.7 165.933 98.6 165.933 98.6C165.933 98.6 165.333 98.22 165.623 98.34C165.913 98.46 166.213 98.24 166.053 98.22C165.893 98.19 165.573 98.04 165.573 98.04C165.573 98.04 165.903 98.06 165.743 97.97C165.583 97.88 165.393 97.57 165.393 97.57C165.393 97.57 165.743 97.61 165.573 97.48C165.403 97.35 165.273 96.43 165.273 96.43C165.243 97.57 164.893 97.73 164.893 97.73C164.893 97.73 164.933 97.85 165.063 97.81C164.923 98.13 164.443 98.35 164.443 98.35C164.443 98.35 164.633 98.49 164.963 98.31C164.753 98.87 163.863 98.84 164.043 99.06C164.223 99.28 164.993 98.79 164.833 99.1C164.663 99.41 163.763 99.62 163.893 99.77C164.023 99.92 164.503 99.79 164.503 99.79C164.323 100.15 163.303 100.35 163.363 100.49C163.423 100.63 163.863 100.49 163.863 100.49C163.863 100.49 163.793 100.59 163.923 100.65C164.023 100.79 164.573 100.46 164.573 100.46C164.573 100.46 164.273 100.91 163.873 101.03C163.473 101.15 163.183 101.2 163.263 101.35C163.343 101.5 163.573 101.4 163.553 101.43C163.543 101.45 163.423 101.57 163.583 101.63C163.743 101.68 163.923 101.5 163.913 101.56C163.903 101.62 163.923 101.68 163.923 101.68C163.923 101.68 164.053 101.78 164.383 101.55C164.103 102.24 162.583 102.59 162.643 102.84C162.703 103.09 163.163 102.77 163.163 102.77C163.163 102.77 163.123 102.86 163.173 102.88C163.303 103.06 164.043 102.38 163.593 102.83C163.143 103.28 161.973 103.12 162.193 103.33C162.413 103.54 162.883 103.37 162.843 103.4C162.813 103.43 162.543 103.53 162.633 103.58C162.683 103.61 162.793 103.6 162.863 103.58C162.813 103.6 162.783 103.63 162.933 103.7C163.093 103.77 163.423 103.67 163.643 103.59C163.563 103.63 163.473 103.68 163.403 103.74C163.313 103.81 163.393 103.96 163.503 103.93C163.753 103.87 164.063 103.59 163.903 103.88C163.693 104.26 162.413 104.61 162.693 104.8C162.973 105 163.603 104.37 163.313 104.81C163.183 105.01 162.703 105.23 162.203 105.43C161.753 105.25 161.333 104.97 161.423 105.01C161.543 105.06 162.003 104.9 161.753 104.91C161.503 104.93 161.073 104.75 160.533 104.2C160.893 104.36 161.103 104.24 161.103 104.24C161.103 104.24 161.033 104.17 161.023 104.09C161.343 104.2 161.503 104.05 161.503 104.05C161.503 104.05 161.283 104 161.203 103.8C162.063 103.98 162.003 103.67 162.003 103.67C162.003 103.67 160.843 103.33 160.813 103.13C161.023 103.14 161.043 103.05 161.043 103.05C161.043 103.05 160.413 102.73 160.053 102.14C160.373 102.29 160.713 102.26 160.713 102.26C160.713 102.26 160.493 102.07 160.693 102.12C160.893 102.17 161.233 102.01 161.103 102.01C160.973 102.01 159.813 101.23 160.023 101.34C160.233 101.45 160.473 101.37 160.473 101.37C160.473 101.37 160.393 101.32 160.363 101.23C160.613 101.33 161.043 101.14 160.823 101.15C160.613 101.15 159.843 100.66 159.963 100.73C160.083 100.8 160.273 100.76 160.273 100.76L160.223 100.69C160.223 100.69 160.693 100.69 160.503 100.64C160.313 100.59 159.473 99.87 159.653 99.97C159.833 100.07 159.953 99.97 159.953 99.97C159.953 99.97 159.353 99.59 159.643 99.71C159.933 99.83 160.233 99.61 160.073 99.59C159.913 99.56 159.593 99.41 159.593 99.41C159.593 99.41 159.923 99.43 159.763 99.34C159.603 99.25 159.413 98.94 159.413 98.94C159.413 98.94 159.763 98.98 159.593 98.85C159.423 98.72 159.293 97.8 159.293 97.8C159.263 98.94 158.913 99.1 158.913 99.1C158.913 99.1 158.953 99.22 159.083 99.18C158.943 99.5 158.463 99.72 158.463 99.72C158.463 99.72 158.653 99.86 158.983 99.68C158.773 100.24 157.883 100.21 158.063 100.43C158.243 100.65 159.013 100.16 158.853 100.47C158.683 100.78 157.783 100.99 157.913 101.14C158.043 101.29 158.523 101.16 158.523 101.16C158.343 101.52 157.323 101.72 157.383 101.86C157.443 102 157.883 101.86 157.883 101.86C157.883 101.86 157.813 101.96 157.943 102.02C158.043 102.16 158.593 101.83 158.593 101.83C158.593 101.83 158.293 102.28 157.893 102.4C157.493 102.52 157.203 102.57 157.283 102.72C157.363 102.87 157.593 102.77 157.573 102.8C157.563 102.82 157.443 102.94 157.603 103C157.763 103.05 157.943 102.87 157.933 102.93C157.923 102.99 157.943 103.05 157.943 103.05C157.943 103.05 158.073 103.15 158.403 102.92C158.123 103.61 156.603 103.96 156.663 104.21C156.723 104.46 157.183 104.14 157.183 104.14C157.183 104.14 157.143 104.23 157.193 104.25C157.323 104.43 158.063 103.75 157.613 104.2C157.163 104.65 155.993 104.49 156.213 104.7C156.433 104.91 156.903 104.74 156.863 104.77C156.833 104.8 156.563 104.9 156.653 104.95C156.703 104.98 156.813 104.97 156.883 104.95C156.833 104.97 156.803 105 156.953 105.07C157.113 105.14 157.443 105.04 157.663 104.96C157.583 105 157.493 105.05 157.423 105.11C157.333 105.18 157.413 105.33 157.523 105.3C157.773 105.24 158.083 104.96 157.923 105.25C157.713 105.63 156.433 105.98 156.713 106.17C156.993 106.37 157.623 105.74 157.333 106.18C157.043 106.63 154.853 107.22 154.963 107.43C155.073 107.64 155.883 107.15 155.783 107.33C155.683 107.52 155.413 107.45 155.513 107.59C155.573 107.67 155.753 107.63 155.893 107.58C155.893 107.61 155.913 107.64 155.973 107.69C156.213 107.87 157.093 107.05 157.053 107.34C157.013 107.63 156.203 107.9 156.323 108.01C156.443 108.13 156.533 107.89 156.713 108.05C156.893 108.21 157.603 107.46 157.473 107.86C157.333 108.26 156.293 108.87 156.003 109.1C155.703 109.32 155.293 109.37 155.393 109.45C155.493 109.53 155.833 109.2 155.593 109.53C155.353 109.86 153.943 110.07 154.013 110.21C154.073 110.35 154.543 110.21 154.543 110.21C154.543 110.21 154.413 110.34 154.553 110.51C154.703 110.68 155.293 110.25 155.283 110.28C155.273 110.31 155.263 110.48 155.383 110.51C155.503 110.55 156.103 110.16 156.023 110.28C155.953 110.39 156.073 110.41 156.073 110.41C156.073 110.41 156.813 109.92 156.433 110.35C156.053 110.78 154.403 111.59 154.053 111.69C153.703 111.79 153.013 111.92 153.123 112.13C153.233 112.34 153.713 112.01 153.613 112.22C153.513 112.43 153.813 112.41 153.833 112.42C153.863 112.44 154.873 112.01 154.463 112.29C154.053 112.57 153.633 112.75 153.633 112.82C153.633 112.89 154.103 112.65 154.023 112.82C153.943 112.99 154.103 112.97 154.203 113.04C154.303 113.11 155.523 112.39 155.263 112.67C155.003 112.95 155.183 113.09 155.303 112.97C155.433 112.85 155.763 112.81 155.763 112.81C155.763 112.81 155.733 112.87 155.703 112.96C155.673 113.04 155.733 113.13 155.823 113.14C156.063 113.15 156.333 112.77 156.543 112.64C156.793 112.49 156.903 112.47 156.873 112.69C156.833 112.9 155.853 113.38 156.043 113.56C156.243 113.74 156.843 113.18 156.773 113.38C156.703 113.58 156.923 113.81 157.193 113.55C157.463 113.29 157.883 113.37 157.883 113.37C157.883 113.37 157.473 113.64 157.693 113.87C157.913 114.1 158.723 113.26 158.723 113.26C158.723 113.26 158.573 113.61 158.723 113.79C158.873 113.97 159.043 113.49 159.043 113.49V114.22L157.913 114.49L155.883 116.48C158.273 119.82 179.383 115.99 179.383 115.99L179.193 114.41C179.643 114.66 179.813 114.6 179.813 114.6C179.813 114.6 179.933 114.54 179.853 114.22C180.433 114.64 180.713 114.57 180.713 114.57C180.713 114.57 180.933 114.4 180.493 114.14C180.863 114.17 180.773 114.03 180.773 114.03C180.773 114.03 179.983 113.49 180.383 113.41C180.473 113.39 180.563 113.41 180.643 113.45C181.853 114.05 182.053 113.91 182.053 113.91C182.053 113.91 182.233 113.91 182.073 113.5C182.223 113.66 183.193 113.85 183.203 113.77C183.203 113.7 182.913 113.43 182.913 113.43C182.913 113.43 183.863 113.78 184.003 113.54C184.143 113.3 183.873 113.11 183.193 112.96C182.513 112.8 181.703 112.3 181.703 112.3C181.703 112.3 181.433 111.78 182.193 112.18C182.943 112.58 183.433 112.46 183.433 112.46C183.433 112.46 183.673 112.46 183.633 112.09C184.143 111.98 184.783 111.92 183.513 111.62V111.57ZM162.313 107.34C162.313 107.34 162.443 107.34 162.563 107.34C162.523 107.37 162.493 107.39 162.453 107.41C162.373 107.37 162.303 107.33 162.303 107.33L162.313 107.34ZM174.463 103.69C174.593 103.69 174.873 103.71 175.133 103.72C174.973 103.81 174.883 103.88 174.903 103.95C174.963 104.22 175.483 103.87 175.483 103.87C175.483 103.87 175.443 103.97 175.503 103.99C175.643 104.19 176.463 103.44 175.963 103.94C175.723 104.18 175.303 104.26 174.953 104.31C174.573 103.98 174.333 103.68 174.463 103.68V103.69ZM175.423 103.44C175.423 103.44 175.553 103.44 175.693 103.44C175.643 103.46 175.603 103.48 175.563 103.51C175.493 103.47 175.423 103.44 175.433 103.44H175.423ZM176.313 102.68C176.313 102.68 176.463 102.79 176.823 102.53C176.773 102.65 176.693 102.75 176.593 102.86C176.453 102.82 176.253 102.74 176.023 102.63C176.163 102.62 176.303 102.49 176.293 102.55C176.283 102.62 176.303 102.68 176.303 102.68H176.313ZM161.803 105.95C161.803 105.95 161.793 105.93 161.783 105.92C161.803 105.92 161.803 105.92 161.803 105.95ZM168.183 106.94C168.413 106.8 168.703 106.66 168.393 107C168.373 107.02 168.353 107.04 168.333 107.06C168.283 107.02 168.223 106.98 168.173 106.94H168.183ZM176.293 105.1C176.293 105.1 176.263 105.15 176.243 105.17C176.183 105.14 176.113 105.12 176.053 105.08C176.263 104.98 176.433 104.85 176.293 105.1ZM175.773 104.93C175.773 104.93 175.723 104.9 175.703 104.89C175.813 104.86 175.923 104.82 176.003 104.79C175.923 104.83 175.843 104.88 175.773 104.93ZM176.433 103C176.293 103.11 176.123 103.21 175.953 103.31C175.813 103.27 175.523 103.27 175.443 103.1C175.603 103.15 176.093 103.08 176.433 103.01V103ZM174.743 106.45C174.833 106.43 174.983 106.45 175.133 106.5C175.043 106.54 174.953 106.59 174.853 106.63C174.723 106.55 174.633 106.48 174.743 106.45ZM162.733 107.22C162.613 107.19 162.383 107.19 162.323 107.05C162.443 107.08 162.763 107.05 163.033 107C162.943 107.08 162.833 107.15 162.733 107.23V107.22ZM162.003 107.72C161.913 107.79 161.803 107.84 161.703 107.89C161.503 107.69 161.403 107.55 161.493 107.55C161.623 107.55 161.943 107.57 162.203 107.58C162.123 107.64 162.043 107.69 162.003 107.72ZM161.793 105.96C161.763 106.02 161.713 106.05 161.673 106.07C161.623 106.04 161.573 106.02 161.533 105.99C161.573 105.98 161.613 105.96 161.643 105.95C161.713 105.95 161.773 105.95 161.793 105.95V105.96ZM159.673 113.54C159.713 113.63 159.793 113.66 159.853 113.66L159.693 113.8C159.693 113.71 159.683 113.62 159.673 113.53V113.54ZM160.143 113.35C160.143 113.35 160.173 113.37 160.183 113.38L160.143 113.41C160.143 113.41 160.143 113.37 160.143 113.35ZM174.833 101.79C174.833 101.79 174.683 101.57 174.753 101.62C174.813 101.67 175.193 101.67 175.183 101.62C175.173 101.57 175.033 101.45 175.033 101.45C175.033 101.45 175.473 101.45 175.793 101.43C175.953 101.47 176.253 101.37 176.253 101.37C176.253 101.37 176.173 101.48 176.313 101.54C176.423 101.69 177.033 101.33 177.033 101.33C177.033 101.33 176.703 101.83 176.263 101.96C175.823 102.09 175.493 102.15 175.583 102.32C175.673 102.49 175.923 102.38 175.903 102.4C175.893 102.42 175.833 102.48 175.843 102.54C175.263 102.26 174.563 101.87 174.253 101.71C174.513 101.81 174.823 101.8 174.823 101.8L174.833 101.79ZM169.643 104.03C169.533 104.35 168.933 104.79 168.443 105.12C168.013 104.9 167.563 104.66 167.343 104.54C167.563 104.62 167.813 104.61 167.813 104.61C167.813 104.61 167.693 104.43 167.743 104.47C167.793 104.51 168.113 104.51 168.103 104.47C168.103 104.43 167.983 104.33 167.983 104.33C167.983 104.33 168.663 104.33 168.833 104.29C169.133 104.27 169.783 103.62 169.643 104.04V104.03ZM168.573 104.19C168.573 104.19 168.643 104.19 168.683 104.22C168.653 104.22 168.613 104.2 168.573 104.19ZM169.153 103.4C169.113 103.67 168.493 103.93 168.313 104.1C168.033 103.99 167.743 103.84 167.593 103.74C167.653 103.73 167.713 103.71 167.763 103.69C167.763 103.72 167.783 103.77 167.863 103.82C168.153 104.04 169.203 103.06 169.153 103.4ZM167.643 103.4C167.613 103.45 167.573 103.49 167.533 103.51C167.473 103.49 167.413 103.47 167.343 103.43C167.543 103.36 167.693 103.3 167.643 103.39V103.4ZM163.493 106.48C163.453 106.58 163.363 106.7 163.233 106.82C163.143 106.79 163.023 106.74 162.883 106.68C163.153 106.59 163.603 106.16 163.493 106.48ZM163.073 105.96C163.043 106.15 162.663 106.34 162.463 106.48C162.363 106.43 162.263 106.38 162.173 106.33C162.513 106.25 163.113 105.73 163.083 105.96H163.073Z" fill="#86C3C3"/>
<path d="M299.653 118.8C298.383 118.5 297.103 117.78 297.053 117.76C297.003 117.74 296.443 117.5 296.653 117.44C296.863 117.39 297.443 117.66 297.533 117.57C297.623 117.48 297.193 117.33 297.353 117.31C297.523 117.29 297.893 117.53 298.253 117.56C298.613 117.6 298.413 117.4 298.293 117.31C298.173 117.21 297.733 116.97 297.933 116.99C298.133 117.02 298.793 117.44 299.013 117.42C299.243 117.39 299.263 117.16 299.283 117.16C299.303 117.16 300.283 117.19 299.813 117C299.333 116.81 298.973 116.55 298.153 116.3C297.333 116.05 296.113 114.88 296.373 114.89C296.633 114.89 297.583 114.97 297.593 114.89C297.593 114.81 297.253 114.66 297.263 114.66C297.273 114.66 297.853 114.69 297.823 114.58C297.793 114.47 297.383 114.54 297.283 114.33C297.553 114.41 298.833 114.13 298.463 114.14C298.173 114.14 296.673 113.32 296.193 113.06C296.433 113.15 296.713 113.14 296.713 113.14C296.713 113.14 296.583 112.94 296.633 112.98C296.693 113.03 297.033 113.02 297.023 112.98C297.013 112.94 296.883 112.82 296.883 112.82C296.883 112.82 298.323 112.81 297.713 112.72C297.103 112.63 296.173 112.03 296.303 112.09C296.443 112.14 296.943 111.96 296.663 111.98C296.393 112 295.913 111.8 295.313 111.2C295.713 111.38 295.943 111.25 295.943 111.25C295.943 111.25 295.863 111.17 295.853 111.08C296.203 111.2 296.393 111.04 296.393 111.04C296.393 111.04 296.153 110.98 296.063 110.77C297.013 110.97 296.943 110.62 296.943 110.62C296.943 110.62 295.663 110.25 295.633 110.03C295.863 110.05 295.883 109.94 295.883 109.94C295.883 109.94 295.183 109.59 294.793 108.93C295.153 109.1 295.523 109.06 295.523 109.06C295.523 109.06 295.273 108.85 295.493 108.9C295.713 108.95 296.083 108.78 295.943 108.78C295.803 108.78 294.513 107.92 294.743 108.04C294.973 108.16 295.243 108.08 295.243 108.08C295.243 108.08 295.153 108.02 295.123 107.92C295.403 108.03 295.873 107.82 295.633 107.83C295.393 107.83 294.553 107.28 294.683 107.36C294.813 107.44 295.023 107.39 295.023 107.39L294.973 107.32C294.973 107.32 295.493 107.32 295.283 107.27C295.073 107.22 294.143 106.42 294.353 106.53C294.553 106.64 294.683 106.53 294.683 106.53C294.683 106.53 294.023 106.11 294.343 106.24C294.663 106.38 294.993 106.13 294.813 106.1C294.633 106.07 294.283 105.9 294.283 105.9C294.283 105.9 294.643 105.92 294.473 105.82C294.303 105.72 294.083 105.38 294.083 105.38C294.083 105.38 294.463 105.42 294.273 105.28C294.083 105.14 293.943 104.12 293.943 104.12C293.913 105.38 293.523 105.55 293.523 105.55C293.523 105.55 293.563 105.68 293.713 105.64C293.553 106 293.033 106.24 293.033 106.24C293.033 106.24 293.243 106.4 293.603 106.19C293.373 106.81 292.393 106.77 292.583 107.01C292.773 107.25 293.633 106.71 293.453 107.05C293.273 107.39 292.273 107.62 292.423 107.79C292.573 107.96 293.093 107.81 293.093 107.81C292.923 108.14 292.083 108.36 291.873 108.51C291.223 108.34 290.403 107.81 290.543 107.87C290.693 107.93 291.233 107.73 290.933 107.75C290.633 107.77 290.113 107.56 289.473 106.9C289.903 107.09 290.153 106.95 290.153 106.95C290.153 106.95 290.063 106.86 290.053 106.77C290.433 106.9 290.633 106.72 290.633 106.72C290.633 106.72 290.373 106.66 290.273 106.42C291.303 106.64 291.223 106.26 291.223 106.26C291.223 106.26 289.833 105.86 289.803 105.62C290.053 105.64 290.073 105.53 290.073 105.53C290.073 105.53 289.313 105.15 288.883 104.44C289.273 104.62 289.673 104.58 289.673 104.58C289.673 104.58 289.403 104.35 289.643 104.41C289.883 104.47 290.283 104.28 290.123 104.28C289.963 104.28 288.573 103.35 288.823 103.48C289.073 103.61 289.363 103.52 289.363 103.52C289.363 103.52 289.273 103.46 289.233 103.35C289.533 103.47 290.043 103.24 289.783 103.25C289.523 103.25 288.613 102.66 288.753 102.74C288.893 102.83 289.123 102.77 289.123 102.77L289.073 102.69C289.073 102.69 289.633 102.69 289.403 102.64C289.173 102.59 288.173 101.72 288.393 101.84C288.613 101.96 288.753 101.84 288.753 101.84C288.753 101.84 288.033 101.38 288.383 101.53C288.723 101.68 289.093 101.41 288.893 101.38C288.703 101.35 288.313 101.16 288.313 101.16C288.313 101.16 288.703 101.18 288.513 101.07C288.323 100.96 288.093 100.6 288.093 100.6C288.093 100.6 288.503 100.65 288.303 100.49C288.103 100.33 287.943 99.23 287.943 99.23C287.913 100.59 287.483 100.78 287.483 100.78C287.483 100.78 287.523 100.92 287.683 100.87C287.513 101.26 286.943 101.52 286.943 101.52C286.943 101.52 287.173 101.69 287.563 101.47C287.313 102.14 286.253 102.1 286.463 102.36C286.673 102.62 287.603 102.03 287.403 102.41C287.203 102.78 286.123 103.03 286.283 103.21C286.443 103.39 287.003 103.23 287.003 103.23C286.783 103.66 285.563 103.9 285.633 104.07C285.703 104.24 286.233 104.07 286.233 104.07C286.233 104.07 286.143 104.19 286.303 104.26C286.423 104.42 287.083 104.03 287.083 104.03C287.083 104.03 286.723 104.57 286.253 104.71C285.783 104.85 285.423 104.91 285.523 105.1C285.623 105.28 285.893 105.16 285.873 105.19C285.853 105.22 285.723 105.36 285.903 105.42C286.093 105.48 286.313 105.27 286.293 105.34C286.283 105.41 286.303 105.49 286.303 105.49C286.303 105.49 286.463 105.61 286.853 105.33C286.523 106.16 284.703 106.57 284.773 106.87C284.843 107.17 285.393 106.79 285.393 106.79C285.393 106.79 285.343 106.9 285.413 106.92C285.563 107.14 286.463 106.32 285.913 106.86C285.373 107.4 283.973 107.2 284.233 107.46C284.493 107.71 285.053 107.51 285.013 107.55C284.973 107.59 284.653 107.7 284.753 107.76C284.823 107.8 284.943 107.78 285.033 107.76C284.973 107.78 284.933 107.82 285.113 107.9C285.303 107.98 285.693 107.86 285.953 107.76C285.853 107.81 285.753 107.87 285.673 107.94C285.573 108.03 285.663 108.2 285.793 108.17C286.093 108.09 286.463 107.76 286.263 108.11C286.003 108.57 284.483 108.98 284.823 109.21C285.163 109.44 285.913 108.69 285.563 109.23C285.303 109.63 283.803 110.12 283.103 110.45C282.963 110.35 282.813 110.22 282.653 110.06C283.013 110.22 283.223 110.1 283.223 110.1C283.223 110.1 283.153 110.03 283.143 109.95C283.463 110.06 283.623 109.91 283.623 109.91C283.623 109.91 283.403 109.86 283.323 109.66C284.183 109.84 284.123 109.53 284.123 109.53C284.123 109.53 282.963 109.19 282.933 108.99C283.143 109 283.163 108.91 283.163 108.91C283.163 108.91 282.533 108.59 282.173 108C282.493 108.15 282.833 108.12 282.833 108.12C282.833 108.12 282.613 107.93 282.813 107.98C283.013 108.03 283.353 107.87 283.223 107.87C283.093 107.87 281.933 107.09 282.143 107.2C282.353 107.31 282.593 107.23 282.593 107.23C282.593 107.23 282.513 107.18 282.483 107.09C282.733 107.19 283.163 107 282.943 107.01C282.733 107.01 281.963 106.52 282.083 106.59C282.203 106.66 282.393 106.62 282.393 106.62L282.343 106.55C282.343 106.55 282.813 106.55 282.623 106.5C282.433 106.45 281.593 105.73 281.773 105.83C281.953 105.93 282.073 105.83 282.073 105.83C282.073 105.83 281.473 105.45 281.763 105.57C282.053 105.69 282.353 105.47 282.193 105.45C282.033 105.42 281.713 105.27 281.713 105.27C281.713 105.27 282.043 105.29 281.883 105.2C281.723 105.11 281.533 104.8 281.533 104.8C281.533 104.8 281.873 104.84 281.713 104.71C281.543 104.58 281.413 103.66 281.413 103.66C281.383 104.8 281.033 104.96 281.033 104.96C281.033 104.96 281.073 105.08 281.203 105.04C281.063 105.36 280.583 105.58 280.583 105.58C280.583 105.58 280.773 105.72 281.103 105.54C280.893 106.1 280.003 106.07 280.183 106.29C280.363 106.51 281.133 106.02 280.973 106.33C280.803 106.64 279.903 106.85 280.033 107C280.163 107.15 280.643 107.02 280.643 107.02C280.463 107.38 279.443 107.58 279.503 107.72C279.563 107.86 280.003 107.72 280.003 107.72C280.003 107.72 279.933 107.82 280.063 107.88C280.163 108.02 280.713 107.69 280.713 107.69C280.713 107.69 280.413 108.14 280.013 108.26C279.613 108.38 279.323 108.43 279.403 108.58C279.483 108.73 279.713 108.63 279.693 108.66C279.683 108.68 279.563 108.8 279.723 108.86C279.883 108.91 280.063 108.73 280.053 108.79C280.043 108.85 280.063 108.91 280.063 108.91C280.063 108.91 280.193 109.01 280.523 108.78C280.243 109.47 278.723 109.82 278.783 110.07C278.843 110.32 279.303 110 279.303 110C279.303 110 279.263 110.09 279.313 110.11C279.443 110.29 280.183 109.61 279.733 110.06C279.283 110.51 278.113 110.35 278.333 110.56C278.553 110.77 279.023 110.6 278.983 110.63C278.953 110.66 278.683 110.76 278.773 110.81C278.823 110.84 278.933 110.83 279.003 110.81C278.953 110.83 278.923 110.86 279.073 110.93C279.233 111 279.563 110.9 279.783 110.82C279.703 110.86 279.613 110.91 279.543 110.97C279.453 111.04 279.533 111.19 279.643 111.16C279.893 111.1 280.203 110.82 280.043 111.11C279.833 111.49 278.553 111.84 278.833 112.03C279.113 112.23 279.743 111.6 279.453 112.04C279.323 112.24 278.843 112.46 278.343 112.66C277.893 112.48 277.473 112.2 277.563 112.24C277.683 112.29 278.143 112.13 277.893 112.14C277.643 112.16 277.213 111.98 276.673 111.43C277.033 111.59 277.243 111.47 277.243 111.47C277.243 111.47 277.173 111.4 277.163 111.32C277.483 111.43 277.643 111.28 277.643 111.28C277.643 111.28 277.423 111.23 277.343 111.03C278.203 111.21 278.143 110.9 278.143 110.9C278.143 110.9 276.983 110.56 276.953 110.36C277.163 110.37 277.183 110.28 277.183 110.28C277.183 110.28 276.553 109.96 276.193 109.37C276.513 109.52 276.853 109.49 276.853 109.49C276.853 109.49 276.633 109.3 276.833 109.35C277.033 109.4 277.373 109.24 277.243 109.24C277.113 109.24 275.953 108.46 276.163 108.57C276.373 108.68 276.613 108.6 276.613 108.6C276.613 108.6 276.533 108.55 276.503 108.46C276.753 108.56 277.183 108.37 276.963 108.38C276.753 108.38 275.983 107.89 276.103 107.96C276.223 108.03 276.413 107.99 276.413 107.99L276.363 107.92C276.363 107.92 276.833 107.92 276.643 107.87C276.453 107.82 275.613 107.1 275.793 107.2C275.973 107.3 276.093 107.2 276.093 107.2C276.093 107.2 275.493 106.82 275.783 106.94C276.073 107.06 276.373 106.84 276.213 106.82C276.053 106.79 275.733 106.64 275.733 106.64C275.733 106.64 276.063 106.66 275.903 106.57C275.743 106.48 275.553 106.17 275.553 106.17C275.553 106.17 275.903 106.21 275.733 106.08C275.563 105.95 275.433 105.03 275.433 105.03C275.403 106.17 275.053 106.33 275.053 106.33C275.053 106.33 275.093 106.45 275.223 106.41C275.083 106.73 274.603 106.95 274.603 106.95C274.603 106.95 274.793 107.09 275.123 106.91C274.913 107.47 274.023 107.44 274.203 107.66C274.383 107.88 275.153 107.39 274.993 107.7C274.823 108.01 273.923 108.22 274.053 108.37C274.183 108.52 274.663 108.39 274.663 108.39C274.483 108.75 273.463 108.95 273.523 109.09C273.583 109.23 274.023 109.09 274.023 109.09C274.023 109.09 273.953 109.19 274.083 109.25C274.183 109.39 274.733 109.06 274.733 109.06C274.733 109.06 274.433 109.51 274.033 109.63C273.633 109.75 273.343 109.8 273.423 109.95C273.503 110.1 273.733 110 273.713 110.03C273.703 110.05 273.583 110.17 273.743 110.23C273.903 110.28 274.083 110.1 274.073 110.16C274.063 110.22 274.083 110.28 274.083 110.28C274.083 110.28 274.213 110.38 274.543 110.15C274.263 110.84 272.743 111.19 272.803 111.44C272.863 111.69 273.323 111.37 273.323 111.37C273.323 111.37 273.283 111.46 273.333 111.48C273.463 111.66 274.203 110.98 273.753 111.43C273.303 111.88 272.133 111.72 272.353 111.93C272.573 112.14 273.043 111.97 273.003 112C272.973 112.03 272.703 112.13 272.793 112.18C272.843 112.21 272.953 112.2 273.023 112.18C272.973 112.2 272.943 112.23 273.093 112.3C273.253 112.37 273.583 112.27 273.803 112.19C273.723 112.23 273.633 112.28 273.563 112.34C273.473 112.41 273.553 112.56 273.663 112.53C273.913 112.47 274.223 112.19 274.063 112.48C273.853 112.86 272.573 113.21 272.853 113.4C273.133 113.6 273.763 112.97 273.473 113.41C273.183 113.86 270.993 114.45 271.103 114.66C271.213 114.87 272.023 114.38 271.923 114.56C271.823 114.75 271.553 114.68 271.653 114.82C271.713 114.9 271.893 114.86 272.033 114.81C272.033 114.84 272.053 114.87 272.113 114.92C272.353 115.1 273.233 114.28 273.193 114.57C273.153 114.86 272.343 115.13 272.463 115.24C272.583 115.36 272.673 115.12 272.853 115.28C273.033 115.44 273.743 114.69 273.613 115.09C273.473 115.49 272.433 116.1 272.143 116.33C271.843 116.55 271.433 116.6 271.533 116.68C271.633 116.76 271.973 116.43 271.733 116.76C271.493 117.09 270.083 117.3 270.153 117.44C270.213 117.58 270.683 117.44 270.683 117.44C270.683 117.44 270.553 117.57 270.693 117.74C270.843 117.91 271.433 117.48 271.423 117.51C271.423 117.54 271.403 117.71 271.523 117.74C271.643 117.78 272.243 117.39 272.163 117.51C272.093 117.62 272.213 117.64 272.213 117.64C272.213 117.64 272.953 117.15 272.573 117.58C272.193 118.01 270.543 118.82 270.193 118.92C269.843 119.02 269.153 119.15 269.263 119.36C269.373 119.57 269.853 119.24 269.753 119.45C269.653 119.66 269.953 119.64 269.973 119.65C270.003 119.67 271.013 119.24 270.603 119.52C270.193 119.8 269.773 119.98 269.773 120.05C269.773 120.12 270.243 119.88 270.163 120.05C270.083 120.22 270.243 120.2 270.343 120.27C270.443 120.34 271.663 119.62 271.403 119.9C271.143 120.18 271.323 120.32 271.443 120.2C271.573 120.08 271.903 120.04 271.903 120.04C271.903 120.04 271.873 120.1 271.843 120.19C271.813 120.27 271.873 120.36 271.963 120.37C272.203 120.38 272.473 120 272.683 119.87C272.933 119.72 273.043 119.7 273.013 119.92C272.973 120.13 271.993 120.61 272.183 120.79C272.383 120.97 272.983 120.41 272.913 120.61C272.843 120.81 273.063 121.04 273.333 120.78C273.603 120.52 274.023 120.6 274.023 120.6C274.023 120.6 273.613 120.87 273.833 121.1C274.053 121.33 274.863 120.49 274.863 120.49C274.863 120.49 274.713 120.84 274.863 121.02C275.013 121.2 275.183 120.72 275.183 120.72V121.45L274.053 121.72L272.023 123.71C274.413 127.05 295.523 123.22 295.523 123.22L295.333 121.64C295.783 121.89 295.953 121.83 295.953 121.83C295.953 121.83 296.073 121.77 295.993 121.45C296.573 121.87 296.853 121.8 296.853 121.8C296.853 121.8 297.073 121.63 296.633 121.37C297.003 121.4 296.913 121.26 296.913 121.26C296.913 121.26 296.123 120.72 296.523 120.64C296.613 120.62 296.703 120.64 296.783 120.68C297.993 121.28 298.193 121.14 298.193 121.14C298.193 121.14 298.373 121.14 298.213 120.73C298.363 120.89 299.333 121.08 299.343 121C299.343 120.93 299.053 120.66 299.053 120.66C299.053 120.66 300.003 121.01 300.143 120.77C300.283 120.53 300.013 120.34 299.333 120.19C298.653 120.03 297.843 119.53 297.843 119.53C297.843 119.53 297.573 119.01 298.333 119.41C299.083 119.81 299.573 119.69 299.573 119.69C299.573 119.69 299.813 119.69 299.773 119.32C300.283 119.21 300.923 119.15 299.653 118.85V118.8ZM278.453 114.57C278.453 114.57 278.583 114.57 278.703 114.57C278.663 114.6 278.633 114.62 278.593 114.64C278.513 114.6 278.443 114.56 278.443 114.56L278.453 114.57ZM290.603 110.92C290.733 110.92 291.013 110.94 291.273 110.95C291.113 111.04 291.023 111.11 291.043 111.18C291.103 111.45 291.623 111.1 291.623 111.1C291.623 111.1 291.583 111.2 291.643 111.22C291.783 111.42 292.603 110.67 292.103 111.17C291.863 111.41 291.443 111.49 291.093 111.54C290.713 111.21 290.473 110.91 290.603 110.91V110.92ZM291.563 110.67C291.563 110.67 291.693 110.67 291.833 110.67C291.783 110.69 291.743 110.71 291.703 110.74C291.633 110.7 291.563 110.67 291.573 110.67H291.563ZM292.453 109.91C292.453 109.91 292.603 110.02 292.963 109.76C292.913 109.88 292.833 109.98 292.733 110.09C292.593 110.05 292.393 109.97 292.163 109.86C292.303 109.85 292.443 109.72 292.433 109.78C292.423 109.85 292.443 109.91 292.443 109.91H292.453ZM277.943 113.18C277.943 113.18 277.933 113.16 277.923 113.15C277.943 113.15 277.943 113.15 277.943 113.18ZM284.323 114.17C284.553 114.03 284.843 113.89 284.533 114.23C284.513 114.25 284.493 114.27 284.473 114.29C284.423 114.25 284.363 114.21 284.313 114.17H284.323ZM292.433 112.33C292.433 112.33 292.403 112.38 292.383 112.4C292.323 112.37 292.253 112.35 292.193 112.31C292.403 112.21 292.573 112.08 292.433 112.33ZM291.913 112.16C291.913 112.16 291.863 112.13 291.843 112.12C291.953 112.09 292.063 112.05 292.143 112.02C292.063 112.06 291.983 112.11 291.913 112.16ZM292.573 110.23C292.433 110.34 292.263 110.44 292.093 110.54C291.953 110.5 291.663 110.5 291.583 110.33C291.743 110.38 292.233 110.31 292.573 110.24V110.23ZM290.883 113.68C290.973 113.66 291.123 113.68 291.273 113.73C291.183 113.77 291.093 113.82 290.993 113.86C290.863 113.78 290.773 113.71 290.883 113.68ZM278.873 114.45C278.753 114.42 278.523 114.42 278.463 114.28C278.583 114.31 278.903 114.28 279.173 114.23C279.083 114.31 278.973 114.38 278.873 114.46V114.45ZM278.143 114.95C278.053 115.02 277.943 115.07 277.843 115.12C277.643 114.92 277.543 114.78 277.633 114.78C277.763 114.78 278.083 114.8 278.343 114.81C278.263 114.87 278.183 114.92 278.143 114.95ZM277.933 113.19C277.903 113.25 277.853 113.28 277.813 113.3C277.763 113.27 277.713 113.25 277.673 113.22C277.713 113.21 277.753 113.19 277.783 113.18C277.853 113.18 277.913 113.18 277.933 113.18V113.19ZM275.813 120.77C275.853 120.86 275.933 120.89 275.993 120.89L275.833 121.03C275.833 120.94 275.823 120.85 275.813 120.76V120.77ZM276.283 120.58C276.283 120.58 276.313 120.6 276.323 120.61L276.283 120.64C276.283 120.64 276.283 120.6 276.283 120.58ZM290.973 109.02C290.973 109.02 290.823 108.8 290.893 108.85C290.953 108.9 291.333 108.9 291.323 108.85C291.313 108.8 291.173 108.68 291.173 108.68C291.173 108.68 291.613 108.68 291.933 108.66C292.093 108.7 292.393 108.6 292.393 108.6C292.393 108.6 292.313 108.72 292.453 108.77C292.563 108.92 293.173 108.56 293.173 108.56C293.173 108.56 292.843 109.06 292.403 109.19C291.963 109.32 291.633 109.38 291.723 109.55C291.813 109.72 292.063 109.61 292.043 109.63C292.033 109.65 291.973 109.71 291.983 109.77C291.403 109.49 290.703 109.1 290.393 108.94C290.653 109.04 290.963 109.03 290.963 109.03L290.973 109.02ZM285.783 111.26C285.673 111.58 285.073 112.02 284.583 112.35C284.153 112.13 283.703 111.89 283.483 111.77C283.703 111.85 283.953 111.84 283.953 111.84C283.953 111.84 283.833 111.66 283.883 111.7C283.933 111.74 284.253 111.74 284.243 111.7C284.243 111.66 284.123 111.56 284.123 111.56C284.123 111.56 284.803 111.56 284.973 111.52C285.273 111.5 285.923 110.85 285.783 111.27V111.26ZM284.713 111.42C284.713 111.42 284.783 111.42 284.823 111.45C284.793 111.45 284.753 111.43 284.713 111.42ZM285.293 110.63C285.253 110.9 284.633 111.16 284.453 111.33C284.173 111.22 283.883 111.07 283.733 110.97C283.793 110.96 283.853 110.94 283.903 110.92C283.903 110.95 283.923 111 284.003 111.05C284.293 111.27 285.343 110.29 285.293 110.63ZM283.783 110.63C283.753 110.68 283.713 110.72 283.673 110.74C283.613 110.72 283.553 110.7 283.483 110.66C283.683 110.59 283.833 110.53 283.783 110.62V110.63ZM279.633 113.71C279.593 113.81 279.503 113.93 279.373 114.05C279.283 114.02 279.163 113.97 279.023 113.91C279.293 113.82 279.743 113.39 279.633 113.71ZM279.223 113.19C279.193 113.38 278.813 113.57 278.613 113.71C278.513 113.66 278.413 113.61 278.323 113.56C278.663 113.48 279.263 112.96 279.233 113.19H279.223Z" fill="#86C3C3"/>
<path d="M341.113 116.79C339.843 116.49 338.563 115.77 338.513 115.75C338.463 115.73 337.903 115.49 338.113 115.43C338.323 115.38 338.903 115.65 338.993 115.56C339.083 115.47 338.653 115.32 338.813 115.3C338.983 115.28 339.353 115.52 339.713 115.55C340.073 115.59 339.873 115.39 339.753 115.3C339.633 115.2 339.193 114.96 339.393 114.98C339.593 115.01 340.253 115.43 340.473 115.41C340.703 115.38 340.723 115.15 340.743 115.15C340.763 115.15 341.743 115.18 341.273 114.99C340.793 114.8 340.433 114.54 339.613 114.29C338.793 114.04 337.573 112.87 337.833 112.88C338.093 112.88 339.043 112.96 339.053 112.88C339.053 112.8 338.713 112.65 338.723 112.65C338.733 112.65 339.313 112.68 339.283 112.57C339.253 112.46 338.843 112.53 338.743 112.32C339.013 112.4 340.293 112.12 339.923 112.13C339.633 112.13 338.133 111.31 337.653 111.05C337.893 111.14 338.173 111.13 338.173 111.13C338.173 111.13 338.043 110.93 338.093 110.97C338.153 111.02 338.493 111.01 338.483 110.97C338.473 110.93 338.343 110.81 338.343 110.81C338.343 110.81 339.783 110.8 339.173 110.71C338.563 110.62 337.633 110.02 337.763 110.08C337.903 110.13 338.403 109.95 338.123 109.97C337.853 109.99 337.373 109.79 336.773 109.19C337.173 109.37 337.403 109.24 337.403 109.24C337.403 109.24 337.323 109.16 337.313 109.07C337.663 109.19 337.853 109.03 337.853 109.03C337.853 109.03 337.613 108.97 337.523 108.76C338.473 108.96 338.403 108.61 338.403 108.61C338.403 108.61 337.123 108.24 337.093 108.02C337.323 108.04 337.343 107.93 337.343 107.93C337.343 107.93 336.643 107.58 336.253 106.92C336.613 107.09 336.983 107.05 336.983 107.05C336.983 107.05 336.733 106.84 336.953 106.89C337.173 106.94 337.543 106.77 337.403 106.77C337.263 106.77 335.973 105.91 336.203 106.03C336.433 106.15 336.703 106.07 336.703 106.07C336.703 106.07 336.613 106.01 336.583 105.91C336.863 106.02 337.333 105.81 337.093 105.82C336.853 105.82 336.013 105.27 336.143 105.35C336.273 105.43 336.483 105.38 336.483 105.38L336.433 105.31C336.433 105.31 336.953 105.31 336.743 105.26C336.533 105.21 335.603 104.41 335.813 104.52C336.013 104.63 336.143 104.52 336.143 104.52C336.143 104.52 335.483 104.1 335.803 104.23C336.123 104.37 336.453 104.12 336.273 104.09C336.093 104.06 335.743 103.89 335.743 103.89C335.743 103.89 336.103 103.91 335.933 103.81C335.763 103.71 335.543 103.37 335.543 103.37C335.543 103.37 335.923 103.41 335.733 103.27C335.543 103.13 335.403 102.11 335.403 102.11C335.373 103.37 334.983 103.54 334.983 103.54C334.983 103.54 335.023 103.67 335.173 103.63C335.013 103.99 334.493 104.23 334.493 104.23C334.493 104.23 334.703 104.39 335.063 104.18C334.833 104.8 333.853 104.76 334.043 105C334.233 105.24 335.093 104.7 334.913 105.04C334.733 105.38 333.733 105.61 333.883 105.78C334.033 105.95 334.553 105.8 334.553 105.8C334.383 106.13 333.543 106.35 333.333 106.5C332.683 106.33 331.863 105.8 332.003 105.86C332.153 105.92 332.693 105.72 332.393 105.74C332.093 105.76 331.573 105.55 330.933 104.89C331.363 105.08 331.613 104.94 331.613 104.94C331.613 104.94 331.523 104.85 331.513 104.76C331.893 104.89 332.093 104.71 332.093 104.71C332.093 104.71 331.833 104.65 331.733 104.41C332.763 104.63 332.683 104.25 332.683 104.25C332.683 104.25 331.293 103.85 331.263 103.61C331.513 103.63 331.533 103.52 331.533 103.52C331.533 103.52 330.773 103.14 330.343 102.43C330.733 102.61 331.133 102.57 331.133 102.57C331.133 102.57 330.863 102.34 331.103 102.4C331.343 102.46 331.743 102.27 331.583 102.27C331.423 102.27 330.033 101.34 330.283 101.47C330.533 101.6 330.823 101.51 330.823 101.51C330.823 101.51 330.733 101.45 330.693 101.34C330.993 101.46 331.503 101.23 331.243 101.24C330.983 101.24 330.073 100.65 330.213 100.73C330.353 100.82 330.583 100.76 330.583 100.76L330.533 100.68C330.533 100.68 331.093 100.68 330.863 100.63C330.633 100.58 329.633 99.71 329.853 99.83C330.073 99.95 330.213 99.83 330.213 99.83C330.213 99.83 329.493 99.37 329.843 99.52C330.183 99.67 330.553 99.4 330.353 99.37C330.163 99.34 329.773 99.15 329.773 99.15C329.773 99.15 330.163 99.17 329.973 99.06C329.783 98.95 329.553 98.58 329.553 98.58C329.553 98.58 329.963 98.63 329.763 98.47C329.563 98.31 329.403 97.21 329.403 97.21C329.373 98.57 328.943 98.7599 328.943 98.7599C328.943 98.7599 328.983 98.8999 329.143 98.8499C328.973 99.2399 328.403 99.5 328.403 99.5C328.403 99.5 328.633 99.67 329.023 99.45C328.773 100.12 327.713 100.08 327.923 100.34C328.133 100.6 329.063 100.01 328.863 100.39C328.663 100.76 327.583 101.01 327.743 101.19C327.903 101.37 328.463 101.21 328.463 101.21C328.243 101.64 327.023 101.88 327.093 102.05C327.163 102.22 327.693 102.05 327.693 102.05C327.693 102.05 327.603 102.17 327.763 102.24C327.883 102.4 328.543 102.01 328.543 102.01C328.543 102.01 328.183 102.55 327.713 102.69C327.243 102.83 326.883 102.89 326.983 103.08C327.083 103.26 327.353 103.14 327.333 103.17C327.313 103.2 327.183 103.34 327.363 103.4C327.553 103.46 327.773 103.25 327.753 103.32C327.743 103.39 327.763 103.47 327.763 103.47C327.763 103.47 327.923 103.59 328.313 103.31C327.983 104.14 326.163 104.55 326.233 104.85C326.303 105.15 326.853 104.77 326.853 104.77C326.853 104.77 326.803 104.88 326.873 104.9C327.023 105.12 327.923 104.3 327.373 104.84C326.833 105.38 325.433 105.18 325.693 105.44C325.953 105.69 326.513 105.49 326.473 105.53C326.433 105.57 326.113 105.68 326.213 105.74C326.283 105.78 326.403 105.76 326.493 105.74C326.433 105.76 326.393 105.8 326.573 105.88C326.763 105.96 327.153 105.84 327.413 105.74C327.313 105.79 327.213 105.85 327.133 105.92C327.033 106.01 327.123 106.18 327.253 106.15C327.553 106.07 327.923 105.74 327.723 106.09C327.463 106.55 325.943 106.96 326.283 107.19C326.623 107.42 327.373 106.67 327.023 107.21C326.763 107.61 325.263 108.1 324.563 108.43C324.423 108.33 324.273 108.2 324.113 108.04C324.473 108.2 324.683 108.08 324.683 108.08C324.683 108.08 324.613 108.01 324.603 107.93C324.923 108.04 325.083 107.89 325.083 107.89C325.083 107.89 324.863 107.84 324.783 107.64C325.643 107.82 325.583 107.51 325.583 107.51C325.583 107.51 324.423 107.17 324.393 106.97C324.603 106.98 324.623 106.89 324.623 106.89C324.623 106.89 323.993 106.57 323.633 105.98C323.953 106.13 324.293 106.1 324.293 106.1C324.293 106.1 324.073 105.91 324.273 105.96C324.473 106.01 324.813 105.85 324.683 105.85C324.553 105.85 323.393 105.07 323.603 105.18C323.813 105.29 324.053 105.21 324.053 105.21C324.053 105.21 323.973 105.16 323.943 105.07C324.193 105.17 324.623 104.98 324.403 104.99C324.193 104.99 323.423 104.5 323.543 104.57C323.663 104.64 323.853 104.6 323.853 104.6L323.803 104.53C323.803 104.53 324.273 104.53 324.083 104.48C323.893 104.43 323.053 103.71 323.233 103.81C323.413 103.91 323.533 103.81 323.533 103.81C323.533 103.81 322.933 103.43 323.223 103.55C323.513 103.67 323.813 103.45 323.653 103.43C323.493 103.4 323.173 103.25 323.173 103.25C323.173 103.25 323.503 103.27 323.343 103.18C323.183 103.09 322.993 102.78 322.993 102.78C322.993 102.78 323.333 102.82 323.173 102.69C323.003 102.56 322.873 101.64 322.873 101.64C322.843 102.78 322.493 102.94 322.493 102.94C322.493 102.94 322.533 103.06 322.663 103.02C322.523 103.34 322.043 103.56 322.043 103.56C322.043 103.56 322.233 103.7 322.563 103.52C322.353 104.08 321.463 104.05 321.643 104.27C321.823 104.49 322.593 104 322.433 104.31C322.263 104.62 321.363 104.83 321.493 104.98C321.623 105.13 322.103 105 322.103 105C321.923 105.36 320.903 105.56 320.963 105.7C321.023 105.84 321.463 105.7 321.463 105.7C321.463 105.7 321.393 105.8 321.523 105.86C321.623 106 322.173 105.67 322.173 105.67C322.173 105.67 321.873 106.12 321.473 106.24C321.073 106.36 320.783 106.41 320.863 106.56C320.943 106.71 321.173 106.61 321.153 106.64C321.143 106.66 321.023 106.78 321.183 106.84C321.343 106.89 321.523 106.71 321.513 106.77C321.503 106.83 321.523 106.89 321.523 106.89C321.523 106.89 321.653 106.99 321.983 106.76C321.703 107.45 320.183 107.8 320.243 108.05C320.303 108.3 320.763 107.98 320.763 107.98C320.763 107.98 320.723 108.07 320.773 108.09C320.903 108.27 321.643 107.59 321.193 108.04C320.743 108.49 319.573 108.33 319.793 108.54C320.013 108.75 320.483 108.58 320.443 108.61C320.413 108.64 320.143 108.74 320.233 108.79C320.283 108.82 320.393 108.81 320.463 108.79C320.413 108.81 320.383 108.84 320.533 108.91C320.693 108.98 321.023 108.88 321.243 108.8C321.163 108.84 321.073 108.89 321.003 108.95C320.913 109.03 320.993 109.17 321.103 109.14C321.353 109.08 321.663 108.8 321.503 109.09C321.293 109.47 320.013 109.82 320.293 110.01C320.573 110.21 321.203 109.58 320.913 110.02C320.783 110.22 320.303 110.44 319.803 110.64C319.353 110.46 318.933 110.18 319.023 110.22C319.143 110.27 319.603 110.11 319.353 110.12C319.103 110.13 318.673 109.96 318.133 109.41C318.493 109.57 318.703 109.45 318.703 109.45C318.703 109.45 318.633 109.38 318.623 109.3C318.943 109.41 319.103 109.26 319.103 109.26C319.103 109.26 318.883 109.21 318.803 109.01C319.663 109.19 319.603 108.88 319.603 108.88C319.603 108.88 318.443 108.54 318.413 108.34C318.623 108.35 318.643 108.26 318.643 108.26C318.643 108.26 318.013 107.94 317.653 107.35C317.973 107.5 318.313 107.47 318.313 107.47C318.313 107.47 318.093 107.28 318.293 107.33C318.493 107.38 318.833 107.22 318.703 107.22C318.573 107.22 317.413 106.44 317.623 106.55C317.833 106.66 318.073 106.58 318.073 106.58C318.073 106.58 317.993 106.53 317.963 106.44C318.213 106.54 318.643 106.35 318.423 106.36C318.213 106.36 317.443 105.87 317.563 105.94C317.683 106.01 317.873 105.97 317.873 105.97L317.823 105.9C317.823 105.9 318.293 105.9 318.103 105.85C317.913 105.8 317.073 105.08 317.253 105.18C317.433 105.28 317.553 105.18 317.553 105.18C317.553 105.18 316.953 104.8 317.243 104.92C317.533 105.04 317.833 104.82 317.673 104.8C317.513 104.77 317.193 104.62 317.193 104.62C317.193 104.62 317.523 104.64 317.363 104.55C317.203 104.46 317.013 104.15 317.013 104.15C317.013 104.15 317.353 104.19 317.193 104.06C317.023 103.93 316.893 103.01 316.893 103.01C316.863 104.15 316.513 104.31 316.513 104.31C316.513 104.31 316.553 104.43 316.683 104.39C316.543 104.71 316.063 104.93 316.063 104.93C316.063 104.93 316.253 105.07 316.583 104.89C316.373 105.45 315.483 105.42 315.663 105.64C315.843 105.86 316.613 105.37 316.453 105.68C316.283 105.99 315.383 106.2 315.513 106.35C315.643 106.5 316.123 106.37 316.123 106.37C315.943 106.73 314.923 106.93 314.983 107.07C315.043 107.21 315.483 107.07 315.483 107.07C315.483 107.07 315.413 107.17 315.543 107.23C315.643 107.37 316.193 107.04 316.193 107.04C316.193 107.04 315.893 107.49 315.493 107.61C315.093 107.73 314.803 107.78 314.883 107.93C314.963 108.08 315.193 107.98 315.173 108.01C315.163 108.03 315.043 108.15 315.203 108.21C315.363 108.26 315.543 108.08 315.533 108.14C315.523 108.2 315.543 108.26 315.543 108.26C315.543 108.26 315.673 108.36 316.003 108.13C315.723 108.82 314.203 109.17 314.263 109.42C314.323 109.67 314.783 109.35 314.783 109.35C314.783 109.35 314.743 109.44 314.793 109.46C314.923 109.64 315.663 108.96 315.213 109.41C314.763 109.86 313.593 109.7 313.813 109.91C314.033 110.12 314.503 109.95 314.463 109.98C314.433 110.01 314.163 110.11 314.253 110.16C314.303 110.19 314.413 110.18 314.483 110.16C314.433 110.18 314.403 110.21 314.553 110.28C314.713 110.35 315.043 110.25 315.263 110.17C315.183 110.21 315.093 110.26 315.023 110.32C314.933 110.39 315.013 110.54 315.123 110.51C315.373 110.45 315.683 110.17 315.523 110.46C315.313 110.84 314.033 111.19 314.313 111.38C314.593 111.58 315.223 110.95 314.933 111.39C314.643 111.84 312.453 112.43 312.563 112.64C312.673 112.85 313.483 112.36 313.383 112.54C313.283 112.73 313.013 112.66 313.113 112.8C313.173 112.88 313.353 112.84 313.493 112.79C313.493 112.82 313.513 112.85 313.573 112.9C313.813 113.08 314.693 112.26 314.653 112.55C314.613 112.84 313.803 113.11 313.923 113.22C314.043 113.34 314.133 113.1 314.313 113.26C314.493 113.42 315.203 112.67 315.073 113.07C314.933 113.47 313.893 114.08 313.603 114.31C313.303 114.53 312.893 114.58 312.993 114.66C313.093 114.74 313.433 114.41 313.193 114.74C312.953 115.07 311.543 115.28 311.613 115.42C311.673 115.56 312.143 115.42 312.143 115.42C312.143 115.42 312.013 115.55 312.153 115.72C312.303 115.89 312.893 115.46 312.883 115.49C312.883 115.52 312.863 115.69 312.983 115.72C313.103 115.76 313.703 115.37 313.623 115.49C313.553 115.6 313.673 115.62 313.673 115.62C313.673 115.62 314.413 115.13 314.033 115.56C313.653 115.99 312.003 116.8 311.653 116.9C311.303 117 310.613 117.13 310.723 117.34C310.833 117.55 311.313 117.22 311.213 117.43C311.113 117.64 311.413 117.62 311.433 117.63C311.463 117.65 312.473 117.22 312.063 117.5C311.653 117.78 311.233 117.96 311.233 118.03C311.233 118.1 311.703 117.86 311.623 118.03C311.543 118.2 311.703 118.18 311.803 118.25C311.903 118.32 313.123 117.6 312.863 117.88C312.603 118.16 312.783 118.3 312.903 118.18C313.033 118.06 313.363 118.02 313.363 118.02C313.363 118.02 313.333 118.08 313.303 118.17C313.273 118.25 313.333 118.34 313.423 118.35C313.663 118.36 313.933 117.98 314.143 117.85C314.393 117.7 314.503 117.68 314.473 117.9C314.433 118.11 313.453 118.59 313.643 118.77C313.843 118.95 314.443 118.39 314.373 118.59C314.303 118.79 314.523 119.02 314.793 118.76C315.063 118.5 315.483 118.58 315.483 118.58C315.483 118.58 315.073 118.85 315.293 119.08C315.513 119.31 316.323 118.47 316.323 118.47C316.323 118.47 316.173 118.82 316.323 119C316.473 119.18 316.643 118.7 316.643 118.7V119.43L315.513 119.7L313.483 121.69C315.873 125.03 336.983 121.2 336.983 121.2L336.793 119.62C337.243 119.87 337.413 119.81 337.413 119.81C337.413 119.81 337.533 119.75 337.453 119.43C338.033 119.85 338.313 119.78 338.313 119.78C338.313 119.78 338.533 119.61 338.093 119.35C338.463 119.38 338.373 119.24 338.373 119.24C338.373 119.24 337.583 118.7 337.983 118.62C338.073 118.6 338.163 118.62 338.243 118.66C339.453 119.26 339.653 119.12 339.653 119.12C339.653 119.12 339.833 119.12 339.673 118.71C339.823 118.87 340.793 119.06 340.803 118.98C340.803 118.91 340.513 118.64 340.513 118.64C340.513 118.64 341.463 118.99 341.603 118.75C341.743 118.51 341.473 118.32 340.793 118.17C340.113 118.01 339.303 117.51 339.303 117.51C339.303 117.51 339.033 116.99 339.793 117.39C340.543 117.79 341.033 117.67 341.033 117.67C341.033 117.67 341.273 117.67 341.233 117.3C341.743 117.19 342.383 117.13 341.113 116.83V116.79ZM319.913 112.56C319.913 112.56 320.043 112.56 320.163 112.56C320.123 112.59 320.093 112.61 320.053 112.63C319.973 112.59 319.903 112.55 319.903 112.55L319.913 112.56ZM332.063 108.91C332.193 108.91 332.473 108.93 332.733 108.94C332.573 109.03 332.483 109.1 332.503 109.17C332.563 109.44 333.083 109.09 333.083 109.09C333.083 109.09 333.043 109.19 333.103 109.21C333.243 109.41 334.063 108.66 333.563 109.16C333.323 109.4 332.903 109.48 332.553 109.53C332.173 109.2 331.933 108.9 332.063 108.9V108.91ZM333.023 108.66C333.023 108.66 333.153 108.66 333.293 108.66C333.243 108.68 333.203 108.7 333.163 108.73C333.093 108.69 333.023 108.66 333.033 108.66H333.023ZM333.913 107.9C333.913 107.9 334.063 108.01 334.423 107.75C334.373 107.87 334.293 107.97 334.193 108.08C334.053 108.04 333.853 107.96 333.623 107.85C333.763 107.84 333.903 107.71 333.893 107.77C333.883 107.84 333.903 107.9 333.903 107.9H333.913ZM319.403 111.17C319.403 111.17 319.393 111.15 319.383 111.14C319.403 111.14 319.403 111.14 319.403 111.17ZM325.783 112.16C326.013 112.02 326.303 111.88 325.993 112.22C325.973 112.24 325.953 112.26 325.933 112.28C325.883 112.24 325.823 112.2 325.773 112.16H325.783ZM333.893 110.32C333.893 110.32 333.863 110.37 333.843 110.39C333.783 110.36 333.713 110.34 333.653 110.3C333.863 110.2 334.033 110.07 333.893 110.32ZM333.373 110.15C333.373 110.15 333.323 110.12 333.303 110.11C333.413 110.08 333.523 110.04 333.603 110.01C333.523 110.05 333.443 110.1 333.373 110.15ZM334.033 108.22C333.893 108.33 333.723 108.43 333.553 108.53C333.413 108.49 333.123 108.49 333.043 108.32C333.203 108.37 333.693 108.3 334.033 108.23V108.22ZM332.343 111.67C332.433 111.65 332.583 111.67 332.733 111.72C332.643 111.76 332.553 111.81 332.453 111.85C332.323 111.77 332.233 111.7 332.343 111.67ZM320.333 112.44C320.213 112.41 319.983 112.41 319.923 112.27C320.043 112.3 320.363 112.27 320.633 112.22C320.543 112.3 320.433 112.37 320.333 112.45V112.44ZM319.603 112.94C319.513 113.01 319.403 113.06 319.303 113.11C319.103 112.91 319.003 112.77 319.093 112.77C319.223 112.77 319.543 112.79 319.803 112.8C319.723 112.86 319.643 112.91 319.603 112.94ZM319.393 111.18C319.363 111.24 319.313 111.27 319.273 111.29C319.223 111.26 319.173 111.24 319.133 111.21C319.173 111.2 319.213 111.18 319.243 111.17C319.313 111.17 319.373 111.17 319.393 111.17V111.18ZM317.273 118.76C317.313 118.85 317.393 118.88 317.453 118.88L317.293 119.02C317.293 118.93 317.283 118.84 317.273 118.75V118.76ZM317.743 118.57C317.743 118.57 317.773 118.59 317.783 118.6L317.743 118.63C317.743 118.63 317.743 118.59 317.743 118.57ZM332.433 107.01C332.433 107.01 332.283 106.79 332.353 106.84C332.413 106.89 332.793 106.89 332.783 106.84C332.773 106.79 332.633 106.67 332.633 106.67C332.633 106.67 333.073 106.67 333.393 106.65C333.553 106.69 333.853 106.59 333.853 106.59C333.853 106.59 333.773 106.7 333.913 106.76C334.023 106.91 334.633 106.55 334.633 106.55C334.633 106.55 334.303 107.05 333.863 107.18C333.423 107.31 333.093 107.37 333.183 107.54C333.273 107.71 333.523 107.6 333.503 107.62C333.493 107.64 333.433 107.7 333.443 107.76C332.863 107.48 332.163 107.09 331.853 106.93C332.113 107.03 332.423 107.02 332.423 107.02L332.433 107.01ZM327.243 109.25C327.133 109.57 326.533 110.01 326.043 110.34C325.613 110.12 325.163 109.88 324.943 109.76C325.163 109.84 325.413 109.83 325.413 109.83C325.413 109.83 325.293 109.65 325.343 109.69C325.393 109.73 325.713 109.73 325.703 109.69C325.703 109.65 325.583 109.55 325.583 109.55C325.583 109.55 326.263 109.55 326.433 109.51C326.733 109.49 327.383 108.84 327.243 109.26V109.25ZM326.173 109.41C326.173 109.41 326.243 109.41 326.283 109.44C326.253 109.44 326.213 109.42 326.173 109.41ZM326.753 108.62C326.713 108.89 326.093 109.15 325.913 109.32C325.633 109.21 325.343 109.06 325.193 108.96C325.253 108.95 325.313 108.93 325.363 108.91C325.363 108.94 325.383 108.99 325.463 109.04C325.753 109.26 326.803 108.28 326.753 108.62ZM325.243 108.62C325.213 108.67 325.173 108.71 325.133 108.73C325.073 108.71 325.013 108.69 324.943 108.65C325.143 108.58 325.293 108.52 325.243 108.61V108.62ZM321.093 111.7C321.053 111.8 320.963 111.92 320.833 112.04C320.743 112.01 320.623 111.96 320.483 111.9C320.753 111.81 321.203 111.38 321.093 111.7ZM320.683 111.18C320.653 111.37 320.273 111.56 320.073 111.7C319.973 111.65 319.873 111.6 319.783 111.55C320.123 111.47 320.723 110.95 320.693 111.18H320.683Z" fill="#86C3C3"/>
</g>
</svg>
