<svg width="472" height="258" viewBox="0 0 472 258" fill="none" xmlns="http://www.w3.org/2000/svg">
<mask id="mask0_14_283" style="mask-type:alpha" maskUnits="userSpaceOnUse" x="0" y="0" width="472" height="258">
<path d="M0 0L472 -2.6734e-08L472 258L1.46131e-08 258L0 0Z" fill="#D9D9D9"/>
</mask>
<g mask="url(#mask0_14_283)">
<path d="M242.43 190.356C243.24 190.456 243.81 190.616 244.17 190.836C246.1 190.646 248.41 190.546 250.85 190.496C257.16 186.486 271.27 178.566 284.95 178.156C288.56 178.046 292.13 177.256 295.44 175.806C317.55 166.126 326.28 159.556 333.54 159.686C333.54 159.686 327.95 156.386 328.53 154.246C329.1 152.096 330.82 153.816 331.4 154.246C331.97 154.676 336.7 157.546 338.13 157.826C339.56 158.116 341.28 158.546 344.15 157.966C347.02 157.396 344.58 155.816 343.43 155.386C342.28 154.956 342 156.106 340.13 154.386C338.27 152.666 334.88 153.386 334.59 152.956C334.3 152.526 334.06 151.806 333.87 151.236C333.68 150.666 333.92 150.186 333.68 149.616C333.44 149.046 333.06 147.896 333.06 147.896C333.06 147.896 333.35 148.226 335.54 149.136C337.74 150.046 339.98 150.756 343.66 151.236C347.34 151.716 347.62 147.176 347.62 147.176C347.62 147.176 345.47 146.696 344.8 146.506C344.13 146.316 343.94 146.316 343.18 145.936C342.42 145.556 341.08 145.506 340.79 144.746C340.69 144.486 340.42 144.216 340.17 143.976C326.3 144.916 325.77 150.576 320.83 151.286C300.53 146.936 306.36 155.396 294.33 155.056C282.3 154.726 282.2 160.786 279.53 160.646C277.86 160.556 275.77 161.276 274.44 161.816C273.73 162.106 273.06 162.486 272.44 162.936C270.67 164.216 265.89 167.266 262.67 165.666C266.3 165.286 268.11 160.796 267.97 160.796C267.83 160.796 260.71 161.606 263.67 160.696C266.63 159.786 267.82 157.166 267.16 156.976C266.49 156.786 261.24 157.786 263.48 156.546C265.72 155.306 268.06 152.296 267.49 152.246C266.92 152.196 261.47 154.776 263.05 153.056C264.63 151.336 266.35 147.376 264.37 148.706C262.4 150.046 262.23 148.516 262.23 148.516C262.23 148.516 265.1 145.366 264.19 145.556C263.28 145.746 261.42 146.896 261.52 146.416C261.62 145.936 263.05 144.936 263.29 143.546C263.53 142.166 261.24 142.356 261.43 140.826C261.62 139.296 261.72 139.206 261.43 139.156C261.14 139.106 260.19 136.956 259.42 133.616C258.66 130.276 259.28 129.126 258.08 130.896C256.89 132.666 258.18 137.346 256.6 136.676C255.02 136.006 255.55 136.726 255.55 137.866C255.55 139.006 255.22 140.156 255.22 140.156C255.22 140.156 253.64 140.346 253.55 141.926C253.45 143.506 256.37 148.466 253.41 147.896C250.45 147.326 250.4 145.746 251.17 147.606C251.93 149.466 252.94 154.626 252.94 154.626C252.94 154.626 250.79 148.986 250.17 151.856C249.55 154.726 252.25 159.406 252.25 159.406C252.25 159.406 248.17 156.326 248.02 157.256C247.81 160.906 257.05 164.776 252.96 164.776C248.87 164.776 248.81 159.476 248.09 161.696C247.37 163.916 250.26 167.566 250.26 167.566C250.26 167.566 238.89 164.226 224.19 171.286C213.7 176.326 201.9 178.206 196 178.876C196.23 179.016 196.46 179.156 196.69 179.306C208.25 186.856 231.98 189.046 242.44 190.336L242.43 190.356Z" fill="#729141"/>
<path d="M476.5 161.5C462.62 167.989 379.034 124.437 364.953 130.112C342.295 139.235 333.45 147.24 315.067 165.579C302.415 166.164 255.554 163.067 215.112 174.184C196.917 176.044 173.287 166.672 143.53 165.579C94.9561 152.353 49.7552 162.373 -6.5 158L0 235L482.5 240C482.5 164.831 478.688 237.084 476.5 161.5ZM405.08 116.402C405.01 116.646 404.957 116.786 404.94 116.786C404.905 116.786 404.966 116.646 405.08 116.402ZM39.9872 108.297C40.153 108.297 40.1131 107.628 39.9872 108.297Z" fill="#729041"/>
<path d="M321.691 147.707C321.807 148.231 321.912 148.754 322.028 149.277C322.112 149.523 322.261 149.705 322.303 150.026L322.239 150.025C322.154 149.876 322.09 149.801 321.898 149.747C321.961 150.046 322.035 150.334 322.098 150.633L322.034 150.633L322.035 150.569C321.918 150.43 321.811 150.291 321.694 150.163L321.555 150.162C321.555 150.162 321.513 150.066 321.492 150.023L321.353 150.023L321.353 149.959L321.289 149.959L321.29 149.82L321.225 149.82L321.226 149.617L321.162 149.617L321.163 149.414L321.099 149.414L321.1 149.072L321.035 149.072L321.037 148.453L320.973 148.452C320.878 148.11 320.978 146.723 321.043 146.478C321.089 145.549 321.145 144.61 321.19 143.681L321.051 143.681C320.954 143.979 320.868 144.267 320.771 144.566C320.725 145.793 320.668 147.021 320.622 148.248L320.616 150.021L320.68 150.021L320.677 151.184L320.741 151.185L320.739 151.804C320.824 152.092 321.249 152.691 321.077 153.171L321.013 153.171L321.012 153.31L320.948 153.31C320.927 153.406 320.905 153.491 320.883 153.587C320.841 153.608 320.798 153.629 320.744 153.651L320.744 153.789C320.68 153.832 320.605 153.885 320.541 153.928L320.54 154.066C320.54 154.066 320.455 154.109 320.401 154.13L320.401 154.269L320.337 154.269C320.315 154.386 320.294 154.493 320.272 154.61L320.208 154.61L320.207 154.749L320.143 154.748C320.1 154.887 320.046 155.026 320.003 155.154L319.939 155.154L319.939 155.356L319.875 155.356L319.874 155.495L319.81 155.495L319.81 155.698L319.746 155.697L319.745 155.836L319.681 155.836C319.659 155.975 319.638 156.113 319.616 156.241L319.552 156.241L319.551 156.38L319.487 156.38L319.487 156.583L319.423 156.582L319.422 156.785L319.358 156.785L319.357 156.988L319.293 156.988L319.293 157.191L319.229 157.19C319.164 157.489 319.088 157.777 319.023 158.076L318.959 158.076L318.959 158.279L318.895 158.278L318.894 158.481L318.83 158.481L318.829 158.684L318.765 158.684C318.743 158.844 318.722 159.004 318.7 159.164L318.636 159.164C318.614 159.345 318.592 159.526 318.57 159.708L318.506 159.708C318.398 160.038 318.514 160.583 318.3 160.796C318.15 160.945 317.776 160.933 317.478 160.932C316.858 160.931 316.101 160.736 315.974 160.245L315.91 160.244L315.911 159.967C316.114 159.903 316.317 159.829 316.52 159.766L316.585 159.627L316.723 159.628C316.723 159.628 316.766 159.532 316.788 159.489L316.927 159.49L316.991 159.351L317.13 159.351L317.194 159.213L317.333 159.213C317.333 159.213 317.376 159.117 317.398 159.075L317.536 159.075C317.536 159.075 317.579 158.979 317.601 158.936L317.665 158.937C317.708 158.798 317.762 158.659 317.805 158.531C317.848 158.51 317.901 158.489 317.944 158.468C317.966 158.35 317.987 158.244 318.009 158.126L318.073 158.126C318.095 158.03 318.116 157.945 318.138 157.849L318.202 157.849L318.202 157.646L318.267 157.647L318.267 157.444L318.331 157.444C318.353 157.284 318.375 157.124 318.397 156.964L318.461 156.964L318.462 156.697L318.526 156.697L318.527 156.356L318.591 156.356L318.592 155.95L318.656 155.95C318.678 155.545 318.701 155.129 318.724 154.723C318.875 154.19 318.879 152.599 318.731 152.065C318.711 151.606 318.691 151.157 318.671 150.698C318.587 150.313 318.492 149.929 318.397 149.534C318.322 149.587 318.397 149.534 318.333 149.597C318.151 149.768 318.215 149.896 318.129 150.141L318.065 150.141L318.064 150.483C317.87 151.091 317.857 151.859 317.854 152.671C317.853 153.087 317.926 153.653 317.786 153.962L317.722 153.962L317.722 154.101C317.722 154.101 317.636 154.143 317.583 154.164L317.583 154.303C317.583 154.303 317.497 154.346 317.444 154.367L317.443 154.506C317.325 154.601 317.218 154.686 317.101 154.782C316.854 155.059 316.597 155.325 316.351 155.602C316.19 155.74 316.03 155.879 315.869 156.006L315.869 156.145C315.751 156.241 315.644 156.326 315.527 156.422L315.526 156.56C315.462 156.603 315.387 156.656 315.323 156.698L315.323 156.837L315.119 156.975C315.098 157.071 315.076 157.157 315.054 157.253C315.012 157.274 314.969 157.295 314.915 157.316C314.894 157.38 314.872 157.455 314.851 157.519L314.787 157.519C314.744 157.658 314.7 157.796 314.647 157.924C314.604 157.945 314.551 157.967 314.508 157.988C314.465 158.126 314.411 158.265 314.368 158.393C314.325 158.414 314.272 158.436 314.229 158.457L314.228 158.595L314.164 158.595L314.164 158.734L314.025 158.872L314.024 159.011C314.024 159.011 313.939 159.054 313.885 159.075C313.724 159.437 313.563 159.8 313.402 160.162C313.359 160.184 313.306 160.205 313.263 160.226L313.262 160.365L313.198 160.365C313.155 160.503 313.112 160.642 313.058 160.77C312.919 160.791 312.781 160.812 312.653 160.833L312.652 160.897C312.503 160.928 312.45 160.832 312.45 160.832L311.702 160.83L311.703 160.766C311.457 160.744 311.201 160.722 310.955 160.7C310.689 160.613 310.358 160.484 310.07 160.419C310.049 160.377 310.028 160.323 310.007 160.28C310.135 160.206 310.285 160.068 310.413 160.004L310.616 160.005L310.616 159.941L310.819 159.941L310.819 159.877L311.022 159.878L311.022 159.814L311.225 159.814L311.225 159.75L311.503 159.751L311.503 159.687C311.685 159.613 311.898 159.645 312.048 159.55C312.069 159.507 312.091 159.454 312.112 159.411L312.251 159.412C312.294 159.348 312.337 159.273 312.39 159.209L312.454 159.209L312.455 159.071C312.573 158.975 312.68 158.89 312.797 158.794L312.798 158.655C312.862 158.613 312.937 158.56 313.001 158.517L313.001 158.378C313.001 158.378 313.098 158.336 313.14 158.315L313.141 158.176C313.141 158.176 313.226 158.133 313.28 158.112C313.301 158.016 313.323 157.931 313.345 157.835C313.387 157.814 313.441 157.793 313.484 157.771L313.484 157.632L313.623 157.494C313.666 157.355 313.72 157.217 313.763 157.089C313.806 157.068 313.859 157.046 313.902 157.025L313.903 156.886L313.967 156.887C313.988 156.791 314.01 156.705 314.031 156.609L314.096 156.609L314.096 156.407L314.16 156.407L314.161 156.268L314.225 156.268C314.246 156.172 314.268 156.087 314.289 155.991L314.354 155.991L314.354 155.788L314.418 155.788C314.44 155.692 314.461 155.607 314.483 155.511L314.547 155.511C314.87 154.583 315.193 153.645 315.516 152.717L315.517 152.44L315.581 152.44L315.582 152.162L315.646 152.162L315.647 151.885L315.711 151.885L315.712 151.543L315.776 151.544L315.777 151.138L315.841 151.138L315.842 150.732L315.906 150.733L315.908 150.049L315.972 150.05L315.975 149.163L315.911 149.163L315.913 148.544L315.849 148.544L315.85 148.202L315.786 148.202L315.787 147.925L315.723 147.924L315.724 147.519L315.66 147.519L315.661 147.038L315.597 147.038L315.602 145.405L315.666 145.405C315.763 145.149 315.795 145.042 315.807 144.722C315.636 144.625 315.572 144.583 315.263 144.582C315.134 144.741 314.952 144.805 314.781 144.922C314.76 144.964 314.738 145.018 314.717 145.06L314.578 145.06L314.578 145.124C314.492 145.145 314.396 145.166 314.311 145.187C314.289 145.23 314.268 145.283 314.246 145.326C314.107 145.347 313.969 145.368 313.84 145.389L313.84 145.453L313.701 145.452L313.701 145.516C313.178 145.632 312.654 145.738 312.131 145.853L311.309 145.851C311.085 145.914 309.91 145.996 309.601 145.91L309.601 145.846L308.437 145.842L308.437 145.778C307.69 145.734 306.932 145.689 306.185 145.633C306.142 145.75 306.121 145.846 306.12 146.038C306.002 146.177 306.118 146.626 306.117 146.925C306.116 147.597 306.167 148.238 306.315 148.772L306.313 149.252L306.378 149.253L306.376 149.658C306.493 150.011 306.874 150.93 306.712 151.506L306.648 151.506C306.626 151.709 306.604 151.911 306.583 152.125L306.518 152.125C306.4 152.423 306.174 153.191 306.311 153.693C306.406 154.046 306.479 154.527 306.585 154.858L306.584 155.199L306.648 155.2L306.647 155.477L306.711 155.477C306.732 155.638 306.753 155.798 306.774 155.958L306.838 155.958L306.837 156.161L306.902 156.161C306.922 156.343 306.943 156.524 306.964 156.706L307.028 156.706C307.144 157.112 306.95 157.88 306.821 158.072C306.757 158.114 306.682 158.168 306.618 158.21L306.618 158.349L306.553 158.349C306.521 158.466 306.617 158.466 306.617 158.488L306.616 158.829L306.68 158.829C306.743 159.107 306.647 159.118 306.476 159.17L306.476 159.234L306.07 159.233C305.472 159.402 304.554 159.282 304.096 159.089C304.075 159.025 304.054 158.95 304.032 158.886C304.097 158.843 304.171 158.801 304.236 158.747L304.236 158.683C304.321 158.662 304.417 158.641 304.514 158.62C304.535 158.578 304.557 158.524 304.578 158.482C304.664 158.46 304.76 158.439 304.856 158.418C304.877 158.376 304.899 158.322 304.92 158.28L305.059 158.28C305.198 158.12 305.338 157.961 305.466 157.801L305.467 157.662L305.531 157.662C305.681 157.311 305.642 156.051 305.536 155.687C305.495 155.164 305.454 154.641 305.402 154.118L305.338 154.118L305.339 153.776L305.275 153.776L305.276 153.434L305.212 153.434L305.213 153.156L305.149 153.156C305.128 152.996 305.107 152.836 305.086 152.676L305.022 152.675L305.023 152.537L304.959 152.536C304.938 152.44 304.916 152.355 304.895 152.259L304.831 152.258L304.832 152.056L304.768 152.055L304.769 151.778C304.652 151.425 304.6 150.902 304.495 150.549C304.41 150.25 304.54 149.856 304.359 149.663C304.376 151.029 304.042 151.968 303.73 153.003C303.707 153.526 303.684 154.049 303.661 154.572C303.488 155.169 303.486 155.98 303.313 156.546L303.312 156.951L303.108 157.57L303.044 157.57L303.043 157.708L302.979 157.708C302.839 158.113 303.361 158.478 303.179 158.734L303.179 158.798L302.634 158.796L302.634 158.86C302.271 158.955 300.819 158.823 300.659 158.716L300.66 158.651C300.521 158.534 300.478 158.566 300.458 158.309C300.618 158.192 300.779 158.086 300.939 157.969L301.142 157.97L301.142 157.906C301.271 157.842 301.848 157.651 301.891 157.566L301.891 157.427L301.955 157.428C301.977 157.31 301.998 157.204 302.02 157.086L302.084 157.086L302.085 156.809L302.149 156.809L302.15 156.606L302.214 156.606L302.214 156.329C302.365 155.892 302.431 155.283 302.561 154.825C302.583 154.579 302.605 154.323 302.627 154.077C302.681 153.885 302.94 153 302.834 152.712L302.77 152.711L302.77 152.573C302.77 152.573 302.685 152.53 302.631 152.508L302.632 152.369C302.515 152.284 302.408 152.187 302.291 152.091C302.195 151.952 302.069 151.364 302.155 151.066C302.306 150.532 302.415 149.828 302.566 149.295L302.568 148.547L302.632 148.548C302.633 148.494 302.569 148.419 302.569 148.27C302.531 146.818 302.267 145.803 301.832 144.787L301.833 144.585L301.769 144.584L301.769 144.446L301.705 144.445L301.706 144.243L301.642 144.242L301.642 144.104L301.578 144.103C301.557 144.007 301.536 143.922 301.515 143.826C301.451 143.783 301.376 143.729 301.312 143.686L301.313 143.548C301.217 143.483 301.132 143.408 301.036 143.344L301.036 143.28L300.897 143.279C300.897 143.279 300.855 143.194 300.834 143.14L300.695 143.14L300.695 143.076C300.61 143.054 300.514 143.033 300.418 143.011L300.418 142.947C300.279 142.925 300.151 142.904 300.012 142.882L300.013 142.818L299.735 142.817L299.735 142.753C299.575 142.774 299.415 142.795 299.255 142.816C298.55 142.792 297.846 142.769 297.141 142.745L297.141 142.681L296.8 142.68L296.8 142.616L296.522 142.615L296.522 142.551L296.32 142.551L296.32 142.487L296.117 142.486L296.117 142.422C296.021 142.4 295.936 142.379 295.84 142.357L295.84 142.293L295.637 142.292C295.637 142.292 295.595 142.196 295.574 142.153C295.488 142.132 295.392 142.11 295.307 142.089L295.243 141.95L295.104 141.949L295.105 141.885L294.902 141.82C294.902 141.82 294.859 141.735 294.838 141.682L294.7 141.681C294.455 141.403 294.199 141.135 293.955 140.857C293.752 140.675 293.55 140.493 293.348 140.311L293.348 140.172C293.146 139.99 292.944 139.808 292.731 139.626L292.731 139.487C292.646 139.423 292.55 139.348 292.454 139.283L292.454 139.144C292.359 139.08 292.273 139.005 292.178 138.941L292.178 138.802C292.178 138.802 292.093 138.759 292.039 138.738L292.04 138.599C291.976 138.556 291.901 138.513 291.837 138.459L291.838 138.321C291.838 138.321 291.752 138.278 291.699 138.256L291.7 138.117C291.636 138.074 291.561 138.021 291.497 137.978L291.498 137.839C291.498 137.839 291.402 137.796 291.359 137.775C291.338 137.711 291.317 137.636 291.296 137.572L291.231 137.572C291.21 137.486 291.189 137.39 291.168 137.294C291.126 137.272 291.083 137.251 291.03 137.229C291.009 137.133 290.987 137.048 290.966 136.952C290.924 136.93 290.881 136.909 290.828 136.887C290.807 136.791 290.786 136.705 290.765 136.609C290.722 136.588 290.679 136.566 290.626 136.545C290.605 136.449 290.584 136.363 290.563 136.267L290.499 136.267C290.456 136.128 290.403 135.989 290.361 135.861L290.297 135.861L290.298 135.658L290.234 135.658L290.234 135.519L290.17 135.519L290.171 135.316C289.99 135.112 289.809 134.909 289.628 134.695C289.532 134.673 289.447 134.652 289.351 134.63C289.329 134.587 289.308 134.534 289.287 134.491C289.191 134.47 289.106 134.448 289.01 134.426L289.01 134.362L288.732 134.297L288.733 134.233L288.53 134.233L288.53 134.169L288.391 134.168L288.391 134.104C287.709 133.942 287.026 133.78 286.343 133.618L286.343 133.479C286.258 133.351 286.087 133.478 285.938 133.414C285.917 133.371 285.896 133.318 285.874 133.275C285.693 133.103 285.693 133.21 285.673 132.869L285.737 132.869C285.758 132.751 285.78 132.645 285.802 132.527C285.845 132.506 285.887 132.485 285.941 132.464L285.941 132.325C286.005 132.282 286.08 132.229 286.144 132.187L286.145 132.048C286.263 131.952 286.37 131.867 286.487 131.771L286.488 131.633L286.552 131.633C286.595 131.569 286.638 131.494 286.691 131.43L286.83 131.431C286.83 131.431 286.873 131.335 286.894 131.292C287.012 131.271 287.119 131.25 287.236 131.229L287.236 131.165L287.439 131.166L287.439 131.102C288.134 130.879 289.318 131.096 290.034 131.109C290.27 130.683 291.2 130.195 291.946 130.496L291.946 130.56C292.085 130.603 292.223 130.657 292.351 130.7L292.351 130.764L292.49 130.764C292.554 130.85 292.628 130.946 292.692 131.042C292.831 131.021 292.97 131 293.098 130.98L293.098 130.915C293.237 130.937 293.375 130.959 293.503 130.981L293.503 131.045C293.695 131.152 293.632 130.981 293.706 131.248L293.77 131.248L293.768 131.654C293.33 131.898 293.147 132.453 293.145 133.157C293.443 133.244 293.336 133.297 293.485 133.5C293.549 133.543 293.624 133.586 293.688 133.639L293.687 133.778C293.687 133.778 293.783 133.821 293.826 133.843L293.826 133.981C293.826 133.981 293.911 134.024 293.964 134.046L293.964 134.185C293.964 134.185 294.06 134.228 294.102 134.249C294.123 134.345 294.144 134.431 294.166 134.527C294.208 134.548 294.251 134.57 294.304 134.591L294.304 134.73C294.304 134.73 294.389 134.773 294.442 134.795C294.463 134.891 294.484 134.976 294.506 135.072C294.548 135.094 294.602 135.115 294.644 135.137L294.644 135.276C294.644 135.276 294.74 135.319 294.782 135.34C294.803 135.436 294.824 135.522 294.846 135.618C294.888 135.639 294.941 135.661 294.984 135.682C295.005 135.778 295.026 135.864 295.047 135.96C295.09 135.982 295.133 136.003 295.186 136.025L295.186 136.163L295.25 136.164C295.271 136.228 295.292 136.302 295.313 136.367C295.356 136.388 295.398 136.409 295.452 136.431L295.451 136.57C295.451 136.57 295.547 136.613 295.59 136.634C295.611 136.698 295.632 136.773 295.653 136.837C295.749 136.902 295.834 136.977 295.93 137.041L295.93 137.18C296.068 137.298 296.207 137.405 296.334 137.523C296.356 137.565 296.377 137.619 296.398 137.661L296.537 137.662L296.537 137.726C296.633 137.748 296.718 137.769 296.814 137.791L296.814 137.855L297.017 137.855L297.017 137.92L297.497 137.921L297.497 137.985C297.956 137.922 298.405 137.849 298.864 137.786L298.864 137.722L299.003 137.723L299.003 137.659L299.206 137.659L299.206 137.595C299.345 137.553 299.484 137.51 299.612 137.457L299.612 137.393L299.89 137.33L299.954 137.192L300.232 137.128L300.297 136.99C300.361 136.969 300.436 136.947 300.5 136.926C300.564 136.83 300.639 136.745 300.703 136.649L300.842 136.65C300.939 136.533 301.024 136.426 301.121 136.309C301.163 136.288 301.206 136.267 301.26 136.245L301.26 136.107C301.378 136.021 301.485 135.926 301.603 135.83L301.603 135.691C301.689 135.627 301.785 135.553 301.881 135.489C301.903 135.425 301.924 135.351 301.946 135.287L302.085 135.287C302.267 135.085 302.449 134.882 302.631 134.669L302.77 134.67C302.812 134.606 302.855 134.531 302.909 134.467L303.048 134.468C303.048 134.468 303.091 134.372 303.112 134.329C303.198 134.308 303.294 134.287 303.39 134.266C303.411 134.223 303.433 134.181 303.454 134.127L303.593 134.128L303.593 134.064C303.732 134.021 303.871 133.969 303.999 133.926L304 133.862L304.202 133.863L304.203 133.799L304.405 133.799L304.406 133.735L304.544 133.736L304.545 133.672C305.068 133.577 305.591 133.493 306.115 133.399L306.115 133.335C306.211 133.314 306.297 133.292 306.393 133.271L306.393 133.207C306.478 133.186 306.574 133.165 306.671 133.144C306.692 133.101 306.714 133.048 306.735 133.006L306.874 133.006C306.874 133.006 306.917 132.91 306.938 132.867L307.077 132.868C307.141 132.772 307.216 132.687 307.281 132.591L307.42 132.591C307.462 132.527 307.516 132.453 307.559 132.389C307.741 132.229 307.923 132.07 308.105 131.91L308.105 131.771C308.287 131.612 308.469 131.452 308.651 131.292L308.651 131.154L308.716 131.154C308.758 131.09 308.801 131.015 308.855 130.951L309.058 130.813L309.059 130.674C309.123 130.632 309.198 130.579 309.262 130.536C309.444 130.334 309.626 130.132 309.808 129.919C309.947 129.876 310.086 129.823 310.214 129.781L310.214 129.717L310.353 129.717L310.353 129.653L310.631 129.654C311.219 129.464 311.848 129.743 312.263 129.937L312.466 129.937L312.466 130.001C312.551 130.023 312.647 130.044 312.743 130.066L312.743 130.13L312.946 130.131L312.946 130.195C313.085 130.238 313.223 130.292 313.351 130.335L313.351 130.399L313.49 130.399L313.49 130.463C313.607 130.485 313.714 130.507 313.831 130.528L313.831 130.592C313.969 130.636 314.108 130.689 314.236 130.732L314.236 130.796L314.375 130.797C314.375 130.797 314.417 130.882 314.438 130.936L314.577 130.936C314.577 130.936 314.619 131.032 314.641 131.075L314.779 131.076C314.822 131.14 314.875 131.215 314.918 131.279C315.099 131.44 315.28 131.6 315.461 131.761L315.46 131.9C315.524 131.943 315.599 131.996 315.663 132.039L315.662 132.178C315.662 132.178 315.758 132.221 315.801 132.242C315.822 132.338 315.843 132.424 315.864 132.52L315.928 132.52L315.928 132.659L315.992 132.659C316.034 132.798 316.076 132.937 316.129 133.065L316.193 133.065L316.193 133.268L316.257 133.269L316.256 133.407L316.321 133.407L316.32 133.61L316.384 133.61L316.384 133.749L316.448 133.749L316.447 133.952L316.511 133.952C316.532 134.049 316.553 134.134 316.574 134.23L316.638 134.23L316.638 134.433L316.702 134.433L316.701 134.572L316.765 134.572L316.765 134.711C316.765 134.711 316.85 134.754 316.904 134.776L316.903 134.914C316.903 134.914 316.988 134.957 317.042 134.979L317.041 135.118C317.041 135.118 317.137 135.161 317.18 135.182C317.244 135.268 317.318 135.364 317.382 135.46L317.521 135.461C317.521 135.461 317.563 135.557 317.584 135.6L317.723 135.6L317.723 135.664C317.862 135.707 318 135.75 318.128 135.804L318.128 135.868C318.267 135.89 318.406 135.912 318.534 135.933L318.533 135.997L318.736 135.998L318.736 136.062L318.939 136.063L318.939 136.127L319.141 136.127L319.141 136.191L319.28 136.192L319.28 136.256L319.483 136.256L319.483 136.321L319.685 136.321L319.685 136.385L319.824 136.386L319.824 136.45L319.963 136.45C320.048 136.568 320.143 136.675 320.239 136.793C320.303 136.835 320.378 136.889 320.442 136.932C320.463 137.017 320.484 137.114 320.505 137.21C320.547 137.231 320.601 137.253 320.643 137.274L320.643 137.477L320.707 137.477L320.706 137.616L320.77 137.616C320.791 137.755 320.812 137.894 320.833 138.022L320.897 138.022C320.961 138.321 321.034 138.61 321.098 138.909C321.395 139.39 321.682 139.861 321.979 140.342L321.979 140.545L322.043 140.545L322.042 140.823L322.106 140.823L322.104 141.367L322.169 141.367C322.264 141.699 322.165 142.638 322.1 142.872C322.078 143.15 322.056 143.417 322.034 143.694C321.915 144.1 321.807 144.654 321.688 145.06L321.686 145.604L321.622 145.604L321.62 146.49L321.684 146.49L321.682 146.971C321.767 147.248 321.862 147.516 321.957 147.793L321.893 147.793C321.819 147.676 321.851 147.697 321.691 147.654" fill="#729041"/>
</g>
</svg>
